{
.appVersion = "895";
DisplayStrings = (
"/noonghunna-ar.medi",
"/qaf-ar/yeh-ar",
"/heh-ar.init"
);
copyright = "Copyright 2015 The El Messiri Project Authors.";
customParameters = (
{
name = licenseURL;
value = "http://scripts.sil.org/OFL";
},
{
name = license;
value = "This Font Software is licensed under the SIL Open Font License, Version 1.1. This license is available with a FAQ at: http://scripts.sil.org/OFL";
},
{
name = openTypeOS2VendorID;
value = MONO;
},
{
name = glyphOrder;
value = (
.null,
CR,
space,
exclam,
quotedbl,
numbersign,
dollar,
percent,
ampersand,
quotesingle,
parenleft,
parenright,
asterisk,
plus,
comma,
hyphen,
period,
slash,
zero,
one,
two,
three,
four,
five,
six,
seven,
eight,
nine,
colon,
semicolon,
less,
equal,
greater,
question,
at,
A,
B,
C,
D,
E,
F,
G,
H,
I,
J,
K,
L,
M,
N,
O,
P,
Q,
R,
S,
T,
U,
V,
W,
X,
Y,
Z,
bracketleft,
backslash,
bracketright,
asciicircum,
underscore,
grave,
a,
b,
c,
d,
e,
f,
g,
h,
i,
j,
k,
l,
m,
n,
o,
p,
q,
r,
s,
t,
u,
v,
w,
x,
y,
z,
braceleft,
bar,
braceright,
asciitilde,
uni00A0,
exclamdown,
cent,
sterling,
currency,
yen,
brokenbar,
section,
dieresis,
copyright,
ordfeminine,
guillemotleft,
logicalnot,
uni00AD,
registered,
macron,
degree,
plusminus,
twosuperior,
threesuperior,
acute,
mu,
paragraph,
periodcentered,
cedilla,
onesuperior,
ordmasculine,
guillemotright,
onequarter,
onehalf,
threequarters,
questiondown,
Agrave,
Aacute,
Acircumflex,
Atilde,
Adieresis,
Aring,
AE,
Ccedilla,
Egrave,
Eacute,
Ecircumflex,
Edieresis,
Igrave,
Iacute,
Icircumflex,
Idieresis,
Eth,
Ntilde,
Ograve,
Oacute,
Ocircumflex,
Otilde,
Odieresis,
multiply,
Oslash,
Ugrave,
Uacute,
Ucircumflex,
Udieresis,
Yacute,
Thorn,
germandbls,
agrave,
aacute,
acircumflex,
atilde,
adieresis,
aring,
ae,
ccedilla,
egrave,
eacute,
ecircumflex,
edieresis,
igrave,
iacute,
icircumflex,
idieresis,
eth,
ntilde,
ograve,
oacute,
ocircumflex,
otilde,
odieresis,
divide,
oslash,
ugrave,
uacute,
ucircumflex,
udieresis,
yacute,
thorn,
ydieresis,
Gbreve,
gbreve,

glyphs = (
{
glyphname = exclam;
lastChange = "2016-03-24 05:07:00 +0000";
layers = (
{
layerId = UUID0;
paths = (
{
closed = 1;
nodes = (
"146 155 LINE",
"164 660 LINE",
"70 660 LINE",
"88 155 LINE"
);
},
{
closed = 1;
nodes = (
"146 -14 OFFCURVE",
"171 10 OFFCURVE",
"171 41 CURVE SMOOTH",
"171 70 OFFCURVE",
"146 94 OFFCURVE",
"117 94 CURVE SMOOTH",
"88 94 OFFCURVE",
"63 70 OFFCURVE",
"63 41 CURVE SMOOTH",
"63 10 OFFCURVE",
"88 -14 OFFCURVE",
"117 -14 CURVE SMOOTH"
);
}
);
width = 234;
},
{
layerId = "BAEEE752-CD63-427F-8763-260FDB7B8BAE";
paths = (
{
closed = 1;
nodes = (
"169 155 LINE",
"189 660 LINE",
"56 660 LINE",
"75 155 LINE"
);
},
{
closed = 1;
nodes = (
"161 -14 OFFCURVE",
"183 11 OFFCURVE",
"183 47 CURVE SMOOTH",
"183 83 OFFCURVE",
"161 108 OFFCURVE",
"122 108 CURVE SMOOTH",
"83 108 OFFCURVE",
"61 83 OFFCURVE",
"61 47 CURVE SMOOTH",
"61 11 OFFCURVE",
"83 -14 OFFCURVE",
"122 -14 CURVE SMOOTH"
);
}
);
width = 245;
}
);
unicode = 0021;
},
{
glyphname = quotedbl;
lastChange = "2016-03-24 05:07:08 +0000";
layers = (
{
layerId = UUID0;
paths = (
{
closed = 1;
nodes = (
"283 390 LINE",
"313 660 LINE",
"213 660 LINE",
"243 390 LINE"
);
},
{
closed = 1;
nodes = (
"123 390 LINE",
"153 660 LINE",
"53 660 LINE",
"83 390 LINE"
);
}
);
width = 366;
},
{
layerId = "BAEEE752-CD63-427F-8763-260FDB7B8BAE";
paths = (
{
closed = 1;
nodes = (
"315 390 LINE",
"345 660 LINE",
"215 660 LINE",
"245 390 LINE"
);
},
{
closed = 1;
nodes = (
"145 390 LINE",
"175 660 LINE",
"45 660 LINE",
"75 390 LINE"
);
}
);
width = 390;
}
);
leftKerningGroup = quotedbl;
rightKerningGroup = quotedbl;
unicode = 0022;
},
{
glyphname = numbersign;
lastChange = "2016-03-24 05:07:11 +0000";
layers = (
{
layerId = UUID0;
paths = (
{
closed = 1;
nodes = (
"191 0 LINE",
"226 175 LINE",
"371 175 LINE",
"336 0 LINE",
"401 0 LINE",
"436 175 LINE",
"576 175 LINE",
"576 235 LINE",
"449 235 LINE",
"486 415 LINE",
"636 415 LINE",
"636 475 LINE",
"499 475 LINE",
"541 675 LINE",
"476 675 LINE",
"434 475 LINE",
"289 475 LINE",
"331 675 LINE",
"266 675 LINE",
"224 475 LINE",
"91 475 LINE",
"91 415 LINE",
"211 415 LINE",
"175 235 LINE",
"31 235 LINE",
"31 175 LINE",
"161 175 LINE",
"126 0 LINE"
);
},
{
closed = 1;
nodes = (
"276 415 LINE",
"421 415 LINE",
"385 235 LINE",
"239 235 LINE"
);
}
);
width = 668;
},
{
layerId = "BAEEE752-CD63-427F-8763-260FDB7B8BAE";
paths = (
{
closed = 1;
nodes = (
"215 0 LINE",
"251 172 LINE",
"378 172 LINE",
"342 0 LINE",
"441 0 LINE",
"477 172 LINE",
"609 172 LINE",
"609 237 LINE",
"491 237 LINE",
"527 413 LINE",
"669 413 LINE",
"669 478 LINE",
"541 478 LINE",
"582 675 LINE",
"483 675 LINE",
"442 478 LINE",
"315 478 LINE",
"356 675 LINE",
"257 675 LINE",
"216 478 LINE",
"89 478 LINE",
"89 413 LINE",
"202 413 LINE",
"165 237 LINE",
"29 237 LINE",
"29 172 LINE",
"152 172 LINE",
"116 0 LINE"
);
},
{
closed = 1;
nodes = (
"301 413 LINE",
"428 413 LINE",
"391 237 LINE",
"265 237 LINE"
);
}
);
width = 699;
}
);
unicode = 0023;
},
{
glyphname = dollar;
lastChange = "2016-03-21 22:32:24 +0000";
layers = (
{
layerId = UUID0;
paths = (
{
closed = 1;
nodes = (
"276 -80 LINE",
"276 -17 LINE",
"407 -17 OFFCURVE",
"485 55 OFFCURVE",
"485 168 CURVE SMOOTH",
"485 243 OFFCURVE",
"446 282 OFFCURVE",
"361 333 CURVE SMOOTH",
"276 383 LINE",
"276 636 LINE",
"368 625 OFFCURVE",
"421 572 OFFCURVE",
"441 451 CURVE",
"459 451 LINE",
"459 558 LINE SMOOTH",
"459 625 OFFCURVE",
"366 668 OFFCURVE",
"276 676 CURVE",
"276 735 LINE",
"236 735 LINE",
"236 678 LINE",
"124 675 OFFCURVE",
"49 609 OFFCURVE",
"49 508 CURVE SMOOTH",
"49 433 OFFCURVE",
"81 387 OFFCURVE",
"166 336 CURVE SMOOTH",
"236 294 LINE",
"236 24 LINE",
"143 35 OFFCURVE",
"87 91 OFFCURVE",
"67 212 CURVE",
"49 212 LINE",
"49 105 LINE SMOOTH",
"49 38 OFFCURVE",
"140 -4 OFFCURVE",
"236 -15 CURVE",
"236 -80 LINE"
);
},
{
closed = 1;
nodes = (
"276 270 LINE",
"362 220 OFFCURVE",
"399 187 OFFCURVE",
"399 125 CURVE SMOOTH",
"399 61 OFFCURVE",
"341 26 OFFCURVE",
"276 23 CURVE"
);
},
{
closed = 1;
nodes = (
"164 450 OFFCURVE",
"127 478 OFFCURVE",
"127 537 CURVE SMOOTH",
"127 596 OFFCURVE",
"179 635 OFFCURVE",
"236 638 CURVE",
"236 407 LINE"
);
}
);
width = 526;
},
{
layerId = "BAEEE752-CD63-427F-8763-260FDB7B8BAE";
paths = (
{
closed = 1;
nodes = (
"305 -80 LINE",
"305 -16 LINE",
"442 -5 OFFCURVE",
"519 64 OFFCURVE",
"519 169 CURVE SMOOTH",
"519 242 OFFCURVE",
"479 288 OFFCURVE",
"388 341 CURVE SMOOTH",
"305 390 LINE",
"305 631 LINE",
"392 622 OFFCURVE",
"445 568 OFFCURVE",
"465 441 CURVE",
"493 441 LINE",
"493 558 LINE SMOOTH",
"493 623 OFFCURVE",
"401 668 OFFCURVE",
"305 676 CURVE",
"305 735 LINE",
"235 735 LINE",
"235 677 LINE",
"115 666 OFFCURVE",
"43 603 OFFCURVE",
"43 507 CURVE SMOOTH",
"43 434 OFFCURVE",
"76 381 OFFCURVE",
"167 328 CURVE SMOOTH",
"235 287 LINE",
"235 29 LINE",
"143 40 OFFCURVE",
"90 95 OFFCURVE",
"70 220 CURVE",
"42 220 LINE",
"42 103 LINE SMOOTH",
"42 34 OFFCURVE",
"135 -7 OFFCURVE",
"235 -15 CURVE",
"235 -80 LINE"
);
},
{
closed = 1;
nodes = (
"305 245 LINE",
"360 210 OFFCURVE",
"393 177 OFFCURVE",
"393 125 CURVE SMOOTH",
"393 73 OFFCURVE",
"358 42 OFFCURVE",
"305 31 CURVE"
);
},
{
closed = 1;
nodes = (
"188 463 OFFCURVE",
"161 488 OFFCURVE",
"161 536 CURVE SMOOTH",
"161 583 OFFCURVE",
"188 615 OFFCURVE",
"235 628 CURVE",
"235 432 LINE"
);
}
);
width = 550;
}
);
unicode = 0024;
},
{
glyphname = percent;
lastChange = "2016-03-24 05:07:13 +0000";
layers = (
{
layerId = UUID0;
paths = (
{
closed = 1;
nodes = (
"147 0 LINE",
"602 660 LINE",
"527 660 LINE",
"72 0 LINE"
);
},
{
closed = 1;
nodes = (
"588 -5 OFFCURVE",
"642 45 OFFCURVE",
"642 130 CURVE SMOOTH",
"642 215 OFFCURVE",
"588 265 OFFCURVE",
"497 265 CURVE SMOOTH",
"406 265 OFFCURVE",
"352 215 OFFCURVE",
"352 130 CURVE SMOOTH",
"352 45 OFFCURVE",
"406 -5 OFFCURVE",
"497 -5 CURVE SMOOTH"
);
},
{
closed = 1;
nodes = (
"440 30 OFFCURVE",
"412 63 OFFCURVE",
"412 130 CURVE SMOOTH",
"412 197 OFFCURVE",
"440 230 OFFCURVE",
"497 230 CURVE SMOOTH",
"554 230 OFFCURVE",
"582 197 OFFCURVE",
"582 130 CURVE SMOOTH",
"582 63 OFFCURVE",
"554 30 OFFCURVE",
"497 30 CURVE SMOOTH"
);
},
{
closed = 1;
nodes = (
"268 395 OFFCURVE",
"322 445 OFFCURVE",
"322 530 CURVE SMOOTH",
"322 615 OFFCURVE",
"268 665 OFFCURVE",
"177 665 CURVE SMOOTH",
"86 665 OFFCURVE",
"32 615 OFFCURVE",
"32 530 CURVE SMOOTH",
"32 445 OFFCURVE",
"86 395 OFFCURVE",
"177 395 CURVE SMOOTH"
);
},
{
closed = 1;
nodes = (
"120 430 OFFCURVE",
"92 463 OFFCURVE",
"92 530 CURVE SMOOTH",
"92 597 OFFCURVE",
"120 630 OFFCURVE",
"177 630 CURVE SMOOTH",
"234 630 OFFCURVE",
"262 597 OFFCURVE",
"262 530 CURVE SMOOTH",
"262 463 OFFCURVE",
"234 430 OFFCURVE",
"177 430 CURVE SMOOTH"
);
}
);
width = 674;
},
{
layerId = "BAEEE752-CD63-427F-8763-260FDB7B8BAE";
paths = (
{
closed = 1;
nodes = (
"189 0 LINE",
"673 660 LINE",
"567 660 LINE",
"83 0 LINE"
);
},
{
closed = 1;
nodes = (
"665 -5 OFFCURVE",
"726 45 OFFCURVE",
"726 133 CURVE SMOOTH",
"726 221 OFFCURVE",
"665 271 OFFCURVE",
"568 271 CURVE SMOOTH",
"468 271 OFFCURVE",
"408 221 OFFCURVE",
"408 133 CURVE SMOOTH",
"408 45 OFFCURVE",
"468 -5 OFFCURVE",
"568 -5 CURVE SMOOTH"
);
},
{
closed = 1;
nodes = (
"515 35 OFFCURVE",
"488 69 OFFCURVE",
"488 133 CURVE SMOOTH",
"488 197 OFFCURVE",
"515 231 OFFCURVE",
"566 231 CURVE SMOOTH",
"618 231 OFFCURVE",
"646 197 OFFCURVE",
"646 133 CURVE SMOOTH",
"646 69 OFFCURVE",
"619 35 OFFCURVE",
"567 35 CURVE SMOOTH"
);
},
{
closed = 1;
nodes = (
"287 389 OFFCURVE",
"348 439 OFFCURVE",
"348 527 CURVE SMOOTH",
"348 615 OFFCURVE",
"287 665 OFFCURVE",
"190 665 CURVE SMOOTH",
"90 665 OFFCURVE",
"30 615 OFFCURVE",
"30 527 CURVE SMOOTH",
"30 439 OFFCURVE",
"90 389 OFFCURVE",
"190 389 CURVE SMOOTH"
);
},
{
closed = 1;
nodes = (
"137 429 OFFCURVE",
"110 463 OFFCURVE",
"110 527 CURVE SMOOTH",
"110 591 OFFCURVE",
"137 625 OFFCURVE",
"188 625 CURVE SMOOTH",
"240 625 OFFCURVE",
"268 591 OFFCURVE",
"268 527 CURVE SMOOTH",
"268 463 OFFCURVE",
"241 429 OFFCURVE",
"189 429 CURVE SMOOTH"
);
}
);
width = 755;
}
);
unicode = 0025;
},
{
glyphname = ampersand;
lastChange = "2016-03-24 04:16:04 +0000";
layers = (
{
layerId = UUID0;
paths = (
{
closed = 1;
nodes = (
"332 -20 OFFCURVE",
"394 7 OFFCURVE",
"442 43 CURVE",
"482 0 LINE",
"592 0 LINE",
"503 97 LINE",
"532 129 OFFCURVE",
"555 163 OFFCURVE",
"570 188 CURVE SMOOTH",
"579 203 OFFCURVE",
"586 217 OFFCURVE",
"592 230 CURVE",
"572 245 LINE",
"565 232 OFFCURVE",
"557 219 OFFCURVE",
"548 205 CURVE SMOOTH",
"532 181 OFFCURVE",
"510 151 OFFCURVE",
"482 120 CURVE",
"281 340 LINE",
"359 394 OFFCURVE",
"427 447 OFFCURVE",
"427 540 CURVE SMOOTH",
"427 620 OFFCURVE",
"367 680 OFFCURVE",
"262 680 CURVE SMOOTH",
"151 680 OFFCURVE",
"82 620 OFFCURVE",
"82 524 CURVE SMOOTH",
"82 437 OFFCURVE",
"136 370 OFFCURVE",
"185 326 CURVE",
"112 272 OFFCURVE",
"42 224 OFFCURVE",
"42 140 CURVE SMOOTH",
"42 50 OFFCURVE",
"112 -20 OFFCURVE",
"252 -20 CURVE SMOOTH"
);
},
{
closed = 1;
nodes = (
"182 15 OFFCURVE",
"137 60 OFFCURVE",
"137 150 CURVE SMOOTH",
"137 210 OFFCURVE",
"170 252 OFFCURVE",
"215 291 CURVE",
"421 66 LINE",
"381 35 OFFCURVE",
"332 15 OFFCURVE",
"271 15 CURVE SMOOTH"
);
},
{
closed = 1;
nodes = (
"243 380 OFFCURVE",
"177 445 OFFCURVE",
"177 524 CURVE SMOOTH",
"177 615 OFFCURVE",
"222 645 OFFCURVE",
"262 645 CURVE SMOOTH",
"297 645 OFFCURVE",
"342 615 OFFCURVE",
"342 530 CURVE SMOOTH",
"342 463 OFFCURVE",
"301 418 OFFCURVE",
"250 375 CURVE"
);
}
);
width = 616;
},
{
layerId = "BAEEE752-CD63-427F-8763-260FDB7B8BAE";
paths = (
{
closed = 1;
nodes = (
"379 -20 OFFCURVE",
"452 38 OFFCURVE",
"451 38 CURVE",
"489 0 LINE",
"625 0 LINE",
"528 103 LINE",
"557 135 OFFCURVE",
"579 168 OFFCURVE",
"594 193 CURVE SMOOTH",
"603 208 OFFCURVE",
"610 222 OFFCURVE",
"616 236 CURVE",
"578 261 LINE",
"571 248 OFFCURVE",
"563 234 OFFCURVE",
"554 221 CURVE SMOOTH",
"539 198 OFFCURVE",
"518 167 OFFCURVE",
"494 140 CURVE",
"309 340 LINE",
"391 393 OFFCURVE",
"464 458 OFFCURVE",
"464 540 CURVE SMOOTH",
"464 623 OFFCURVE",
"400 680 OFFCURVE",
"279 680 CURVE SMOOTH",
"154 680 OFFCURVE",
"79 623 OFFCURVE",
"79 524 CURVE SMOOTH",
"79 430 OFFCURVE",
"171 343 OFFCURVE",
"190 326 CURVE",
"103 281 OFFCURVE",
"32 224 OFFCURVE",
"32 135 CURVE SMOOTH",
"32 51 OFFCURVE",
"94 -20 OFFCURVE",
"279 -20 CURVE SMOOTH"
);
},
{
closed = 1;
nodes = (
"204 20 OFFCURVE",
"162 69 OFFCURVE",
"162 145 CURVE SMOOTH",
"162 201 OFFCURVE",
"194 246 OFFCURVE",
"230 278 CURVE",
"421 72 LINE",
"393 47 OFFCURVE",
"345 20 OFFCURVE",
"288 20 CURVE SMOOTH"
);
},
{
closed = 1;
nodes = (
"248 405 OFFCURVE",
"209 451 OFFCURVE",
"209 524 CURVE SMOOTH",
"209 613 OFFCURVE",
"234 640 OFFCURVE",
"279 640 CURVE SMOOTH",
"308 640 OFFCURVE",
"344 613 OFFCURVE",
"344 530 CURVE SMOOTH",
"344 465 OFFCURVE",
"315 420 OFFCURVE",
"272 381 CURVE"
);
}
);
width = 636;
}
);
unicode = 0026;
},
{
glyphname = quotesingle;
lastChange = "2016-03-24 05:07:15 +0000";
layers = (
{
layerId = UUID0;
paths = (
{
closed = 1;
nodes = (
"123 390 LINE",
"153 660 LINE",
"53 660 LINE",
"83 390 LINE"
);
}
);
width = 206;
},
{
layerId = "BAEEE752-CD63-427F-8763-260FDB7B8BAE";
paths = (
{
closed = 1;
nodes = (
"145 390 LINE",
"175 660 LINE",
"45 660 LINE",
"75 390 LINE"
);
}
);
width = 220;
}
);
leftKerningGroup = quotedbl;
rightKerningGroup = quotedbl;
unicode = 0027;
},
{
glyphname = parenleft;
lastChange = "2016-03-24 04:19:29 +0000";
layers = (
{
layerId = UUID0;
paths = (
{
closed = 1;
nodes = (
"294 -195 LINE",
"164 -81 OFFCURVE",
"124 80 OFFCURVE",
"124 240 CURVE SMOOTH",
"124 400 OFFCURVE",
"164 561 OFFCURVE",
"294 675 CURVE",
"284 690 LINE",
"124 570 OFFCURVE",
"34 440 OFFCURVE",
"34 240 CURVE SMOOTH",
"34 40 OFFCURVE",
"124 -90 OFFCURVE",
"284 -210 CURVE"
);
}
);
width = 309;
},
{
layerId = "BAEEE752-CD63-427F-8763-260FDB7B8BAE";
paths = (
{
closed = 1;
nodes = (
"311 -200 LINE",
"194 -96 OFFCURVE",
"154 61 OFFCURVE",
"154 240 CURVE SMOOTH",
"154 419 OFFCURVE",
"194 576 OFFCURVE",
"311 680 CURVE",
"297 700 LINE",
"118 579 OFFCURVE",
"24 431 OFFCURVE",
"24 240 CURVE SMOOTH",
"24 49 OFFCURVE",
"118 -99 OFFCURVE",
"297 -220 CURVE"
);
}
);
width = 320;
}
);
unicode = 0028;
},
{
glyphname = parenright;
lastChange = "2016-03-24 04:19:34 +0000";
layers = (
{
layerId = UUID0;
paths = (
{
closed = 1;
nodes = (
"185 -90 OFFCURVE",
"275 40 OFFCURVE",
"275 240 CURVE SMOOTH",
"275 440 OFFCURVE",
"185 570 OFFCURVE",
"25 690 CURVE",
"15 675 LINE",
"145 561 OFFCURVE",
"185 400 OFFCURVE",
"185 240 CURVE SMOOTH",
"185 80 OFFCURVE",
"145 -81 OFFCURVE",
"15 -195 CURVE",
"25 -210 LINE"
);
}
);
width = 309;
},
{
layerId = "BAEEE752-CD63-427F-8763-260FDB7B8BAE";
paths = (
{
closed = 1;
nodes = (
"203 -99 OFFCURVE",
"297 49 OFFCURVE",
"297 240 CURVE SMOOTH",
"297 431 OFFCURVE",
"203 579 OFFCURVE",
"24 700 CURVE",
"10 680 LINE",
"127 576 OFFCURVE",
"167 419 OFFCURVE",
"167 240 CURVE SMOOTH",
"167 61 OFFCURVE",
"127 -96 OFFCURVE",
"10 -200 CURVE",
"24 -220 LINE"
);
}
);
width = 321;
}
);
unicode = 0029;
},
{
glyphname = asterisk;
lastChange = "2016-03-24 05:07:18 +0000";
layers = (
{
layerId = UUID0;
paths = (
{
closed = 1;
nodes = (
"252 330 LINE",
"222 480 LINE",
"337 375 LINE",
"377 445 LINE",
"232 495 LINE",
"377 545 LINE",
"337 615 LINE",
"222 510 LINE",
"252 660 LINE",
"172 660 LINE",
"202 510 LINE",
"87 615 LINE",
"47 545 LINE",
"192 495 LINE",
"47 445 LINE",
"87 375 LINE",
"202 480 LINE",
"172 330 LINE"
);
}
);
width = 424;
},
{
layerId = "BAEEE752-CD63-427F-8763-260FDB7B8BAE";
paths = (
{
closed = 1;
nodes = (
"273 324 LINE",
"248 446 LINE",
"347 356 LINE",
"396 442 LINE",
"252 492 LINE",
"396 542 LINE",
"347 628 LINE",
"249 539 LINE",
"273 660 LINE",
"161 660 LINE",
"185 539 LINE",
"87 628 LINE",
"38 542 LINE",
"182 492 LINE",
"38 442 LINE",
"87 356 LINE",
"185 445 LINE",
"161 324 LINE"
);
}
);
width = 434;
}
);
unicode = 002A;
},
{
glyphname = plus;
lastChange = "2016-03-24 05:07:20 +0000";
layers = (
{
layerId = UUID0;
paths = (
{
closed = 1;
nodes = (
"295 100 LINE",
"295 300 LINE",
"495 300 LINE",
"495 360 LINE",
"295 360 LINE",
"295 560 LINE",
"235 560 LINE",
"235 360 LINE",
"35 360 LINE",
"35 300 LINE",
"235 300 LINE",
"235 100 LINE"
);
}
);
width = 530;
},
{
layerId = "BAEEE752-CD63-427F-8763-260FDB7B8BAE";
paths = (
{
closed = 1;
nodes = (
"318 100 LINE",
"318 295 LINE",
"515 295 LINE",
"515 365 LINE",
"318 365 LINE",
"318 560 LINE",
"228 560 LINE",
"228 365 LINE",
"31 365 LINE",
"31 295 LINE",
"228 295 LINE",
"228 100 LINE"
);
}
);
width = 546;
}
);
unicode = 002B;
},
{
glyphname = comma;
lastChange = "2016-03-24 05:10:53 +0000";
layers = (
{
layerId = UUID0;
paths = (
{
closed = 1;
nodes = (
"142 -115 OFFCURVE",
"181 -55 OFFCURVE",
"181 30 CURVE SMOOTH",
"181 75 OFFCURVE",
"156 100 OFFCURVE",
"116 100 CURVE SMOOTH",
"81 100 OFFCURVE",
"56 75 OFFCURVE",
"56 40 CURVE SMOOTH",
"56 9 OFFCURVE",
"80 -15 OFFCURVE",
"111 -15 CURVE SMOOTH",
"122 -15 OFFCURVE",
"135 -9 OFFCURVE",
"141 -5 CURVE",
"141 -65 OFFCURVE",
"112 -105 OFFCURVE",
"61 -140 CURVE",
"71 -155 LINE"
);
}
);
width = 237;
},
{
layerId = "BAEEE752-CD63-427F-8763-260FDB7B8BAE";
paths = (
{
closed = 1;
nodes = (
"148 -104 OFFCURVE",
"178 -46 OFFCURVE",
"178 30 CURVE SMOOTH",
"178 70 OFFCURVE",
"156 108 OFFCURVE",
"112 108 CURVE SMOOTH",
"73 108 OFFCURVE",
"51 83 OFFCURVE",
"51 47 CURVE SMOOTH",
"51 11 OFFCURVE",
"73 -14 OFFCURVE",
"112 -14 CURVE SMOOTH",
"116 -14 OFFCURVE",
"123 -12 OFFCURVE",
"127 -11 CURVE",
"127 -71 OFFCURVE",
"78 -114 OFFCURVE",
"45 -136 CURVE",
"63 -160 LINE"
);
}
);
width = 228;
}
);
leftKerningGroup = quotedblbase;
rightKerningGroup = quotedblbase;
unicode = 002C;
},
{
glyphname = hyphen;
lastChange = "2016-03-24 05:07:23 +0000";
layers = (
{
layerId = UUID0;
paths = (
{
closed = 1;
nodes = (
"321 230 LINE",
"321 300 LINE",
"66 300 LINE",
"66 230 LINE"
);
}
);
width = 387;
},
{
layerId = "BAEEE752-CD63-427F-8763-260FDB7B8BAE";
paths = (
{
closed = 1;
nodes = (
"337 217 LINE",
"337 312 LINE",
"58 312 LINE",
"58 217 LINE"
);
}
);
width = 395;
}
);
leftKerningGroup = emdash;
rightKerningGroup = emdash;
unicode = 002D;
},
{
glyphname = period;
lastChange = "2016-03-24 04:20:47 +0000";
layers = (
{
layerId = UUID0;
paths = (
{
closed = 1;
nodes = (
"139 -14 OFFCURVE",
"164 10 OFFCURVE",
"164 41 CURVE SMOOTH",
"164 70 OFFCURVE",
"141 95 OFFCURVE",
"110 95 CURVE SMOOTH",
"81 95 OFFCURVE",
"56 70 OFFCURVE",
"56 41 CURVE SMOOTH",
"56 10 OFFCURVE",
"81 -14 OFFCURVE",
"110 -14 CURVE SMOOTH"
);
}
);
width = 220;
},
{
layerId = "BAEEE752-CD63-427F-8763-260FDB7B8BAE";
paths = (
{
closed = 1;
nodes = (
"151 -14 OFFCURVE",
"173 11 OFFCURVE",
"173 47 CURVE SMOOTH",
"173 83 OFFCURVE",
"151 108 OFFCURVE",
"112 108 CURVE SMOOTH",
"73 108 OFFCURVE",
"51 83 OFFCURVE",
"51 47 CURVE SMOOTH",
"51 11 OFFCURVE",
"73 -14 OFFCURVE",
"112 -14 CURVE SMOOTH"
);
}
);
width = 224;
}
);
leftKerningGroup = quotedblbase;
rightKerningGroup = quotedblbase;
unicode = 002E;
},
{
glyphname = slash;
lastChange = "2016-03-24 05:07:27 +0000";
layers = (
{
layerId = UUID0;
paths = (
{
closed = 1;
nodes = (
"96 0 LINE",
"417 660 LINE",
"344 660 LINE",
"23 0 LINE"
);
}
);
width = 440;
},
{
layerId = "BAEEE752-CD63-427F-8763-260FDB7B8BAE";
paths = (
{
closed = 1;
nodes = (
"133 0 LINE",
"454 660 LINE",
"342 660 LINE",
"21 0 LINE"
);
}
);
width = 475;
}
);
unicode = 002F;
},
{
glyphname = zero;
lastChange = "2016-04-09 02:48:43 +0000";
layers = (
{
layerId = UUID0;
paths = (
{
closed = 1;
nodes = (
"467 -20 OFFCURVE",
"532 119 OFFCURVE",
"532 330 CURVE SMOOTH",
"532 541 OFFCURVE",
"467 680 OFFCURVE",
"292 680 CURVE SMOOTH",
"117 680 OFFCURVE",
"52 541 OFFCURVE",
"52 330 CURVE SMOOTH",
"52 119 OFFCURVE",
"117 -20 OFFCURVE",
"292 -20 CURVE SMOOTH"
);
},
{
closed = 1;
nodes = (
"183 20 OFFCURVE",
"152 120 OFFCURVE",
"152 330 CURVE SMOOTH",
"152 540 OFFCURVE",
"183 640 OFFCURVE",
"292 640 CURVE SMOOTH",
"401 640 OFFCURVE",
"432 540 OFFCURVE",
"432 330 CURVE SMOOTH",
"432 120 OFFCURVE",
"401 20 OFFCURVE",
"292 20 CURVE SMOOTH"
);
}
);
width = 584;
},
{
layerId = "BAEEE752-CD63-427F-8763-260FDB7B8BAE";
paths = (
{
closed = 1;
nodes = (
"494 -20 OFFCURVE",
"563 122 OFFCURVE",
"563 330 CURVE SMOOTH",
"563 538 OFFCURVE",
"494 680 OFFCURVE",
"303 680 CURVE SMOOTH",
"112 680 OFFCURVE",
"43 538 OFFCURVE",
"43 330 CURVE SMOOTH",
"43 122 OFFCURVE",
"112 -20 OFFCURVE",
"303 -20 CURVE SMOOTH"
);
},
{
closed = 1;
nodes = (
"219 25 OFFCURVE",
"183 119 OFFCURVE",
"183 330 CURVE SMOOTH",
"183 541 OFFCURVE",
"219 635 OFFCURVE",
"303 635 CURVE SMOOTH",
"387 635 OFFCURVE",
"423 541 OFFCURVE",
"423 330 CURVE SMOOTH",
"423 119 OFFCURVE",
"387 25 OFFCURVE",
"303 25 CURVE SMOOTH"
);
}
);
width = 606;
}
);
unicode = 0030;
},
{
glyphname = one;
lastChange = "2016-03-24 05:07:29 +0000";
layers = (
{
layerId = UUID0;
paths = (
{
closed = 1;
nodes = (
"219 0 LINE",
"219 660 LINE",
"169 660 LINE",
"14 520 LINE",
"32 497 LINE",
"129 560 LINE",
"129 0 LINE"
);
}
);
width = 305;
},
{
layerId = "BAEEE752-CD63-427F-8763-260FDB7B8BAE";
paths = (
{
closed = 1;
nodes = (
"249 0 LINE",
"249 660 LINE",
"162 660 LINE",
"8 517 LINE",
"32 486 LINE",
"119 542 LINE",
"119 0 LINE"
);
}
);
width = 323;
}
);
unicode = 0031;
},
{
glyphname = two;
lastChange = "2016-03-24 04:13:38 +0000";
layers = (
{
layerId = UUID0;
paths = (
{
closed = 1;
nodes = (
"396 0 LINE SMOOTH",
"465 0 OFFCURVE",
"481 40 OFFCURVE",
"481 80 CURVE SMOOTH",
"481 145 LINE",
"461 145 LINE",
"461 74 OFFCURVE",
"416 40 OFFCURVE",
"336 40 CURVE SMOOTH",
"111 40 LINE",
"296 217 OFFCURVE",
"466 319 OFFCURVE",
"466 490 CURVE SMOOTH",
"466 650 OFFCURVE",
"346 680 OFFCURVE",
"266 680 CURVE SMOOTH",
"186 680 OFFCURVE",
"111 644 OFFCURVE",
"75 600 CURVE SMOOTH",
"51 569 OFFCURVE",
"51 521 OFFCURVE",
"51 470 CURVE",
"71 470 LINE",
"91 581 OFFCURVE",
"156 640 OFFCURVE",
"236 640 CURVE SMOOTH",
"305 640 OFFCURVE",
"366 590 OFFCURVE",
"366 490 CURVE SMOOTH",
"366 340 OFFCURVE",
"251 254 OFFCURVE",
"41 50 CURVE",
"41 0 LINE"
);
}
);
width = 530;
},
{
layerId = "BAEEE752-CD63-427F-8763-260FDB7B8BAE";
paths = (
{
closed = 1;
nodes = (
"405 0 LINE SMOOTH",
"474 0 OFFCURVE",
"490 40 OFFCURVE",
"490 80 CURVE SMOOTH",
"490 155 LINE",
"460 155 LINE",
"460 84 OFFCURVE",
"415 45 OFFCURVE",
"335 45 CURVE SMOOTH",
"128 45 LINE",
"192 109 OFFCURVE",
"490 300 OFFCURVE",
"490 487 CURVE SMOOTH",
"490 651 OFFCURVE",
"352 680 OFFCURVE",
"260 680 CURVE SMOOTH",
"176 680 OFFCURVE",
"101 644 OFFCURVE",
"65 600 CURVE SMOOTH",
"41 569 OFFCURVE",
"41 511 OFFCURVE",
"41 460 CURVE",
"76 460 LINE",
"96 581 OFFCURVE",
"156 635 OFFCURVE",
"240 635 CURVE SMOOTH",
"296 635 OFFCURVE",
"350 591 OFFCURVE",
"350 487 CURVE SMOOTH",
"350 335 OFFCURVE",
"126 150 OFFCURVE",
"41 65 CURVE",
"41 0 LINE"
);
}
);
width = 539;
}
);
unicode = 0032;
},
{
glyphname = three;
lastChange = "2016-03-24 04:13:53 +0000";
layers = (
{
layerId = UUID0;
paths = (
{
closed = 1;
nodes = (
"341 -20 OFFCURVE",
"491 10 OFFCURVE",
"491 185 CURVE SMOOTH",
"491 349 OFFCURVE",
"340 380 OFFCURVE",
"281 380 CURVE SMOOTH",
"269 380 OFFCURVE",
"226 379 OFFCURVE",
"191 370 CURVE",
"459 620 LINE",
"459 660 LINE",
"141 660 LINE SMOOTH",
"72 660 OFFCURVE",
"56 620 OFFCURVE",
"56 580 CURVE SMOOTH",
"56 515 LINE",
"76 515 LINE",
"76 586 OFFCURVE",
"121 620 OFFCURVE",
"201 620 CURVE SMOOTH",
"386 620 LINE",
"115 367 LINE",
"141 325 LINE",
"186 336 OFFCURVE",
"201 340 OFFCURVE",
"261 340 CURVE SMOOTH",
"321 340 OFFCURVE",
"391 290 OFFCURVE",
"391 185 CURVE SMOOTH",
"391 70 OFFCURVE",
"321 20 OFFCURVE",
"241 20 CURVE SMOOTH",
"165 20 OFFCURVE",
"107 49 OFFCURVE",
"56 105 CURVE",
"40 87 LINE",
"96 22 OFFCURVE",
"166 -20 OFFCURVE",
"266 -20 CURVE SMOOTH"
);
}
);
width = 530;
},
{
layerId = "BAEEE752-CD63-427F-8763-260FDB7B8BAE";
paths = (
{
closed = 1;
nodes = (
"353 -20 OFFCURVE",
"512 17 OFFCURVE",
"512 185 CURVE SMOOTH",
"512 333 OFFCURVE",
"383 385 OFFCURVE",
"292 385 CURVE SMOOTH",
"268 385 OFFCURVE",
"229 382 OFFCURVE",
"228 381 CURVE SMOOTH",
"477 615 LINE",
"477 660 LINE",
"139 660 LINE SMOOTH",
"70 660 OFFCURVE",
"54 620 OFFCURVE",
"54 580 CURVE SMOOTH",
"54 505 LINE",
"84 505 LINE",
"84 576 OFFCURVE",
"129 615 OFFCURVE",
"209 615 CURVE SMOOTH",
"388 615 LINE",
"115 359 LINE",
"139 321 LINE",
"189 335 OFFCURVE",
"203 340 OFFCURVE",
"244 340 CURVE SMOOTH",
"314 340 OFFCURVE",
"372 293 OFFCURVE",
"372 185 CURVE SMOOTH",
"372 72 OFFCURVE",
"310 25 OFFCURVE",
"233 25 CURVE SMOOTH",
"176 25 OFFCURVE",
"111 54 OFFCURVE",
"55 117 CURVE",
"27 88 LINE",
"83 23 OFFCURVE",
"148 -20 OFFCURVE",
"277 -20 CURVE SMOOTH"
);
}
);
width = 543;
}
);
unicode = 0033;
},
{
glyphname = four;
lastChange = "2016-03-24 05:07:31 +0000";
layers = (
{
layerId = UUID0;
paths = (
{
closed = 1;
nodes = (
"428 0 LINE",
"428 170 LINE",
"518 170 LINE",
"518 210 LINE",
"428 210 LINE",
"428 660 LINE",
"348 660 LINE",
"18 210 LINE",
"18 170 LINE",
"338 170 LINE",
"338 0 LINE"
);
},
{
closed = 1;
nodes = (
"338 564 LINE",
"338 210 LINE",
"78 210 LINE"
);
}
);
width = 546;
},
{
layerId = "BAEEE752-CD63-427F-8763-260FDB7B8BAE";
paths = (
{
closed = 1;
nodes = (
"459 0 LINE",
"459 170 LINE",
"549 170 LINE",
"549 215 LINE",
"459 215 LINE",
"459 660 LINE",
"355 660 LINE",
"9 210 LINE",
"9 170 LINE",
"329 170 LINE",
"329 0 LINE"
);
},
{
closed = 1;
nodes = (
"329 543 LINE",
"329 215 LINE",
"78 215 LINE"
);
}
);
width = 572;
}
);
unicode = 0034;
},
{
glyphname = five;
lastChange = "2016-03-24 04:14:23 +0000";
layers = (
{
layerId = UUID0;
paths = (
{
closed = 1;
nodes = (
"341 -20 OFFCURVE",
"492 14 OFFCURVE",
"492 185 CURVE SMOOTH",
"492 345 OFFCURVE",
"352 380 OFFCURVE",
"252 380 CURVE SMOOTH",
"227 380 OFFCURVE",
"201 378 OFFCURVE",
"182 377 CURVE SMOOTH",
"150 375 LINE",
"159 620 LINE",
"452 620 LINE",
"452 660 LINE",
"77 660 LINE",
"67 370 LINE",
"107 330 LINE",
"168 338 OFFCURVE",
"198 340 OFFCURVE",
"232 340 CURVE SMOOTH",
"332 340 OFFCURVE",
"392 290 OFFCURVE",
"392 185 CURVE SMOOTH",
"392 70 OFFCURVE",
"322 20 OFFCURVE",
"242 20 CURVE SMOOTH",
"169 20 OFFCURVE",
"112 46 OFFCURVE",
"61 102 CURVE",
"42 85 LINE",
"97 20 OFFCURVE",
"157 -20 OFFCURVE",
"257 -20 CURVE SMOOTH"
);
}
);
width = 530;
},
{
layerId = "BAEEE752-CD63-427F-8763-260FDB7B8BAE";
paths = (
{
closed = 1;
nodes = (
"360 -20 OFFCURVE",
"520 22 OFFCURVE",
"520 190 CURVE SMOOTH",
"520 348 OFFCURVE",
"367 390 OFFCURVE",
"262 390 CURVE SMOOTH",
"243 390 OFFCURVE",
"222 388 OFFCURVE",
"205 387 CURVE SMOOTH",
"175 385 LINE",
"184 616 LINE",
"457 616 LINE",
"457 660 LINE",
"68 660 LINE",
"57 360 LINE",
"97 321 LINE",
"124 329 OFFCURVE",
"177 344 OFFCURVE",
"222 344 CURVE SMOOTH",
"322 344 OFFCURVE",
"380 294 OFFCURVE",
"380 190 CURVE SMOOTH",
"380 72 OFFCURVE",
"319 25 OFFCURVE",
"242 25 CURVE SMOOTH",
"185 25 OFFCURVE",
"117 51 OFFCURVE",
"66 114 CURVE",
"37 88 LINE",
"93 21 OFFCURVE",
"155 -20 OFFCURVE",
"265 -20 CURVE SMOOTH"
);
}
);
width = 546;
}
);
unicode = 0035;
},
{
glyphname = six;
lastChange = "2016-03-24 04:14:45 +0000";
layers = (
{
layerId = UUID0;
paths = (
{
closed = 1;
nodes = (
"427 -20 OFFCURVE",
"497 90 OFFCURVE",
"497 205 CURVE SMOOTH",
"497 341 OFFCURVE",
"437 430 OFFCURVE",
"297 430 CURVE SMOOTH",
"226 430 OFFCURVE",
"182 410 OFFCURVE",
"147 385 CURVE",
"147 540 OFFCURVE",
"202 640 OFFCURVE",
"322 640 CURVE SMOOTH",
"373 640 OFFCURVE",
"421 635 OFFCURVE",
"452 630 CURVE",
"457 650 LINE",
"417 665 OFFCURVE",
"367 680 OFFCURVE",
"302 680 CURVE SMOOTH",
"131 680 OFFCURVE",
"52 562 OFFCURVE",
"52 330 CURVE SMOOTH",
"52 99 OFFCURVE",
"122 -20 OFFCURVE",
"282 -20 CURVE SMOOTH"
);
},
{
closed = 1;
nodes = (
"202 20 OFFCURVE",
"147 110 OFFCURVE",
"147 340 CURVE",
"182 371 OFFCURVE",
"216 390 OFFCURVE",
"267 390 CURVE SMOOTH",
"362 390 OFFCURVE",
"402 320 OFFCURVE",
"402 205 CURVE SMOOTH",
"402 110 OFFCURVE",
"358 20 OFFCURVE",
"282 20 CURVE SMOOTH"
);
}
);
width = 537;
},
{
layerId = "BAEEE752-CD63-427F-8763-260FDB7B8BAE";
paths = (
{
closed = 1;
nodes = (
"449 -20 OFFCURVE",
"529 88 OFFCURVE",
"529 205 CURVE SMOOTH",
"529 341 OFFCURVE",
"475 433 OFFCURVE",
"319 433 CURVE SMOOTH",
"260 433 OFFCURVE",
"207 408 OFFCURVE",
"179 385 CURVE",
"179 556 OFFCURVE",
"244 635 OFFCURVE",
"344 635 CURVE SMOOTH",
"376 635 OFFCURVE",
"402 631 OFFCURVE",
"478 618 CURVE",
"484 646 LINE",
"451 661 OFFCURVE",
"385 680 OFFCURVE",
"324 680 CURVE SMOOTH",
"139 680 OFFCURVE",
"44 571 OFFCURVE",
"44 330 CURVE SMOOTH",
"44 98 OFFCURVE",
"127 -20 OFFCURVE",
"294 -20 CURVE SMOOTH"
);
},
{
closed = 1;
nodes = (
"224 25 OFFCURVE",
"179 115 OFFCURVE",
"179 337 CURVE SMOOTH",
"179 340 OFFCURVE",
"228 388 OFFCURVE",
"289 388 CURVE SMOOTH",
"365 388 OFFCURVE",
"394 324 OFFCURVE",
"394 205 CURVE SMOOTH",
"394 107 OFFCURVE",
"359 25 OFFCURVE",
"294 25 CURVE SMOOTH"
);
}
);
width = 560;
}
);
unicode = 0036;
},
{
glyphname = seven;
lastChange = "2016-03-24 05:07:33 +0000";
layers = (
{
layerId = UUID0;
paths = (
{
closed = 1;
nodes = (
"211 0 LINE",
"461 620 LINE",
"461 660 LINE",
"111 660 LINE SMOOTH",
"42 660 OFFCURVE",
"26 620 OFFCURVE",
"26 580 CURVE SMOOTH",
"26 515 LINE",
"46 515 LINE",
"46 586 OFFCURVE",
"91 620 OFFCURVE",
"171 620 CURVE SMOOTH",
"371 620 LINE",
"121 0 LINE"
);
}
);
width = 474;
},
{
layerId = "BAEEE752-CD63-427F-8763-260FDB7B8BAE";
paths = (
{
closed = 1;
nodes = (
"217 0 LINE",
"467 615 LINE",
"467 660 LINE",
"106 660 LINE SMOOTH",
"37 660 OFFCURVE",
"21 620 OFFCURVE",
"21 580 CURVE SMOOTH",
"21 505 LINE",
"51 505 LINE",
"51 576 OFFCURVE",
"96 615 OFFCURVE",
"176 615 CURVE SMOOTH",
"346 615 LINE",
"96 0 LINE"
);
}
);
width = 473;
}
);
unicode = 0037;
},
{
glyphname = eight;
lastChange = "2016-03-24 05:07:36 +0000";
layers = (
{
layerId = UUID0;
paths = (
{
closed = 1;
nodes = (
"401 -20 OFFCURVE",
"507 30 OFFCURVE",
"507 160 CURVE SMOOTH",
"507 262 OFFCURVE",
"432 310 OFFCURVE",
"357 355 CURVE",
"421 387 OFFCURVE",
"482 440 OFFCURVE",
"482 520 CURVE SMOOTH",
"482 640 OFFCURVE",
"387 680 OFFCURVE",
"277 680 CURVE SMOOTH",
"167 680 OFFCURVE",
"72 640 OFFCURVE",
"72 510 CURVE SMOOTH",
"72 421 OFFCURVE",
"137 376 OFFCURVE",
"207 335 CURVE",
"126 300 OFFCURVE",
"47 250 OFFCURVE",
"47 150 CURVE SMOOTH",
"47 30 OFFCURVE",
"153 -20 OFFCURVE",
"277 -20 CURVE SMOOTH"
);
},
{
closed = 1;
nodes = (
"207 20 OFFCURVE",
"142 59 OFFCURVE",
"142 150 CURVE SMOOTH",
"142 246 OFFCURVE",
"193 286 OFFCURVE",
"252 315 CURVE",
"337 270 OFFCURVE",
"412 226 OFFCURVE",
"412 140 CURVE SMOOTH",
"412 60 OFFCURVE",
"346 20 OFFCURVE",
"277 20 CURVE SMOOTH"
);
},
{
closed = 1;
nodes = (
"237 415 OFFCURVE",
"167 465 OFFCURVE",
"167 530 CURVE SMOOTH",
"167 615 OFFCURVE",
"226 640 OFFCURVE",
"277 640 CURVE SMOOTH",
"328 640 OFFCURVE",
"387 615 OFFCURVE",
"387 520 CURVE SMOOTH",
"387 445 OFFCURVE",
"352 409 OFFCURVE",
"312 380 CURVE"
);
}
);
width = 554;
},
{
layerId = "BAEEE752-CD63-427F-8763-260FDB7B8BAE";
paths = (
{
closed = 1;
nodes = (
"428 -20 OFFCURVE",
"539 30 OFFCURVE",
"539 162 CURVE SMOOTH",
"539 261 OFFCURVE",
"462 313 OFFCURVE",
"379 358 CURVE",
"454 390 OFFCURVE",
"514 441 OFFCURVE",
"514 518 CURVE SMOOTH",
"514 641 OFFCURVE",
"413 680 OFFCURVE",
"289 680 CURVE SMOOTH",
"166 680 OFFCURVE",
"64 640 OFFCURVE",
"64 508 CURVE SMOOTH",
"64 422 OFFCURVE",
"128 378 OFFCURVE",
"206 335 CURVE",
"119 298 OFFCURVE",
"39 247 OFFCURVE",
"39 152 CURVE SMOOTH",
"39 29 OFFCURVE",
"153 -20 OFFCURVE",
"289 -20 CURVE SMOOTH"
);
},
{
closed = 1;
nodes = (
"221 25 OFFCURVE",
"174 64 OFFCURVE",
"174 152 CURVE SMOOTH",
"174 243 OFFCURVE",
"208 284 OFFCURVE",
"259 311 CURVE",
"337 270 OFFCURVE",
"404 224 OFFCURVE",
"404 142 CURVE SMOOTH",
"404 65 OFFCURVE",
"357 25 OFFCURVE",
"289 25 CURVE SMOOTH"
);
},
{
closed = 1;
nodes = (
"258 416 OFFCURVE",
"199 466 OFFCURVE",
"199 528 CURVE SMOOTH",
"199 611 OFFCURVE",
"251 635 OFFCURVE",
"289 635 CURVE SMOOTH",
"327 635 OFFCURVE",
"379 610 OFFCURVE",
"379 518 CURVE SMOOTH",
"379 445 OFFCURVE",
"362 411 OFFCURVE",
"327 384 CURVE"
);
}
);
width = 578;
}
);
unicode = 0038;
},
{
glyphname = nine;
lastChange = "2016-03-24 04:15:02 +0000";
layers = (
{
layerId = UUID0;
paths = (
{
closed = 1;
nodes = (
"405 -20 OFFCURVE",
"484 98 OFFCURVE",
"484 330 CURVE SMOOTH",
"484 559 OFFCURVE",
"414 680 OFFCURVE",
"254 680 CURVE SMOOTH",
"109 680 OFFCURVE",
"39 570 OFFCURVE",
"39 455 CURVE SMOOTH",
"39 319 OFFCURVE",
"99 230 OFFCURVE",
"239 230 CURVE SMOOTH",
"310 230 OFFCURVE",
"354 250 OFFCURVE",
"389 275 CURVE",
"389 120 OFFCURVE",
"334 20 OFFCURVE",
"214 20 CURVE SMOOTH",
"163 20 OFFCURVE",
"115 25 OFFCURVE",
"84 30 CURVE",
"79 10 LINE",
"119 -5 OFFCURVE",
"169 -20 OFFCURVE",
"234 -20 CURVE SMOOTH"
);
},
{
closed = 1;
nodes = (
"174 270 OFFCURVE",
"134 340 OFFCURVE",
"134 455 CURVE SMOOTH",
"134 550 OFFCURVE",
"178 640 OFFCURVE",
"254 640 CURVE SMOOTH",
"334 640 OFFCURVE",
"389 550 OFFCURVE",
"389 320 CURVE",
"354 289 OFFCURVE",
"320 270 OFFCURVE",
"269 270 CURVE SMOOTH"
);
}
);
width = 536;
},
{
layerId = "BAEEE752-CD63-427F-8763-260FDB7B8BAE";
paths = (
{
closed = 1;
nodes = (
"421 -20 OFFCURVE",
"516 87 OFFCURVE",
"516 330 CURVE SMOOTH",
"516 562 OFFCURVE",
"433 680 OFFCURVE",
"266 680 CURVE SMOOTH",
"111 680 OFFCURVE",
"31 572 OFFCURVE",
"31 455 CURVE SMOOTH",
"31 319 OFFCURVE",
"85 227 OFFCURVE",
"241 227 CURVE SMOOTH",
"300 227 OFFCURVE",
"353 252 OFFCURVE",
"381 275 CURVE",
"381 104 OFFCURVE",
"316 25 OFFCURVE",
"216 25 CURVE SMOOTH",
"173 25 OFFCURVE",
"163 27 OFFCURVE",
"82 42 CURVE",
"76 14 LINE",
"102 0 OFFCURVE",
"172 -20 OFFCURVE",
"236 -20 CURVE SMOOTH"
);
},
{
closed = 1;
nodes = (
"195 272 OFFCURVE",
"166 336 OFFCURVE",
"166 455 CURVE SMOOTH",
"166 553 OFFCURVE",
"201 635 OFFCURVE",
"266 635 CURVE SMOOTH",
"336 635 OFFCURVE",
"381 545 OFFCURVE",
"381 323 CURVE SMOOTH",
"381 320 OFFCURVE",
"330 272 OFFCURVE",
"271 272 CURVE SMOOTH"
);
}
);
width = 560;
}
);
unicode = 0039;
},
{
glyphname = colon;
lastChange = "2016-03-24 05:07:53 +0000";
layers = (
{
layerId = UUID0;
paths = (
{
closed = 1;
nodes = (
"152 353 OFFCURVE",
"175 376 OFFCURVE",
"175 407 CURVE SMOOTH",
"175 436 OFFCURVE",
"152 461 OFFCURVE",
"121 461 CURVE SMOOTH",
"92 461 OFFCURVE",
"67 436 OFFCURVE",
"67 407 CURVE SMOOTH",
"67 376 OFFCURVE",
"92 353 OFFCURVE",
"121 353 CURVE SMOOTH"
);
},
{
closed = 1;
nodes = (
"151 -14 OFFCURVE",
"175 10 OFFCURVE",
"175 41 CURVE SMOOTH",
"175 70 OFFCURVE",
"151 95 OFFCURVE",
"120 95 CURVE SMOOTH",
"91 95 OFFCURVE",
"66 70 OFFCURVE",
"66 41 CURVE SMOOTH",
"66 10 OFFCURVE",
"91 -14 OFFCURVE",
"120 -14 CURVE SMOOTH"
);
}
);
width = 241;
},
{
layerId = "BAEEE752-CD63-427F-8763-260FDB7B8BAE";
paths = (
{
closed = 1;
nodes = (
"158 339 OFFCURVE",
"180 364 OFFCURVE",
"180 400 CURVE SMOOTH",
"180 436 OFFCURVE",
"158 461 OFFCURVE",
"119 461 CURVE SMOOTH",
"80 461 OFFCURVE",
"58 436 OFFCURVE",
"58 400 CURVE SMOOTH",
"58 364 OFFCURVE",
"80 339 OFFCURVE",
"119 339 CURVE SMOOTH"
);
},
{
closed = 1;
nodes = (
"158 -14 OFFCURVE",
"180 11 OFFCURVE",
"180 47 CURVE SMOOTH",
"180 83 OFFCURVE",
"158 108 OFFCURVE",
"119 108 CURVE SMOOTH",
"80 108 OFFCURVE",
"58 83 OFFCURVE",
"58 47 CURVE SMOOTH",
"58 11 OFFCURVE",
"80 -14 OFFCURVE",
"119 -14 CURVE SMOOTH"
);
}
);
width = 238;
}
);
unicode = 003A;
},
{
glyphname = less;
lastChange = "2016-03-24 05:07:56 +0000";
layers = (
{
layerId = UUID0;
paths = (
{
closed = 1;
nodes = (
"550 155 LINE",
"133 335 LINE",
"550 515 LINE",
"550 575 LINE",
"30 350 LINE",
"30 320 LINE",
"550 95 LINE"
);
}
);
width = 618;
},
{
layerId = "BAEEE752-CD63-427F-8763-260FDB7B8BAE";
paths = (
{
closed = 1;
nodes = (
"549 165 LINE",
"157 335 LINE",
"549 505 LINE",
"549 596 LINE",
"29 370 LINE",
"29 300 LINE",
"549 74 LINE"
);
}
);
width = 610;
}
);
unicode = 003C;
},
{
glyphname = equal;
lastChange = "2016-03-24 05:07:59 +0000";
layers = (
{
layerId = UUID0;
paths = (
{
closed = 1;
nodes = (
"591 390 LINE",
"591 450 LINE",
"66 450 LINE",
"66 390 LINE"
);
},
{
closed = 1;
nodes = (
"591 210 LINE",
"591 270 LINE",
"66 270 LINE",
"66 210 LINE"
);
}
);
width = 657;
},
{
layerId = "BAEEE752-CD63-427F-8763-260FDB7B8BAE";
paths = (
{
closed = 1;
nodes = (
"607 385 LINE",
"607 455 LINE",
"58 455 LINE",
"58 385 LINE"
);
},
{
closed = 1;
nodes = (
"607 205 LINE",
"607 275 LINE",
"58 275 LINE",
"58 205 LINE"
);
}
);
width = 665;
}
);
unicode = 003D;
},
{
glyphname = greater;
lastChange = "2016-03-24 05:08:01 +0000";
layers = (
{
layerId = UUID0;
paths = (
{
closed = 1;
nodes = (
"588 320 LINE",
"588 350 LINE",
"68 575 LINE",
"68 515 LINE",
"485 335 LINE",
"68 155 LINE",
"68 95 LINE"
);
}
);
width = 618;
},
{
layerId = "BAEEE752-CD63-427F-8763-260FDB7B8BAE";
paths = (
{
closed = 1;
nodes = (
"581 300 LINE",
"581 370 LINE",
"61 596 LINE",
"61 505 LINE",
"453 335 LINE",
"61 165 LINE",
"61 74 LINE"
);
}
);
width = 610;
}
);
unicode = 003E;
},
{
glyphname = question;
lastChange = "2016-03-24 04:20:53 +0000";
layers = (
{
layerId = UUID0;
paths = (
{
closed = 1;
nodes = (
"246 156 LINE",
"250 288 OFFCURVE",
"446 322 OFFCURVE",
"446 490 CURVE SMOOTH",
"446 650 OFFCURVE",
"326 680 OFFCURVE",
"246 680 CURVE SMOOTH",
"166 680 OFFCURVE",
"91 644 OFFCURVE",
"55 600 CURVE SMOOTH",
"30 569 OFFCURVE",
"30 521 OFFCURVE",
"30 470 CURVE",
"50 470 LINE",
"70 581 OFFCURVE",
"136 640 OFFCURVE",
"216 640 CURVE SMOOTH",
"285 640 OFFCURVE",
"346 590 OFFCURVE",
"346 490 CURVE SMOOTH",
"346 340 OFFCURVE",
"210 321 OFFCURVE",
"206 156 CURVE"
);
},
{
closed = 1;
nodes = (
"255 -13 OFFCURVE",
"281 12 OFFCURVE",
"281 41 CURVE SMOOTH",
"281 72 OFFCURVE",
"257 96 OFFCURVE",
"226 96 CURVE SMOOTH",
"195 96 OFFCURVE",
"172 72 OFFCURVE",
"172 41 CURVE SMOOTH",
"172 12 OFFCURVE",
"195 -13 OFFCURVE",
"226 -13 CURVE SMOOTH"
);
}
);
width = 478;
},
{
layerId = "BAEEE752-CD63-427F-8763-260FDB7B8BAE";
paths = (
{
closed = 1;
nodes = (
"270 156 LINE",
"282 298 OFFCURVE",
"469 320 OFFCURVE",
"469 487 CURVE SMOOTH",
"469 610 OFFCURVE",
"377 680 OFFCURVE",
"255 680 CURVE SMOOTH",
"172 680 OFFCURVE",
"92 641 OFFCURVE",
"55 599 CURVE",
"28 564 OFFCURVE",
"29 506 OFFCURVE",
"29 447 CURVE",
"59 447 LINE",
"84 582 OFFCURVE",
"146 635 OFFCURVE",
"225 635 CURVE SMOOTH",
"285 635 OFFCURVE",
"329 600 OFFCURVE",
"329 487 CURVE SMOOTH",
"329 338 OFFCURVE",
"210 304 OFFCURVE",
"202 156 CURVE"
);
},
{
closed = 1;
nodes = (
"275 -14 OFFCURVE",
"297 11 OFFCURVE",
"297 47 CURVE SMOOTH",
"297 83 OFFCURVE",
"275 108 OFFCURVE",
"236 108 CURVE SMOOTH",
"197 108 OFFCURVE",
"175 83 OFFCURVE",
"175 47 CURVE SMOOTH",
"175 11 OFFCURVE",
"197 -14 OFFCURVE",
"236 -14 CURVE SMOOTH"
);
}
);
width = 498;
}
);
unicode = 003F;
},
{
glyphname = at;
lastChange = "2016-03-24 04:16:19 +0000";
layers = (
{
layerId = UUID0;
paths = (
{
closed = 1;
nodes = (
"575 -180 OFFCURVE",
"680 -141 OFFCURVE",
"760 -85 CURVE",
"740 -55 LINE",
"660 -111 OFFCURVE",
"561 -140 OFFCURVE",
"430 -140 CURVE SMOOTH",
"219 -140 OFFCURVE",
"80 -10 OFFCURVE",
"80 250 CURVE SMOOTH",
"80 510 OFFCURVE",
"219 640 OFFCURVE",
"430 640 CURVE SMOOTH",
"641 640 OFFCURVE",
"780 510 OFFCURVE",
"780 270 CURVE SMOOTH",
"780 130 OFFCURVE",
"720 45 OFFCURVE",
"655 45 CURVE SMOOTH",
"620 45 OFFCURVE",
"605 74 OFFCURVE",
"605 105 CURVE SMOOTH",
"605 285 LINE SMOOTH",
"605 465 OFFCURVE",
"521 495 OFFCURVE",
"430 495 CURVE SMOOTH",
"370 495 OFFCURVE",
"305 485 OFFCURVE",
"280 460 CURVE SMOOTH",
"255 435 OFFCURVE",
"255 405 OFFCURVE",
"255 370 CURVE",
"300 370 LINE",
"315 435 OFFCURVE",
"354 455 OFFCURVE",
"410 455 CURVE SMOOTH",
"470 455 OFFCURVE",
"515 425 OFFCURVE",
"515 285 CURVE",
"485 285 LINE SMOOTH",
"350 285 OFFCURVE",
"230 254 OFFCURVE",
"230 145 CURVE SMOOTH",
"230 36 OFFCURVE",
"320 5 OFFCURVE",
"375 5 CURVE SMOOTH",
"451 5 OFFCURVE",
"495 35 OFFCURVE",
"515 60 CURVE",
"520 60 LINE",
"535 25 OFFCURVE",
"569 5 OFFCURVE",
"625 5 CURVE SMOOTH",
"760 5 OFFCURVE",
"820 110 OFFCURVE",
"820 270 CURVE SMOOTH",
"820 530 OFFCURVE",
"660 680 OFFCURVE",
"430 680 CURVE SMOOTH",
"200 680 OFFCURVE",
"40 530 OFFCURVE",
"40 250 CURVE SMOOTH",
"40 -30 OFFCURVE",
"200 -180 OFFCURVE",
"430 -180 CURVE SMOOTH"
);
},
{
closed = 1;
nodes = (
"370 50 OFFCURVE",
"325 80 OFFCURVE",
"325 145 CURVE SMOOTH",
"325 205 OFFCURVE",
"385 245 OFFCURVE",
"485 245 CURVE SMOOTH",
"515 245 LINE",
"515 110 LINE",
"495 79 OFFCURVE",
"469 50 OFFCURVE",
"420 50 CURVE SMOOTH"
);
}
);
width = 856;
},
{
layerId = "BAEEE752-CD63-427F-8763-260FDB7B8BAE";
paths = (
{
closed = 1;
nodes = (
"591 -180 OFFCURVE",
"699 -139 OFFCURVE",
"783 -80 CURVE",
"757 -40 LINE",
"669 -101 OFFCURVE",
"567 -135 OFFCURVE",
"440 -135 CURVE SMOOTH",
"239 -135 OFFCURVE",
"104 -8 OFFCURVE",
"104 250 CURVE SMOOTH",
"104 508 OFFCURVE",
"239 635 OFFCURVE",
"440 635 CURVE SMOOTH",
"641 635 OFFCURVE",
"776 508 OFFCURVE",
"776 270 CURVE SMOOTH",
"776 100 OFFCURVE",
"737 51 OFFCURVE",
"675 51 CURVE SMOOTH",
"647 51 OFFCURVE",
"635 73 OFFCURVE",
"635 102 CURVE SMOOTH",
"635 285 LINE SMOOTH",
"635 426 OFFCURVE",
"562 495 OFFCURVE",
"434 495 CURVE SMOOTH",
"374 495 OFFCURVE",
"315 485 OFFCURVE",
"295 465 CURVE SMOOTH",
"271 441 OFFCURVE",
"259 406 OFFCURVE",
"259 360 CURVE",
"314 360 LINE",
"329 425 OFFCURVE",
"369 450 OFFCURVE",
"414 450 CURVE SMOOTH",
"469 450 OFFCURVE",
"505 419 OFFCURVE",
"505 288 CURVE",
"490 288 LINE SMOOTH",
"275 288 OFFCURVE",
"220 230 OFFCURVE",
"220 140 CURVE SMOOTH",
"220 60 OFFCURVE",
"279 5 OFFCURVE",
"390 5 CURVE SMOOTH",
"449 5 OFFCURVE",
"486 30 OFFCURVE",
"505 60 CURVE",
"510 60 LINE",
"534 7 OFFCURVE",
"601 5 OFFCURVE",
"635 5 CURVE SMOOTH",
"780 5 OFFCURVE",
"846 95 OFFCURVE",
"846 270 CURVE SMOOTH",
"846 532 OFFCURVE",
"679 680 OFFCURVE",
"440 680 CURVE SMOOTH",
"201 680 OFFCURVE",
"34 533 OFFCURVE",
"34 250 CURVE SMOOTH",
"34 -33 OFFCURVE",
"201 -180 OFFCURVE",
"440 -180 CURVE SMOOTH"
);
},
{
closed = 1;
nodes = (
"373 55 OFFCURVE",
"350 83 OFFCURVE",
"350 140 CURVE SMOOTH",
"350 210 OFFCURVE",
"381 242 OFFCURVE",
"490 242 CURVE SMOOTH",
"505 242 LINE",
"505 120 LINE",
"494 92 OFFCURVE",
"464 55 OFFCURVE",
"420 55 CURVE SMOOTH"
);
}
);
width = 877;
}
);
unicode = 0040;
},
{
glyphname = A;
lastChange = "2016-03-24 04:21:53 +0000";
layers = (
{
layerId = UUID0;
paths = (
{
closed = 1;
nodes = (
"637 -5 OFFCURVE",
"651 -3 OFFCURVE",
"662 0 CURVE",
"662 20 LINE",
"606 25 OFFCURVE",
"584 50 OFFCURVE",
"552 125 CURVE",
"332 660 LINE",
"302 660 LINE",
"22 0 LINE",
"67 0 LINE",
"147 190 LINE",
"427 190 LINE",
"452 125 LINE SMOOTH",
"495 9 OFFCURVE",
"577 -5 OFFCURVE",
"622 -5 CURVE SMOOTH"
);
},
{
closed = 1;
nodes = (
"287 520 LINE",
"407 230 LINE",
"162 230 LINE"
);
}
);
width = 635;
},
{
layerId = "BAEEE752-CD63-427F-8763-260FDB7B8BAE";
paths = (
{
closed = 1;
nodes = (
"643 -4 OFFCURVE",
"665 -2 OFFCURVE",
"676 1 CURVE",
"676 26 LINE",
"631 31 OFFCURVE",
"596 67 OFFCURVE",
"572 126 CURVE SMOOTH",
"348 660 LINE",
"303 660 LINE",
"8 0 LINE",
"60 0 LINE",
"142 182 LINE",
"408 182 LINE",
"431 126 LINE SMOOTH",
"479 12 OFFCURVE",
"562 -4 OFFCURVE",
"628 -4 CURVE SMOOTH"
);
},
{
closed = 1;
nodes = (
"279 488 LINE",
"389 227 LINE",
"163 227 LINE"
);
}
);
width = 647;
}
);
leftKerningGroup = A;
rightKerningGroup = A;
unicode = 0041;
},
{
glyphname = B;
lastChange = "2016-03-24 04:22:14 +0000";
layers = (
{
layerId = UUID0;
paths = (
{
closed = 1;
nodes = (
"306 0 LINE SMOOTH",
"431 0 OFFCURVE",
"581 30 OFFCURVE",
"581 180 CURVE SMOOTH",
"581 261 OFFCURVE",
"546 319 OFFCURVE",
"416 340 CURVE",
"507 371 OFFCURVE",
"546 425 OFFCURVE",
"546 485 CURVE SMOOTH",
"546 640 OFFCURVE",
"381 660 OFFCURVE",
"276 660 CURVE SMOOTH",
"16 660 LINE",
"16 640 LINE",
"36 640 LINE SMOOTH",
"96 640 OFFCURVE",
"106 600 OFFCURVE",
"106 540 CURVE SMOOTH",
"106 0 LINE"
);
},
{
closed = 1;
nodes = (
"260 35 OFFCURVE",
"227 40 OFFCURVE",
"196 49 CURVE",
"196 315 LINE",
"291 315 LINE SMOOTH",
"416 315 OFFCURVE",
"481 266 OFFCURVE",
"481 175 CURVE SMOOTH",
"481 84 OFFCURVE",
"412 35 OFFCURVE",
"291 35 CURVE SMOOTH"
);
},
{
closed = 1;
nodes = (
"196 615 LINE",
"216 620 OFFCURVE",
"246 625 OFFCURVE",
"271 625 CURVE SMOOTH",
"351 625 OFFCURVE",
"451 586 OFFCURVE",
"451 490 CURVE SMOOTH",
"451 400 OFFCURVE",
"370 355 OFFCURVE",
"291 355 CURVE SMOOTH",
"196 355 LINE"
);
}
);
width = 622;
},
{
layerId = "BAEEE752-CD63-427F-8763-260FDB7B8BAE";
paths = (
{
closed = 1;
nodes = (
"315 0 LINE SMOOTH",
"457 0 OFFCURVE",
"610 30 OFFCURVE",
"610 183 CURVE SMOOTH",
"610 260 OFFCURVE",
"572 328 OFFCURVE",
"441 341 CURVE",
"534 365 OFFCURVE",
"580 428 OFFCURVE",
"580 485 CURVE SMOOTH",
"580 643 OFFCURVE",
"410 660 OFFCURVE",
"285 660 CURVE SMOOTH",
"15 660 LINE",
"15 630 LINE",
"25 630 LINE SMOOTH",
"85 630 OFFCURVE",
"95 590 OFFCURVE",
"95 530 CURVE SMOOTH",
"95 0 LINE"
);
},
{
closed = 1;
nodes = (
"268 40 OFFCURVE",
"239 46 OFFCURVE",
"225 50 CURVE",
"225 316 LINE",
"300 316 LINE SMOOTH",
"413 316 OFFCURVE",
"470 270 OFFCURVE",
"470 178 CURVE SMOOTH",
"470 90 OFFCURVE",
"411 40 OFFCURVE",
"300 40 CURVE SMOOTH"
);
},
{
closed = 1;
nodes = (
"225 613 LINE",
"254 619 OFFCURVE",
"270 620 OFFCURVE",
"285 620 CURVE SMOOTH",
"362 620 OFFCURVE",
"440 589 OFFCURVE",
"440 490 CURVE SMOOTH",
"440 395 OFFCURVE",
"381 361 OFFCURVE",
"300 361 CURVE SMOOTH",
"225 361 LINE"
);
}
);
width = 644;
}
);
leftKerningGroup = B;
unicode = 0042;
},
{
glyphname = C;
lastChange = "2016-03-24 04:21:57 +0000";
layers = (
{
layerId = UUID0;
paths = (
{
closed = 1;
nodes = (
"473 -20 OFFCURVE",
"565 20 OFFCURVE",
"629 145 CURVE",
"609 160 LINE",
"553 69 OFFCURVE",
"484 20 OFFCURVE",
"384 20 CURVE SMOOTH",
"213 20 OFFCURVE",
"144 171 OFFCURVE",
"144 320 CURVE SMOOTH",
"144 559 OFFCURVE",
"253 640 OFFCURVE",
"384 640 CURVE SMOOTH",
"495 640 OFFCURVE",
"564 581 OFFCURVE",
"589 450 CURVE",
"609 450 LINE",
"609 510 OFFCURVE",
"609 569 OFFCURVE",
"584 600 CURVE SMOOTH",
"548 644 OFFCURVE",
"465 680 OFFCURVE",
"354 680 CURVE SMOOTH",
"183 680 OFFCURVE",
"44 520 OFFCURVE",
"44 320 CURVE SMOOTH",
"44 131 OFFCURVE",
"164 -20 OFFCURVE",
"354 -20 CURVE SMOOTH"
);
}
);
width = 665;
},
{
layerId = "BAEEE752-CD63-427F-8763-260FDB7B8BAE";
paths = (
{
closed = 1;
nodes = (
"507 -20 OFFCURVE",
"592 30 OFFCURVE",
"655 141 CURVE",
"620 168 LINE",
"572 75 OFFCURVE",
"489 25 OFFCURVE",
"397 25 CURVE SMOOTH",
"238 25 OFFCURVE",
"177 167 OFFCURVE",
"177 320 CURVE SMOOTH",
"177 563 OFFCURVE",
"274 635 OFFCURVE",
"397 635 CURVE SMOOTH",
"508 635 OFFCURVE",
"575 568 OFFCURVE",
"600 447 CURVE",
"630 447 LINE",
"630 506 OFFCURVE",
"631 564 OFFCURVE",
"604 599 CURVE",
"567 642 OFFCURVE",
"492 680 OFFCURVE",
"367 680 CURVE SMOOTH",
"178 680 OFFCURVE",
"37 522 OFFCURVE",
"37 320 CURVE SMOOTH",
"37 128 OFFCURVE",
"156 -20 OFFCURVE",
"367 -20 CURVE SMOOTH"
);
}
);
width = 679;
}
);
leftKerningGroup = C;
rightKerningGroup = C;
unicode = 0043;
},
{
glyphname = D;
lastChange = "2016-03-24 04:22:30 +0000";
layers = (
{
layerId = UUID0;
paths = (
{
closed = 1;
nodes = (
"304 0 LINE SMOOTH",
"546 0 OFFCURVE",
"671 139 OFFCURVE",
"671 334 CURVE SMOOTH",
"671 534 OFFCURVE",
"542 660 OFFCURVE",
"278 660 CURVE SMOOTH",
"16 660 LINE",
"16 640 LINE",
"36 640 LINE SMOOTH",
"96 640 OFFCURVE",
"106 600 OFFCURVE",
"106 540 CURVE SMOOTH",
"106 0 LINE"
);
},
{
closed = 1;
nodes = (
"272 35 OFFCURVE",
"238 39 OFFCURVE",
"199 48 CURVE",
"199 609 LINE",
"235 620 OFFCURVE",
"270 625 OFFCURVE",
"299 625 CURVE SMOOTH",
"452 625 OFFCURVE",
"562 507 OFFCURVE",
"562 330 CURVE SMOOTH",
"562 149 OFFCURVE",
"449 35 OFFCURVE",
"301 35 CURVE SMOOTH"
);
}
);
width = 715;
},
{
layerId = "BAEEE752-CD63-427F-8763-260FDB7B8BAE";
paths = (
{
closed = 1;
nodes = (
"313 0 LINE SMOOTH",
"565 0 OFFCURVE",
"700 137 OFFCURVE",
"700 334 CURVE SMOOTH",
"700 537 OFFCURVE",
"561 660 OFFCURVE",
"287 660 CURVE SMOOTH",
"15 660 LINE",
"15 630 LINE",
"25 630 LINE SMOOTH",
"85 630 OFFCURVE",
"95 590 OFFCURVE",
"95 530 CURVE SMOOTH",
"95 0 LINE"
);
},
{
closed = 1;
nodes = (
"278 40 OFFCURVE",
"268 39 OFFCURVE",
"225 47 CURVE",
"225 613 LINE",
"264 619 OFFCURVE",
"279 620 OFFCURVE",
"308 620 CURVE SMOOTH",
"452 620 OFFCURVE",
"550 506 OFFCURVE",
"550 330 CURVE SMOOTH",
"550 150 OFFCURVE",
"449 40 OFFCURVE",
"310 40 CURVE SMOOTH"
);
}
);
width = 736;
}
);
leftKerningGroup = B;
rightKerningGroup = D;
unicode = 0044;
},
{
glyphname = E;
lastChange = "2016-03-24 04:22:19 +0000";
layers = (
{
layerId = UUID0;
paths = (
{
closed = 1;
nodes = (
"451 0 LINE SMOOTH",
"491 0 OFFCURVE",
"515 19 OFFCURVE",
"526 50 CURVE SMOOTH",
"561 145 LINE",
"541 150 LINE",
"510 70 OFFCURVE",
"462 40 OFFCURVE",
"371 40 CURVE SMOOTH",
"196 40 LINE",
"196 320 LINE",
"466 320 LINE",
"466 360 LINE",
"196 360 LINE",
"196 620 LINE",
"382 620 LINE SMOOTH",
"462 620 OFFCURVE",
"507 585 OFFCURVE",
"507 505 CURVE",
"527 505 LINE",
"527 580 LINE SMOOTH",
"527 620 OFFCURVE",
"511 660 OFFCURVE",
"442 660 CURVE SMOOTH",
"16 660 LINE",
"16 640 LINE",
"36 640 LINE SMOOTH",
"96 640 OFFCURVE",
"106 600 OFFCURVE",
"106 540 CURVE SMOOTH",
"106 0 LINE"
);
}
);
width = 590;
},
{
layerId = "BAEEE752-CD63-427F-8763-260FDB7B8BAE";
paths = (
{
closed = 1;
nodes = (
"465 0 LINE SMOOTH",
"520 0 OFFCURVE",
"537 27 OFFCURVE",
"552 70 CURVE SMOOTH",
"581 149 LINE",
"554 159 LINE",
"519 72 OFFCURVE",
"469 45 OFFCURVE",
"396 45 CURVE SMOOTH",
"225 45 LINE",
"225 320 LINE",
"485 320 LINE",
"485 365 LINE",
"225 365 LINE",
"225 615 LINE",
"386 615 LINE SMOOTH",
"466 615 OFFCURVE",
"511 580 OFFCURVE",
"511 495 CURVE",
"541 495 LINE",
"541 580 LINE SMOOTH",
"541 620 OFFCURVE",
"525 660 OFFCURVE",
"456 660 CURVE SMOOTH",
"15 660 LINE",
"15 630 LINE",
"25 630 LINE SMOOTH",
"85 630 OFFCURVE",
"95 590 OFFCURVE",
"95 530 CURVE SMOOTH",
"95 0 LINE"
);
}
);
width = 600;
}
);
leftKerningGroup = B;
rightKerningGroup = E;
unicode = 0045;
},
{
glyphname = F;
lastChange = "2016-03-24 04:22:19 +0000";
layers = (
{
layerId = UUID0;
paths = (
{
closed = 1;
nodes = (
"196 0 LINE",
"196 315 LINE",
"422 315 LINE",
"422 355 LINE",
"196 355 LINE",
"196 620 LINE",
"355 620 LINE SMOOTH",
"435 620 OFFCURVE",
"480 585 OFFCURVE",
"480 505 CURVE",
"500 505 LINE",
"500 580 LINE SMOOTH",
"500 620 OFFCURVE",
"484 660 OFFCURVE",
"415 660 CURVE SMOOTH",
"16 660 LINE",
"16 640 LINE",
"36 640 LINE SMOOTH",
"96 640 OFFCURVE",
"106 600 OFFCURVE",
"106 540 CURVE SMOOTH",
"106 0 LINE"
);
}
);
width = 527;
},
{
layerId = "BAEEE752-CD63-427F-8763-260FDB7B8BAE";
paths = (
{
closed = 1;
nodes = (
"225 0 LINE",
"225 315 LINE",
"445 315 LINE",
"445 360 LINE",
"225 360 LINE",
"225 615 LINE",
"364 615 LINE SMOOTH",
"444 615 OFFCURVE",
"489 582 OFFCURVE",
"489 495 CURVE",
"519 495 LINE",
"519 580 LINE SMOOTH",
"519 620 OFFCURVE",
"503 660 OFFCURVE",
"434 660 CURVE SMOOTH",
"15 660 LINE",
"15 630 LINE",
"25 630 LINE SMOOTH",
"85 630 OFFCURVE",
"95 590 OFFCURVE",
"95 530 CURVE SMOOTH",
"95 0 LINE"
);
}
);
width = 539;
}
);
leftKerningGroup = B;
unicode = 0046;
},
{
glyphname = G;
lastChange = "2016-03-24 04:22:19 +0000";
layers = (
{
layerId = UUID0;
paths = (
{
closed = 1;
nodes = (
"481 -20 OFFCURVE",
"557 -1 OFFCURVE",
"629 43 CURVE",
"629 231 LINE SMOOTH",
"629 290 OFFCURVE",
"639 326 OFFCURVE",
"704 326 CURVE",
"704 346 LINE",
"554 346 OFFCURVE",
"539 284 OFFCURVE",
"539 229 CURVE SMOOTH",
"539 55 LINE",
"500 34 OFFCURVE",
"456 20 OFFCURVE",
"384 20 CURVE SMOOTH",
"253 20 OFFCURVE",
"144 99 OFFCURVE",
"144 340 CURVE SMOOTH",
"144 489 OFFCURVE",
"213 640 OFFCURVE",
"384 640 CURVE SMOOTH",
"505 640 OFFCURVE",
"574 581 OFFCURVE",
"599 465 CURVE",
"619 465 LINE",
"619 510 OFFCURVE",
"619 569 OFFCURVE",
"594 600 CURVE SMOOTH",
"558 644 OFFCURVE",
"475 680 OFFCURVE",
"354 680 CURVE SMOOTH",
"164 680 OFFCURVE",
"44 529 OFFCURVE",
"44 340 CURVE SMOOTH",
"44 140 OFFCURVE",
"184 -20 OFFCURVE",
"384 -20 CURVE SMOOTH"
);
}
);
width = 720;
},
{
layerId = "BAEEE752-CD63-427F-8763-260FDB7B8BAE";
paths = (
{
closed = 1;
nodes = (
"498 -20 OFFCURVE",
"583 0 OFFCURVE",
"660 47 CURVE",
"660 226 LINE SMOOTH",
"660 286 OFFCURVE",
"679 321 OFFCURVE",
"724 321 CURVE",
"724 346 LINE",
"554 346 OFFCURVE",
"530 279 OFFCURVE",
"530 224 CURVE SMOOTH",
"530 46 LINE",
"495 30 OFFCURVE",
"455 20 OFFCURVE",
"395 20 CURVE SMOOTH",
"272 20 OFFCURVE",
"175 97 OFFCURVE",
"175 340 CURVE SMOOTH",
"175 493 OFFCURVE",
"236 635 OFFCURVE",
"395 635 CURVE SMOOTH",
"511 635 OFFCURVE",
"578 583 OFFCURVE",
"603 460 CURVE",
"633 460 LINE",
"633 505 OFFCURVE",
"633 565 OFFCURVE",
"607 599 CURVE",
"570 642 OFFCURVE",
"490 680 OFFCURVE",
"365 680 CURVE SMOOTH",
"166 680 OFFCURVE",
"35 532 OFFCURVE",
"35 340 CURVE SMOOTH",
"35 138 OFFCURVE",
"187 -20 OFFCURVE",
"395 -20 CURVE SMOOTH"
);
}
);
width = 734;
}
);
leftKerningGroup = C;
rightKerningGroup = G;
unicode = 0047;
},
{
glyphname = H;
lastChange = "2016-03-24 04:22:19 +0000";
layers = (
{
layerId = UUID0;
paths = (
{
closed = 1;
nodes = (
"196 0 LINE",
"196 320 LINE",
"496 320 LINE",
"496 120 LINE SMOOTH",
"496 20 OFFCURVE",
"516 0 OFFCURVE",
"586 0 CURVE SMOOTH",
"676 0 LINE",
"676 20 LINE",
"656 20 LINE SMOOTH",
"596 20 OFFCURVE",
"586 60 OFFCURVE",
"586 120 CURVE SMOOTH",
"586 660 LINE",
"496 660 LINE",
"496 360 LINE",
"196 360 LINE",
"196 540 LINE SMOOTH",
"196 640 OFFCURVE",
"176 660 OFFCURVE",
"106 660 CURVE SMOOTH",
"16 660 LINE",
"16 640 LINE",
"36 640 LINE SMOOTH",
"96 640 OFFCURVE",
"106 600 OFFCURVE",
"106 540 CURVE SMOOTH",
"106 0 LINE"
);
}
);
width = 693;
},
{
layerId = "BAEEE752-CD63-427F-8763-260FDB7B8BAE";
paths = (
{
closed = 1;
nodes = (
"225 0 LINE",
"225 320 LINE",
"495 320 LINE",
"495 130 LINE SMOOTH",
"495 29 OFFCURVE",
"515 0 OFFCURVE",
"585 0 CURVE SMOOTH",
"705 0 LINE",
"705 30 LINE",
"695 30 LINE SMOOTH",
"635 30 OFFCURVE",
"625 70 OFFCURVE",
"625 130 CURVE SMOOTH",
"625 660 LINE",
"495 660 LINE",
"495 365 LINE",
"225 365 LINE",
"225 530 LINE SMOOTH",
"225 629 OFFCURVE",
"205 660 OFFCURVE",
"135 660 CURVE SMOOTH",
"15 660 LINE",
"15 630 LINE",
"25 630 LINE SMOOTH",
"85 630 OFFCURVE",
"95 590 OFFCURVE",
"95 530 CURVE SMOOTH",
"95 0 LINE"
);
}
);
width = 720;
}
);
leftKerningGroup = B;
rightKerningGroup = H;
unicode = 0048;
},
{
glyphname = I;
lastChange = "2016-03-24 05:08:03 +0000";
layers = (
{
layerId = UUID0;
paths = (
{
closed = 1;
nodes = (
"269 0 LINE",
"269 20 LINE",
"249 20 LINE SMOOTH",
"189 20 OFFCURVE",
"179 60 OFFCURVE",
"179 120 CURVE SMOOTH",
"179 660 LINE",
"89 660 LINE",
"89 120 LINE SMOOTH",
"89 20 OFFCURVE",
"109 0 OFFCURVE",
"179 0 CURVE SMOOTH"
);
}
);
width = 285;
},
{
layerId = "BAEEE752-CD63-427F-8763-260FDB7B8BAE";
paths = (
{
closed = 1;
nodes = (
"289 0 LINE",
"289 30 LINE",
"279 30 LINE SMOOTH",
"219 30 OFFCURVE",
"209 70 OFFCURVE",
"209 130 CURVE SMOOTH",
"209 660 LINE",
"79 660 LINE",
"79 130 LINE SMOOTH",
"79 29 OFFCURVE",
"99 0 OFFCURVE",
"169 0 CURVE SMOOTH"
);
}
);
width = 304;
}
);
leftKerningGroup = I;
rightKerningGroup = H;
unicode = 0049;
},
{
glyphname = J;
lastChange = "2016-03-24 04:22:40 +0000";
layers = (
{
layerId = UUID0;
paths = (
{
closed = 1;
nodes = (
"136 -137 OFFCURVE",
"176 -72 OFFCURVE",
"176 78 CURVE SMOOTH",
"176 660 LINE",
"86 660 LINE",
"86 78 LINE SMOOTH",
"86 -43 OFFCURVE",
"56 -117 OFFCURVE",
"-9 -117 CURVE",
"-9 -137 LINE"
);
}
);
width = 261;
},
{
layerId = "BAEEE752-CD63-427F-8763-260FDB7B8BAE";
paths = (
{
closed = 1;
nodes = (
"161 -137 OFFCURVE",
"204 -89 OFFCURVE",
"204 83 CURVE SMOOTH",
"204 660 LINE",
"74 660 LINE",
"74 83 LINE SMOOTH",
"74 -59 OFFCURVE",
"41 -99 OFFCURVE",
"-19 -107 CURVE",
"-19 -137 LINE"
);
}
);
width = 278;
}
);
unicode = 004A;
},
{
glyphname = K;
lastChange = "2016-03-24 04:22:40 +0000";
layers = (
{
layerId = UUID0;
paths = (
{
closed = 1;
nodes = (
"652 -10 OFFCURVE",
"671 -5 OFFCURVE",
"686 0 CURVE",
"686 19 LINE",
"635 26 OFFCURVE",
"571 73 OFFCURVE",
"516 130 CURVE SMOOTH",
"286 370 LINE",
"481 565 LINE SMOOTH",
"536 620 OFFCURVE",
"571 635 OFFCURVE",
"626 635 CURVE",
"626 660 LINE",
"576 660 LINE SMOOTH",
"496 660 OFFCURVE",
"456 605 OFFCURVE",
"406 555 CURVE SMOOTH",
"196 345 LINE",
"196 540 LINE SMOOTH",
"196 640 OFFCURVE",
"176 660 OFFCURVE",
"106 660 CURVE SMOOTH",
"16 660 LINE",
"16 640 LINE",
"36 640 LINE SMOOTH",
"96 640 OFFCURVE",
"106 600 OFFCURVE",
"106 540 CURVE SMOOTH",
"106 0 LINE",
"196 0 LINE",
"196 330 LINE",
"406 110 LINE SMOOTH",
"501 10 OFFCURVE",
"566 -10 OFFCURVE",
"621 -10 CURVE SMOOTH"
);
}
);
width = 677;
},
{
layerId = "BAEEE752-CD63-427F-8763-260FDB7B8BAE";
paths = (
{
closed = 1;
nodes = (
"662 -10 OFFCURVE",
"689 -5 OFFCURVE",
"704 0 CURVE",
"704 24 LINE",
"665 29 OFFCURVE",
"595 75 OFFCURVE",
"545 130 CURVE SMOOTH",
"314 370 LINE",
"463 554 LINE SMOOTH",
"508 610 OFFCURVE",
"570 625 OFFCURVE",
"646 625 CURVE",
"646 660 LINE",
"576 660 LINE SMOOTH",
"497 660 OFFCURVE",
"442 611 OFFCURVE",
"399 555 CURVE SMOOTH",
"226 340 LINE",
"226 530 LINE SMOOTH",
"226 629 OFFCURVE",
"204 660 OFFCURVE",
"135 660 CURVE SMOOTH",
"15 660 LINE",
"15 630 LINE",
"25 630 LINE SMOOTH",
"85 630 OFFCURVE",
"95 590 OFFCURVE",
"95 530 CURVE SMOOTH",
"96 0 LINE",
"226 0 LINE",
"226 278 LINE",
"387 110 LINE SMOOTH",
"482 10 OFFCURVE",
"557 -10 OFFCURVE",
"631 -10 CURVE SMOOTH"
);
}
);
width = 693;
}
);
leftKerningGroup = B;
unicode = 004B;
},
{
glyphname = L;
lastChange = "2016-03-24 04:22:40 +0000";
layers = (
{
layerId = UUID0;
paths = (
{
closed = 1;
nodes = (
"551 0 LINE",
"551 40 LINE",
"196 40 LINE",
"196 540 LINE SMOOTH",
"196 640 OFFCURVE",
"176 660 OFFCURVE",
"106 660 CURVE SMOOTH",
"16 660 LINE",
"16 640 LINE",
"36 640 LINE SMOOTH",
"96 640 OFFCURVE",
"106 600 OFFCURVE",
"106 540 CURVE SMOOTH",
"106 0 LINE"
);
}
);
width = 558;
},
{
layerId = "BAEEE752-CD63-427F-8763-260FDB7B8BAE";
paths = (
{
closed = 1;
nodes = (
"570 0 LINE",
"570 45 LINE",
"225 45 LINE",
"225 530 LINE SMOOTH",
"225 629 OFFCURVE",
"205 660 OFFCURVE",
"135 660 CURVE SMOOTH",
"15 660 LINE",
"15 630 LINE",
"25 630 LINE SMOOTH",
"85 630 OFFCURVE",
"95 590 OFFCURVE",
"95 530 CURVE SMOOTH",
"95 0 LINE"
);
}
);
width = 570;
}
);
leftKerningGroup = B;
unicode = 004C;
},
{
glyphname = M;
lastChange = "2016-03-24 05:08:56 +0000";
layers = (
{
layerId = UUID0;
paths = (
{
closed = 1;
nodes = (
"841 -25 LINE",
"776 -25 OFFCURVE",
"746 49 OFFCURVE",
"746 170 CURVE SMOOTH",
"746 660 LINE",
"656 660 LINE",
"421 140 LINE",
"181 660 LINE",
"86 660 LINE",
"86 0 LINE",
"126 0 LINE",
"126 565 LINE",
"386 0 LINE",
"406 0 LINE",
"656 555 LINE",
"656 170 LINE SMOOTH",
"656 20 OFFCURVE",
"696 -45 OFFCURVE",
"841 -45 CURVE"
);
}
);
width = 855;
},
{
layerId = "BAEEE752-CD63-427F-8763-260FDB7B8BAE";
paths = (
{
closed = 1;
nodes = (
"847 -20 LINE",
"791 -9 OFFCURVE",
"774 49 OFFCURVE",
"774 170 CURVE SMOOTH",
"774 660 LINE",
"643 660 LINE",
"438 169 LINE",
"196 660 LINE",
"74 660 LINE",
"74 0 LINE",
"124 0 LINE",
"124 544 LINE",
"392 0 LINE",
"425 0 LINE",
"644 524 LINE",
"644 170 LINE SMOOTH",
"644 19 OFFCURVE",
"702 -45 OFFCURVE",
"847 -45 CURVE"
);
}
);
width = 867;
}
);
unicode = 004D;
},
{
glyphname = N;
lastChange = "2016-03-24 04:22:50 +0000";
layers = (
{
layerId = UUID0;
paths = (
{
closed = 1;
nodes = (
"600 -10 LINE",
"600 660 LINE",
"560 660 LINE",
"560 165 LINE",
"210 600 LINE",
"179 637 OFFCURVE",
"140 660 OFFCURVE",
"75 660 CURVE SMOOTH",
"10 660 LINE",
"10 640 LINE",
"20 640 LINE SMOOTH",
"89 640 OFFCURVE",
"110 600 OFFCURVE",
"110 540 CURVE SMOOTH",
"110 0 LINE",
"150 0 LINE",
"150 525 LINE",
"580 -10 LINE"
);
}
);
width = 685;
},
{
layerId = "BAEEE752-CD63-427F-8763-260FDB7B8BAE";
paths = (
{
closed = 1;
nodes = (
"618 -3 LINE",
"618 660 LINE",
"568 660 LINE",
"568 200 LINE",
"224 600 LINE",
"193 640 OFFCURVE",
"149 660 OFFCURVE",
"73 660 CURVE SMOOTH",
"3 660 LINE",
"3 630 LINE",
"8 630 LINE SMOOTH",
"78 630 OFFCURVE",
"98 591 OFFCURVE",
"98 540 CURVE SMOOTH",
"98 0 LINE",
"148 0 LINE",
"148 495 LINE",
"572 -3 LINE"
);
}
);
width = 692;
}
);
leftKerningGroup = B;
rightKerningGroup = N;
unicode = 004E;
},
{
glyphname = O;
lastChange = "2016-03-24 04:53:58 +0000";
layers = (
{
layerId = UUID0;
paths = (
{
closed = 1;
nodes = (
"546 -20 OFFCURVE",
"666 134 OFFCURVE",
"666 330 CURVE SMOOTH",
"666 526 OFFCURVE",
"546 680 OFFCURVE",
"356 680 CURVE SMOOTH",
"166 680 OFFCURVE",
"46 526 OFFCURVE",
"46 330 CURVE SMOOTH",
"46 134 OFFCURVE",
"166 -20 OFFCURVE",
"356 -20 CURVE SMOOTH"
);
},
{
closed = 1;
nodes = (
"225 20 OFFCURVE",
"146 140 OFFCURVE",
"146 330 CURVE SMOOTH",
"146 520 OFFCURVE",
"225 640 OFFCURVE",
"356 640 CURVE SMOOTH",
"487 640 OFFCURVE",
"566 520 OFFCURVE",
"566 330 CURVE SMOOTH",
"566 140 OFFCURVE",
"487 20 OFFCURVE",
"356 20 CURVE SMOOTH"
);
}
);
width = 712;
},
{
layerId = "BAEEE752-CD63-427F-8763-260FDB7B8BAE";
paths = (
{
closed = 1;
nodes = (
"566 -20 OFFCURVE",
"696 133 OFFCURVE",
"696 330 CURVE SMOOTH",
"696 527 OFFCURVE",
"566 680 OFFCURVE",
"367 680 CURVE SMOOTH",
"168 680 OFFCURVE",
"37 527 OFFCURVE",
"37 330 CURVE SMOOTH",
"37 133 OFFCURVE",
"168 -20 OFFCURVE",
"367 -20 CURVE SMOOTH"
);
},
{
closed = 1;
nodes = (
"246 25 OFFCURVE",
"177 135 OFFCURVE",
"177 330 CURVE SMOOTH",
"177 525 OFFCURVE",
"246 635 OFFCURVE",
"367 635 CURVE SMOOTH",
"488 635 OFFCURVE",
"558 525 OFFCURVE",
"558 330 CURVE SMOOTH",
"558 135 OFFCURVE",
"488 25 OFFCURVE",
"367 25 CURVE SMOOTH"
);
}
);
width = 733;
}
);
leftKerningGroup = C;
rightKerningGroup = O;
unicode = 004F;
},
{
glyphname = P;
lastChange = "2016-03-24 05:15:20 +0000";
layers = (
{
layerId = UUID0;
paths = (
{
closed = 1;
nodes = (
"196 0 LINE",
"196 270 LINE",
"306 270 LINE SMOOTH",
"361 270 OFFCURVE",
"526 289 OFFCURVE",
"526 460 CURVE SMOOTH",
"526 640 OFFCURVE",
"361 660 OFFCURVE",
"276 660 CURVE SMOOTH",
"16 660 LINE",
"16 640 LINE",
"36 640 LINE SMOOTH",
"96 640 OFFCURVE",
"106 600 OFFCURVE",
"106 540 CURVE SMOOTH",
"106 0 LINE"
);
},
{
closed = 1;
nodes = (
"196 615 LINE",
"216 620 OFFCURVE",
"246 625 OFFCURVE",
"271 625 CURVE SMOOTH",
"326 625 OFFCURVE",
"426 585 OFFCURVE",
"426 465 CURVE SMOOTH",
"426 345 OFFCURVE",
"326 305 OFFCURVE",
"271 305 CURVE",
"196 305 LINE"
);
}
);
width = 552;
},
{
layerId = "BAEEE752-CD63-427F-8763-260FDB7B8BAE";
paths = (
{
closed = 1;
nodes = (
"225 0 LINE",
"225 267 LINE",
"320 267 LINE SMOOTH",
"379 267 OFFCURVE",
"560 286 OFFCURVE",
"560 459 CURVE SMOOTH",
"560 642 OFFCURVE",
"380 660 OFFCURVE",
"290 660 CURVE SMOOTH",
"15 660 LINE",
"15 630 LINE",
"25 630 LINE SMOOTH",
"85 630 OFFCURVE",
"95 590 OFFCURVE",
"95 530 CURVE SMOOTH",
"95 0 LINE"
);
},
{
closed = 1;
nodes = (
"225 613 LINE",
"256 619 OFFCURVE",
"275 620 OFFCURVE",
"290 620 CURVE SMOOTH",
"353 620 OFFCURVE",
"420 587 OFFCURVE",
"420 464 CURVE SMOOTH",
"420 340 OFFCURVE",
"353 307 OFFCURVE",
"285 307 CURVE",
"225 307 LINE"
);
}
);
width = 577;
}
);
leftKerningGroup = B;
unicode = 0050;
},
{
glyphname = Q;
lastChange = "2016-03-24 04:23:29 +0000";
layers = (
{
layerId = UUID0;
paths = (
{
closed = 1;
nodes = (
"677 -185 LINE",
"591 -185 OFFCURVE",
"471 -109 OFFCURVE",
"439 -9 CURVE",
"581 29 OFFCURVE",
"667 164 OFFCURVE",
"667 330 CURVE SMOOTH",
"667 526 OFFCURVE",
"547 680 OFFCURVE",
"357 680 CURVE SMOOTH",
"167 680 OFFCURVE",
"47 526 OFFCURVE",
"47 330 CURVE SMOOTH",
"47 167 OFFCURVE",
"130 33 OFFCURVE",
"267 -7 CURVE",
"390 -160 OFFCURVE",
"531 -205 OFFCURVE",
"677 -205 CURVE"
);
},
{
closed = 1;
nodes = (
"226 20 OFFCURVE",
"147 140 OFFCURVE",
"147 330 CURVE SMOOTH",
"147 520 OFFCURVE",
"226 640 OFFCURVE",
"357 640 CURVE SMOOTH",
"488 640 OFFCURVE",
"567 520 OFFCURVE",
"567 330 CURVE SMOOTH",
"567 140 OFFCURVE",
"488 20 OFFCURVE",
"357 20 CURVE SMOOTH"
);
}
);
width = 714;
},
{
layerId = "BAEEE752-CD63-427F-8763-260FDB7B8BAE";
paths = (
{
closed = 1;
nodes = (
"693 -179 LINE",
"609 -179 OFFCURVE",
"498 -104 OFFCURVE",
"463 -7 CURVE",
"607 33 OFFCURVE",
"697 164 OFFCURVE",
"697 330 CURVE SMOOTH",
"697 527 OFFCURVE",
"567 680 OFFCURVE",
"368 680 CURVE SMOOTH",
"169 680 OFFCURVE",
"38 527 OFFCURVE",
"38 330 CURVE SMOOTH",
"38 169 OFFCURVE",
"125 39 OFFCURVE",
"264 -4 CURVE",
"386 -152 OFFCURVE",
"541 -205 OFFCURVE",
"693 -205 CURVE"
);
},
{
closed = 1;
nodes = (
"247 25 OFFCURVE",
"178 135 OFFCURVE",
"178 330 CURVE SMOOTH",
"178 525 OFFCURVE",
"247 635 OFFCURVE",
"368 635 CURVE SMOOTH",
"489 635 OFFCURVE",
"559 525 OFFCURVE",
"559 330 CURVE SMOOTH",
"559 135 OFFCURVE",
"489 25 OFFCURVE",
"368 25 CURVE SMOOTH"
);
}
);
width = 735;
}
);
leftKerningGroup = C;
rightKerningGroup = O;
unicode = 0051;
},
{
glyphname = R;
lastChange = "2016-03-24 05:15:37 +0000";
layers = (
{
layerId = UUID0;
paths = (
{
closed = 1;
nodes = (
"571 -10 OFFCURVE",
"595 -5 OFFCURVE",
"606 0 CURVE",
"606 20 LINE",
"556 25 OFFCURVE",
"522 50 OFFCURVE",
"471 135 CURVE SMOOTH",
"366 310 LINE",
"440 327 OFFCURVE",
"526 366 OFFCURVE",
"526 481 CURVE SMOOTH",
"526 640 OFFCURVE",
"360 660 OFFCURVE",
"276 660 CURVE SMOOTH",
"16 660 LINE",
"16 640 LINE",
"36 640 LINE SMOOTH",
"96 640 OFFCURVE",
"106 600 OFFCURVE",
"106 540 CURVE SMOOTH",
"106 0 LINE",
"196 0 LINE",
"196 305 LINE",
"266 305 LINE",
"366 135 LINE SMOOTH",
"431 25 OFFCURVE",
"476 -10 OFFCURVE",
"545 -10 CURVE SMOOTH"
);
},
{
closed = 1;
nodes = (
"196 615 LINE",
"216 620 OFFCURVE",
"247 625 OFFCURVE",
"268 625 CURVE SMOOTH",
"326 625 OFFCURVE",
"426 585 OFFCURVE",
"426 482 CURVE SMOOTH",
"426 379 OFFCURVE",
"327 340 OFFCURVE",
"268 340 CURVE",
"196 340 LINE"
);
}
);
width = 595;
},
{
layerId = "BAEEE752-CD63-427F-8763-260FDB7B8BAE";
paths = (
{
closed = 1;
nodes = (
"585 -10 OFFCURVE",
"617 -5 OFFCURVE",
"628 0 CURVE",
"628 25 LINE",
"599 30 OFFCURVE",
"555 50 OFFCURVE",
"504 135 CURVE SMOOTH",
"399 310 LINE",
"481 331 OFFCURVE",
"561 372 OFFCURVE",
"561 479 CURVE SMOOTH",
"561 640 OFFCURVE",
"382 660 OFFCURVE",
"291 660 CURVE SMOOTH",
"15 660 LINE",
"15 630 LINE",
"25 630 LINE SMOOTH",
"85 630 OFFCURVE",
"95 590 OFFCURVE",
"95 530 CURVE SMOOTH",
"95 0 LINE",
"226 0 LINE",
"226 302 LINE",
"266 302 LINE",
"366 135 LINE SMOOTH",
"431 27 OFFCURVE",
"489 -10 OFFCURVE",
"559 -10 CURVE SMOOTH"
);
},
{
closed = 1;
nodes = (
"226 613 LINE",
"257 619 OFFCURVE",
"277 620 OFFCURVE",
"288 620 CURVE SMOOTH",
"351 620 OFFCURVE",
"421 585 OFFCURVE",
"421 481 CURVE SMOOTH",
"421 376 OFFCURVE",
"350 342 OFFCURVE",
"286 342 CURVE",
"226 342 LINE"
);
}
);
width = 616;
}
);
leftKerningGroup = B;
unicode = 0052;
},
{
glyphname = S;
lastChange = "2016-03-24 04:23:29 +0000";
layers = (
{
layerId = UUID0;
paths = (
{
closed = 1;
nodes = (
"410 -17 OFFCURVE",
"490 56 OFFCURVE",
"490 168 CURVE SMOOTH",
"490 243 OFFCURVE",
"451 282 OFFCURVE",
"366 333 CURVE SMOOTH",
"243 406 LINE SMOOTH",
"170 449 OFFCURVE",
"132 479 OFFCURVE",
"132 537 CURVE SMOOTH",
"132 599 OFFCURVE",
"189 638 OFFCURVE",
"248 638 CURVE SMOOTH",
"361 638 OFFCURVE",
"423 586 OFFCURVE",
"446 451 CURVE",
"464 451 LINE",
"464 558 LINE SMOOTH",
"464 634 OFFCURVE",
"347 678 OFFCURVE",
"248 678 CURVE SMOOTH",
"132 678 OFFCURVE",
"54 611 OFFCURVE",
"54 508 CURVE SMOOTH",
"54 433 OFFCURVE",
"86 387 OFFCURVE",
"171 336 CURVE SMOOTH",
"294 263 LINE SMOOTH",
"367 220 OFFCURVE",
"404 184 OFFCURVE",
"404 125 CURVE SMOOTH",
"404 58 OFFCURVE",
"341 23 OFFCURVE",
"273 23 CURVE SMOOTH",
"160 23 OFFCURVE",
"95 77 OFFCURVE",
"72 212 CURVE",
"54 212 LINE",
"54 105 LINE SMOOTH",
"54 30 OFFCURVE",
"174 -17 OFFCURVE",
"282 -17 CURVE SMOOTH"
);
}
);
width = 533;
},
{
layerId = "BAEEE752-CD63-427F-8763-260FDB7B8BAE";
paths = (
{
closed = 1;
nodes = (
"434 -17 OFFCURVE",
"524 54 OFFCURVE",
"524 169 CURVE SMOOTH",
"524 242 OFFCURVE",
"484 288 OFFCURVE",
"393 341 CURVE SMOOTH",
"270 414 LINE SMOOTH",
"207 451 OFFCURVE",
"166 480 OFFCURVE",
"166 536 CURVE SMOOTH",
"166 596 OFFCURVE",
"211 633 OFFCURVE",
"283 633 CURVE SMOOTH",
"384 633 OFFCURVE",
"447 580 OFFCURVE",
"470 441 CURVE",
"498 441 LINE",
"498 558 LINE SMOOTH",
"498 634 OFFCURVE",
"381 678 OFFCURVE",
"272 678 CURVE SMOOTH",
"135 678 OFFCURVE",
"48 612 OFFCURVE",
"48 507 CURVE SMOOTH",
"48 434 OFFCURVE",
"81 381 OFFCURVE",
"172 328 CURVE SMOOTH",
"295 254 LINE SMOOTH",
"359 215 OFFCURVE",
"398 182 OFFCURVE",
"398 125 CURVE SMOOTH",
"398 61 OFFCURVE",
"348 28 OFFCURVE",
"272 28 CURVE SMOOTH",
"160 28 OFFCURVE",
"96 81 OFFCURVE",
"75 220 CURVE",
"47 220 LINE",
"47 103 LINE SMOOTH",
"47 27 OFFCURVE",
"164 -17 OFFCURVE",
"273 -17 CURVE SMOOTH"
);
}
);
width = 561;
}
);
leftKerningGroup = S;
rightKerningGroup = S;
unicode = 0053;
},
{
glyphname = T;
lastChange = "2016-03-24 04:23:29 +0000";
layers = (
{
layerId = UUID0;
paths = (
{
closed = 1;
nodes = (
"346 0 LINE",
"346 620 LINE",
"571 620 LINE",
"571 660 LINE",
"106 660 LINE SMOOTH",
"37 660 OFFCURVE",
"21 620 OFFCURVE",
"21 580 CURVE SMOOTH",
"21 505 LINE",
"41 505 LINE",
"41 585 OFFCURVE",
"86 620 OFFCURVE",
"166 620 CURVE SMOOTH",
"256 620 LINE",
"256 0 LINE"
);
}
);
width = 583;
},
{
layerId = "BAEEE752-CD63-427F-8763-260FDB7B8BAE";
paths = (
{
closed = 1;
nodes = (
"362 0 LINE",
"362 615 LINE",
"571 615 LINE",
"571 660 LINE",
"101 660 LINE SMOOTH",
"32 660 OFFCURVE",
"16 620 OFFCURVE",
"16 580 CURVE SMOOTH",
"16 495 LINE",
"46 495 LINE",
"46 584 OFFCURVE",
"90 615 OFFCURVE",
"161 615 CURVE SMOOTH",
"232 615 LINE",
"232 0 LINE"
);
}
);
width = 575;
}
);
unicode = 0054;
},
{
glyphname = U;
lastChange = "2016-03-24 04:27:18 +0000";
layers = (
{
layerId = UUID0;
paths = (
{
closed = 1;
nodes = (
"559 -10 OFFCURVE",
"609 89 OFFCURVE",
"609 285 CURVE SMOOTH",
"609 660 LINE",
"569 660 LINE",
"569 285 LINE SMOOTH",
"569 109 OFFCURVE",
"519 30 OFFCURVE",
"366 30 CURVE SMOOTH",
"234 30 OFFCURVE",
"189 115 OFFCURVE",
"189 255 CURVE SMOOTH",
"189 540 LINE SMOOTH",
"189 640 OFFCURVE",
"169 660 OFFCURVE",
"99 660 CURVE SMOOTH",
"9 660 LINE",
"9 640 LINE",
"29 640 LINE SMOOTH",
"89 640 OFFCURVE",
"99 600 OFFCURVE",
"99 540 CURVE SMOOTH",
"99 285 LINE SMOOTH",
"99 89 OFFCURVE",
"159 -10 OFFCURVE",
"354 -10 CURVE SMOOTH"
);
}
);
width = 687;
},
{
layerId = "BAEEE752-CD63-427F-8763-260FDB7B8BAE";
paths = (
{
closed = 1;
nodes = (
"557 -10 OFFCURVE",
"627 100 OFFCURVE",
"627 288 CURVE SMOOTH",
"627 660 LINE",
"577 660 LINE",
"577 288 LINE SMOOTH",
"577 113 OFFCURVE",
"518 35 OFFCURVE",
"382 35 CURVE SMOOTH",
"277 35 OFFCURVE",
"224 119 OFFCURVE",
"223 258 CURVE SMOOTH",
"222 530 LINE SMOOTH",
"222 629 OFFCURVE",
"202 660 OFFCURVE",
"132 660 CURVE SMOOTH",
"22 660 LINE",
"22 630 LINE",
"31 630 LINE",
"83 626 OFFCURVE",
"92 587 OFFCURVE",
"92 530 CURVE SMOOTH",
"92 288 LINE SMOOTH",
"92 89 OFFCURVE",
"182 -10 OFFCURVE",
"362 -10 CURVE SMOOTH"
);
}
);
width = 694;
}
);
leftKerningGroup = U;
rightKerningGroup = U;
unicode = 0055;
},
{
glyphname = V;
lastChange = "2016-03-24 04:27:36 +0000";
layers = (
{
layerId = UUID0;
paths = (
{
closed = 1;
nodes = (
"331 -10 LINE",
"618 660 LINE",
"570 660 LINE",
"350 140 LINE",
"179 543 LINE SMOOTH",
"131 657 OFFCURVE",
"54 670 OFFCURVE",
"5 670 CURVE SMOOTH",
"-4 670 OFFCURVE",
"-24 668 OFFCURVE",
"-29 668 CURVE",
"-29 648 LINE",
"27 643 OFFCURVE",
"49 618 OFFCURVE",
"81 543 CURVE SMOOTH",
"313 -10 LINE"
);
}
);
width = 640;
},
{
layerId = "BAEEE752-CD63-427F-8763-260FDB7B8BAE";
paths = (
{
closed = 1;
nodes = (
"339 -10 LINE",
"627 660 LINE",
"576 660 LINE",
"365 169 LINE",
"207 543 LINE SMOOTH",
"159 657 OFFCURVE",
"78 670 OFFCURVE",
"9 670 CURVE SMOOTH",
"0 670 OFFCURVE",
"-28 668 OFFCURVE",
"-33 668 CURVE",
"-33 648 LINE",
"7 643 OFFCURVE",
"34 618 OFFCURVE",
"66 543 CURVE SMOOTH",
"299 -10 LINE"
);
}
);
width = 635;
}
);
unicode = 0056;
},
{
glyphname = W;
lastChange = "2016-03-24 04:23:29 +0000";
layers = (
{
layerId = UUID0;
paths = (
{
closed = 1;
nodes = (
"292 -10 LINE",
"436 411 LINE",
"584 -10 LINE",
"604 -10 LINE",
"833 660 LINE",
"790 660 LINE",
"619 157 LINE",
"485 543 LINE SMOOTH",
"445 659 OFFCURVE",
"369 670 OFFCURVE",
"314 670 CURVE SMOOTH",
"305 670 OFFCURVE",
"285 668 OFFCURVE",
"280 668 CURVE",
"280 648 LINE",
"340 643 OFFCURVE",
"363 619 OFFCURVE",
"390 543 CURVE SMOOTH",
"414 474 LINE",
"307 157 LINE",
"173 543 LINE SMOOTH",
"133 659 OFFCURVE",
"57 670 OFFCURVE",
"2 670 CURVE SMOOTH",
"-7 670 OFFCURVE",
"-27 668 OFFCURVE",
"-32 668 CURVE",
"-32 648 LINE",
"28 643 OFFCURVE",
"51 619 OFFCURVE",
"78 543 CURVE SMOOTH",
"272 -10 LINE"
);
}
);
width = 866;
},
{
layerId = "BAEEE752-CD63-427F-8763-260FDB7B8BAE";
paths = (
{
closed = 1;
nodes = (
"317 -9 LINE",
"454 383 LINE",
"608 -9 LINE",
"648 -9 LINE",
"885 660 LINE",
"837 660 LINE",
"666 179 LINE",
"523 543 LINE SMOOTH",
"477 658 OFFCURVE",
"395 670 OFFCURVE",
"325 670 CURVE SMOOTH",
"316 670 OFFCURVE",
"291 668 OFFCURVE",
"286 668 CURVE",
"286 648 LINE",
"326 643 OFFCURVE",
"361 619 OFFCURVE",
"392 543 CURVE SMOOTH",
"427 454 LINE",
"337 198 LINE",
"202 543 LINE SMOOTH",
"156 659 OFFCURVE",
"74 670 OFFCURVE",
"4 670 CURVE SMOOTH",
"-5 670 OFFCURVE",
"-33 668 OFFCURVE",
"-38 668 CURVE",
"-38 648 LINE",
"2 643 OFFCURVE",
"30 619 OFFCURVE",
"61 543 CURVE SMOOTH",
"277 -9 LINE"
);
}
);
width = 906;
}
);
unicode = 0057;
},
{
glyphname = X;
lastChange = "2016-03-24 04:22:50 +0000";
layers = (
{
layerId = UUID0;
paths = (
{
closed = 1;
nodes = (
"91 0 LINE",
"316 290 LINE",
"436 110 LINE",
"468 59 OFFCURVE",
"512 0 OFFCURVE",
"576 0 CURVE SMOOTH",
"681 0 LINE",
"681 20 LINE",
"617 25 OFFCURVE",
"570 80 OFFCURVE",
"536 130 CURVE SMOOTH",
"376 365 LINE",
"601 660 LINE",
"551 660 LINE",
"351 400 LINE",
"251 550 LINE SMOOTH",
"217 600 OFFCURVE",
"177 660 OFFCURVE",
"111 660 CURVE SMOOTH",
"-9 660 LINE",
"-9 640 LINE",
"81 635 OFFCURVE",
"117 580 OFFCURVE",
"151 530 CURVE SMOOTH",
"291 325 LINE",
"41 0 LINE"
);
}
);
width = 667;
},
{
layerId = "BAEEE752-CD63-427F-8763-260FDB7B8BAE";
paths = (
{
closed = 1;
nodes = (
"82 0 LINE",
"293 266 LINE",
"394 110 LINE SMOOTH",
"426 59 OFFCURVE",
"482 0 OFFCURVE",
"557 0 CURVE SMOOTH",
"667 0 LINE",
"667 20 LINE",
"622 25 OFFCURVE",
"566 78 OFFCURVE",
"533 130 CURVE SMOOTH",
"376 371 LINE",
"605 660 LINE",
"540 660 LINE",
"347 416 LINE",
"260 550 LINE SMOOTH",
"228 601 OFFCURVE",
"172 660 OFFCURVE",
"97 660 CURVE SMOOTH",
"-13 660 LINE",
"-13 640 LINE",
"32 635 OFFCURVE",
"88 582 OFFCURVE",
"121 530 CURVE SMOOTH",
"263 311 LINE",
"17 0 LINE"
);
}
);
width = 647;
}
);
unicode = 0058;
},
{
glyphname = Y;
lastChange = "2016-03-24 04:22:50 +0000";
layers = (
{
layerId = UUID0;
paths = (
{
closed = 1;
nodes = (
"380 0 LINE",
"380 280 LINE",
"614 660 LINE",
"569 660 LINE",
"360 325 LINE",
"215 550 LINE",
"181 605 OFFCURVE",
"139 660 OFFCURVE",
"65 660 CURVE SMOOTH",
"-25 660 LINE",
"-25 640 LINE",
"46 635 OFFCURVE",
"79 589 OFFCURVE",
"120 530 CURVE",
"290 273 LINE",
"290 0 LINE"
);
}
);
width = 628;
},
{
layerId = "BAEEE752-CD63-427F-8763-260FDB7B8BAE";
paths = (
{
closed = 1;
nodes = (
"409 0 LINE",
"409 291 LINE",
"636 660 LINE",
"571 660 LINE",
"377 345 LINE",
"241 550 LINE SMOOTH",
"209 601 OFFCURVE",
"153 660 OFFCURVE",
"78 660 CURVE SMOOTH",
"-31 660 LINE",
"-31 640 LINE",
"15 635 OFFCURVE",
"67 581 OFFCURVE",
"102 530 CURVE SMOOTH",
"279 264 LINE",
"279 0 LINE"
);
}
);
width = 638;
}
);
leftKerningGroup = Y;
rightKerningGroup = Y;
unicode = 0059;
},
{
glyphname = Z;
lastChange = "2016-03-24 04:22:50 +0000";
layers = (
{
layerId = UUID0;
paths = (
{
closed = 1;
nodes = (
"559 0 LINE",
"559 40 LINE",
"149 40 LINE",
"574 660 LINE",
"139 660 LINE SMOOTH",
"70 660 OFFCURVE",
"54 620 OFFCURVE",
"54 580 CURVE SMOOTH",
"54 505 LINE",
"74 505 LINE",
"74 585 OFFCURVE",
"119 620 OFFCURVE",
"199 620 CURVE SMOOTH",
"439 620 LINE",
"24 20 LINE",
"24 0 LINE"
);
}
);
width = 591;
},
{
layerId = "BAEEE752-CD63-427F-8763-260FDB7B8BAE";
paths = (
{
closed = 1;
nodes = (
"576 0 LINE",
"576 45 LINE",
"189 45 LINE",
"581 660 LINE",
"126 660 LINE SMOOTH",
"57 660 OFFCURVE",
"41 620 OFFCURVE",
"41 580 CURVE SMOOTH",
"41 495 LINE",
"71 495 LINE",
"71 584 OFFCURVE",
"115 616 OFFCURVE",
"186 616 CURVE SMOOTH",
"403 616 LINE",
"31 32 LINE",
"31 0 LINE"
);
}
);
width = 599;
}
);
leftKerningGroup = Z;
rightKerningGroup = Z;
unicode = 005A;
},
{
glyphname = bracketleft;
lastChange = "2016-03-24 05:08:53 +0000";
layers = (
{
layerId = UUID0;
paths = (
{
closed = 1;
nodes = (
"290 -200 LINE",
"290 -160 LINE",
"155 -160 LINE",
"155 640 LINE",
"290 640 LINE",
"290 680 LINE",
"75 680 LINE",
"75 -200 LINE"
);
}
);
width = 316;
},
{
layerId = "BAEEE752-CD63-427F-8763-260FDB7B8BAE";
paths = (
{
closed = 1;
nodes = (
"311 -200 LINE",
"311 -155 LINE",
"186 -155 LINE",
"186 635 LINE",
"311 635 LINE",
"311 680 LINE",
"66 680 LINE",
"66 -200 LINE"
);
}
);
width = 331;
}
);
unicode = 005B;
},
{
glyphname = backslash;
lastChange = "2016-03-24 05:08:55 +0000";
layers = (
{
layerId = UUID0;
paths = (
{
closed = 1;
nodes = (
"417 0 LINE",
"96 660 LINE",
"23 660 LINE",
"344 0 LINE"
);
}
);
width = 440;
},
{
layerId = "BAEEE752-CD63-427F-8763-260FDB7B8BAE";
paths = (
{
closed = 1;
nodes = (
"454 0 LINE",
"133 660 LINE",
"21 660 LINE",
"342 0 LINE"
);
}
);
width = 475;
}
);
unicode = 005C;
},
{
glyphname = bracketright;
lastChange = "2016-03-24 05:08:50 +0000";
layers = (
{
layerId = UUID0;
paths = (
{
closed = 1;
nodes = (
"241 -200 LINE",
"241 680 LINE",
"26 680 LINE",
"26 640 LINE",
"161 640 LINE",
"161 -160 LINE",
"26 -160 LINE",
"26 -200 LINE"
);
}
);
width = 316;
},
{
layerId = "BAEEE752-CD63-427F-8763-260FDB7B8BAE";
paths = (
{
closed = 1;
nodes = (
"265 -200 LINE",
"265 680 LINE",
"20 680 LINE",
"20 635 LINE",
"145 635 LINE",
"145 -155 LINE",
"20 -155 LINE",
"20 -200 LINE"
);
}
);
width = 331;
}
);
unicode = 005D;
},
{
glyphname = asciicircum;
lastChange = "2016-03-24 05:08:48 +0000";
layers = (
{
layerId = UUID0;
paths = (
{
closed = 1;
nodes = (
"87 330 LINE",
"245 587 LINE",
"403 330 LINE",
"470 330 LINE",
"255 680 LINE",
"235 680 LINE",
"20 330 LINE"
);
}
);
width = 490;
},
{
layerId = "BAEEE752-CD63-427F-8763-260FDB7B8BAE";
paths = (
{
closed = 1;
nodes = (
"118 330 LINE",
"257 557 LINE",
"396 330 LINE",
"494 330 LINE",
"279 680 LINE",
"235 680 LINE",
"20 330 LINE"
);
}
);
width = 514;
}
);
unicode = 005E;
},
{
glyphname = underscore;
lastChange = "2016-03-24 05:08:46 +0000";
layers = (
{
layerId = UUID0;
paths = (
{
closed = 1;
nodes = (
"416 -60 LINE",
"416 0 LINE",
"16 0 LINE",
"16 -60 LINE"
);
}
);
width = 432;
},
{
layerId = "BAEEE752-CD63-427F-8763-260FDB7B8BAE";
paths = (
{
closed = 1;
nodes = (
"428 -70 LINE",
"428 0 LINE",
"8 0 LINE",
"8 -70 LINE"
);
}
);
width = 436;
}
);
unicode = 005F;
},
{
glyphname = grave;
lastChange = "2016-03-24 05:08:36 +0000";
layers = (
{
layerId = UUID0;
paths = (
{
closed = 1;
nodes = (
"180 480 LINE",
"120 680 LINE",
"20 680 LINE",
"130 480 LINE"
);
}
);
width = 200;
},
{
layerId = "BAEEE752-CD63-427F-8763-260FDB7B8BAE";
paths = (
{
closed = 1;
nodes = (
"207 477 LINE",
"145 680 LINE",
"20 680 LINE",
"133 477 LINE"
);
}
);
width = 227;
}
);
unicode = 0060;
},
{
glyphname = a;
lastChange = "2016-03-24 04:23:06 +0000";
layers = (
{
layerId = UUID0;
paths = (
{
closed = 1;
nodes = (
"260 -10 OFFCURVE",
"304 20 OFFCURVE",
"324 45 CURVE",
"329 45 LINE",
"364 0 LINE",
"414 0 LINE",
"414 270 LINE SMOOTH",
"414 450 OFFCURVE",
"330 480 OFFCURVE",
"239 480 CURVE SMOOTH",
"179 480 OFFCURVE",
"114 470 OFFCURVE",
"89 445 CURVE SMOOTH",
"64 420 OFFCURVE",
"64 390 OFFCURVE",
"64 355 CURVE",
"109 355 LINE",
"124 420 OFFCURVE",
"163 440 OFFCURVE",
"219 440 CURVE SMOOTH",
"279 440 OFFCURVE",
"324 410 OFFCURVE",
"324 270 CURVE",
"294 270 LINE SMOOTH",
"159 270 OFFCURVE",
"39 239 OFFCURVE",
"39 130 CURVE SMOOTH",
"39 21 OFFCURVE",
"129 -10 OFFCURVE",
"184 -10 CURVE SMOOTH"
);
},
{
closed = 1;
nodes = (
"179 35 OFFCURVE",
"134 65 OFFCURVE",
"134 130 CURVE SMOOTH",
"134 190 OFFCURVE",
"194 230 OFFCURVE",
"294 230 CURVE SMOOTH",
"324 230 LINE",
"324 95 LINE",
"304 64 OFFCURVE",
"278 35 OFFCURVE",
"229 35 CURVE SMOOTH"
);
}
);
width = 481;
},
{
layerId = "BAEEE752-CD63-427F-8763-260FDB7B8BAE";
paths = (
{
closed = 1;
nodes = (
"259 -10 OFFCURVE",
"301 17 OFFCURVE",
"319 45 CURVE",
"324 45 LINE",
"359 0 LINE",
"444 0 LINE",
"444 270 LINE SMOOTH",
"444 411 OFFCURVE",
"370 480 OFFCURVE",
"239 480 CURVE SMOOTH",
"174 480 OFFCURVE",
"113 472 OFFCURVE",
"89 445 CURVE SMOOTH",
"65 418 OFFCURVE",
"64 380 OFFCURVE",
"64 345 CURVE",
"119 345 LINE",
"135 420 OFFCURVE",
"174 435 OFFCURVE",
"219 435 CURVE SMOOTH",
"279 435 OFFCURVE",
"314 395 OFFCURVE",
"314 275 CURVE",
"299 275 LINE SMOOTH",
"84 275 OFFCURVE",
"29 220 OFFCURVE",
"29 125 CURVE SMOOTH",
"29 45 OFFCURVE",
"88 -10 OFFCURVE",
"199 -10 CURVE SMOOTH"
);
},
{
closed = 1;
nodes = (
"189 40 OFFCURVE",
"164 69 OFFCURVE",
"164 125 CURVE SMOOTH",
"164 196 OFFCURVE",
"203 230 OFFCURVE",
"299 230 CURVE SMOOTH",
"314 230 LINE",
"314 105 LINE",
"303 77 OFFCURVE",
"273 40 OFFCURVE",
"229 40 CURVE SMOOTH"
);
}
);
width = 496;
}
);
leftKerningGroup = a;
rightKerningGroup = a;
unicode = 0061;
},
{
glyphname = b;
lastChange = "2016-03-24 04:23:15 +0000";
layers = (
{
layerId = UUID0;
paths = (
{
closed = 1;
nodes = (
"416 -10 OFFCURVE",
"477 100 OFFCURVE",
"477 235 CURVE SMOOTH",
"477 370 OFFCURVE",
"417 480 OFFCURVE",
"287 480 CURVE SMOOTH",
"231 480 OFFCURVE",
"193 465 OFFCURVE",
"162 450 CURVE",
"162 540 LINE SMOOTH",
"162 640 OFFCURVE",
"142 660 OFFCURVE",
"72 660 CURVE SMOOTH",
"-18 660 LINE",
"-18 640 LINE",
"2 640 LINE SMOOTH",
"62 640 OFFCURVE",
"72 600 OFFCURVE",
"72 540 CURVE SMOOTH",
"72 0 LINE",
"122 0 LINE",
"157 45 LINE",
"162 45 LINE",
"182 20 OFFCURVE",
"222 -10 OFFCURVE",
"297 -10 CURVE SMOOTH"
);
},
{
closed = 1;
nodes = (
"212 30 OFFCURVE",
"182 59 OFFCURVE",
"162 90 CURVE",
"162 410 LINE",
"193 425 OFFCURVE",
"226 440 OFFCURVE",
"257 440 CURVE SMOOTH",
"347 440 OFFCURVE",
"382 350 OFFCURVE",
"382 235 CURVE SMOOTH",
"382 120 OFFCURVE",
"347 30 OFFCURVE",
"267 30 CURVE SMOOTH"
);
}
);
width = 523;
},
{
layerId = "BAEEE752-CD63-427F-8763-260FDB7B8BAE";
paths = (
{
closed = 1;
nodes = (
"440 -10 OFFCURVE",
"510 98 OFFCURVE",
"510 235 CURVE SMOOTH",
"510 372 OFFCURVE",
"440 480 OFFCURVE",
"295 480 CURVE SMOOTH",
"249 480 OFFCURVE",
"214 465 OFFCURVE",
"190 450 CURVE",
"190 530 LINE SMOOTH",
"190 629 OFFCURVE",
"170 660 OFFCURVE",
"100 660 CURVE SMOOTH",
"-20 660 LINE",
"-20 630 LINE",
"-10 630 LINE SMOOTH",
"50 630 OFFCURVE",
"60 590 OFFCURVE",
"60 530 CURVE SMOOTH",
"60 0 LINE",
"145 0 LINE",
"180 45 LINE",
"185 45 LINE",
"202 18 OFFCURVE",
"241 -10 OFFCURVE",
"300 -10 CURVE SMOOTH"
);
},
{
closed = 1;
nodes = (
"237 35 OFFCURVE",
"205 67 OFFCURVE",
"190 100 CURVE",
"190 405 LINE",
"207 417 OFFCURVE",
"236 435 OFFCURVE",
"275 435 CURVE SMOOTH",
"350 435 OFFCURVE",
"375 350 OFFCURVE",
"375 235 CURVE SMOOTH",
"375 120 OFFCURVE",
"349 35 OFFCURVE",
"280 35 CURVE SMOOTH"
);
}
);
width = 547;
}
);
leftKerningGroup = b;
rightKerningGroup = b;
unicode = 0062;
},
{
glyphname = c;
lastChange = "2016-03-24 04:22:50 +0000";
layers = (
{
layerId = UUID0;
paths = (
{
closed = 1;
nodes = (
"345 -10 OFFCURVE",
"405 19 OFFCURVE",
"450 95 CURVE",
"430 110 LINE",
"395 59 OFFCURVE",
"356 30 OFFCURVE",
"285 30 CURVE SMOOTH",
"185 30 OFFCURVE",
"140 120 OFFCURVE",
"140 235 CURVE SMOOTH",
"140 350 OFFCURVE",
"185 440 OFFCURVE",
"285 440 CURVE SMOOTH",
"356 440 OFFCURVE",
"410 400 OFFCURVE",
"415 315 CURVE",
"435 315 LINE",
"435 390 OFFCURVE",
"435 420 OFFCURVE",
"410 445 CURVE SMOOTH",
"385 470 OFFCURVE",
"336 480 OFFCURVE",
"265 480 CURVE SMOOTH",
"116 480 OFFCURVE",
"45 370 OFFCURVE",
"45 235 CURVE SMOOTH",
"45 100 OFFCURVE",
"116 -10 OFFCURVE",
"265 -10 CURVE SMOOTH"
);
}
);
width = 483;
},
{
layerId = "BAEEE752-CD63-427F-8763-260FDB7B8BAE";
paths = (
{
closed = 1;
nodes = (
"391 -10 OFFCURVE",
"441 50 OFFCURVE",
"470 95 CURVE",
"439 118 LINE",
"404 71 OFFCURVE",
"365 35 OFFCURVE",
"296 35 CURVE SMOOTH",
"213 35 OFFCURVE",
"171 102 OFFCURVE",
"171 235 CURVE SMOOTH",
"171 371 OFFCURVE",
"220 435 OFFCURVE",
"291 435 CURVE SMOOTH",
"371 435 OFFCURVE",
"421 390 OFFCURVE",
"426 305 CURVE",
"456 305 LINE",
"456 381 OFFCURVE",
"456 420 OFFCURVE",
"431 445 CURVE SMOOTH",
"406 470 OFFCURVE",
"352 480 OFFCURVE",
"276 480 CURVE SMOOTH",
"116 480 OFFCURVE",
"36 368 OFFCURVE",
"36 235 CURVE SMOOTH",
"36 102 OFFCURVE",
"116 -10 OFFCURVE",
"276 -10 CURVE SMOOTH"
);
}
);
width = 496;
}
);
leftKerningGroup = c;
rightKerningGroup = c;
unicode = 0063;
},
{
glyphname = d;
lastChange = "2016-03-24 04:23:23 +0000";
layers = (
{
layerId = UUID0;
paths = (
{
closed = 1;
nodes = (
"308 -10 OFFCURVE",
"340 20 OFFCURVE",
"362 45 CURVE",
"367 45 LINE",
"402 0 LINE",
"452 0 LINE",
"452 540 LINE SMOOTH",
"452 640 OFFCURVE",
"432 660 OFFCURVE",
"362 660 CURVE SMOOTH",
"272 660 LINE",
"272 640 LINE",
"292 640 LINE SMOOTH",
"352 640 OFFCURVE",
"362 600 OFFCURVE",
"362 540 CURVE SMOOTH",
"362 450 LINE",
"331 465 OFFCURVE",
"293 480 OFFCURVE",
"237 480 CURVE SMOOTH",
"107 480 OFFCURVE",
"47 370 OFFCURVE",
"47 235 CURVE SMOOTH",
"47 100 OFFCURVE",
"106 -10 OFFCURVE",
"227 -10 CURVE SMOOTH"
);
},
{
closed = 1;
nodes = (
"177 30 OFFCURVE",
"142 120 OFFCURVE",
"142 235 CURVE SMOOTH",
"142 350 OFFCURVE",
"177 440 OFFCURVE",
"267 440 CURVE SMOOTH",
"298 440 OFFCURVE",
"331 425 OFFCURVE",
"362 410 CURVE",
"362 90 LINE",
"340 60 OFFCURVE",
"318 30 OFFCURVE",
"257 30 CURVE SMOOTH"
);
}
);
width = 524;
},
{
layerId = "BAEEE752-CD63-427F-8763-260FDB7B8BAE";
paths = (
{
closed = 1;
nodes = (
"304 -10 OFFCURVE",
"345 18 OFFCURVE",
"362 45 CURVE",
"367 45 LINE",
"402 0 LINE",
"487 0 LINE",
"487 530 LINE SMOOTH",
"487 629 OFFCURVE",
"467 660 OFFCURVE",
"397 660 CURVE SMOOTH",
"277 660 LINE",
"277 630 LINE",
"287 630 LINE SMOOTH",
"347 630 OFFCURVE",
"357 590 OFFCURVE",
"357 530 CURVE SMOOTH",
"357 450 LINE",
"333 465 OFFCURVE",
"297 480 OFFCURVE",
"252 480 CURVE SMOOTH",
"107 480 OFFCURVE",
"37 372 OFFCURVE",
"37 235 CURVE SMOOTH",
"37 98 OFFCURVE",
"107 -10 OFFCURVE",
"247 -10 CURVE SMOOTH"
);
},
{
closed = 1;
nodes = (
"197 35 OFFCURVE",
"172 120 OFFCURVE",
"172 235 CURVE SMOOTH",
"172 350 OFFCURVE",
"197 435 OFFCURVE",
"272 435 CURVE SMOOTH",
"308 435 OFFCURVE",
"338 419 OFFCURVE",
"357 405 CURVE",
"357 100 LINE",
"344 75 OFFCURVE",
"315 35 OFFCURVE",
"267 35 CURVE SMOOTH"
);
}
);
width = 547;
}
);
leftKerningGroup = c;
unicode = 0064;
},
{
glyphname = e;
lastChange = "2016-03-24 04:27:52 +0000";
layers = (
{
layerId = UUID0;
paths = (
{
closed = 1;
nodes = (
"331 -10 OFFCURVE",
"390 19 OFFCURVE",
"435 95 CURVE",
"415 110 LINE",
"380 59 OFFCURVE",
"340 30 OFFCURVE",
"275 30 CURVE SMOOTH",
"190 30 OFFCURVE",
"140 110 OFFCURVE",
"140 220 CURVE",
"443 220 LINE",
"445 260 LINE",
"445 401 OFFCURVE",
"381 480 OFFCURVE",
"245 480 CURVE SMOOTH",
"120 480 OFFCURVE",
"45 370 OFFCURVE",
"45 235 CURVE SMOOTH",
"45 100 OFFCURVE",
"115 -10 OFFCURVE",
"255 -10 CURVE SMOOTH"
);
},
{
closed = 1;
nodes = (
"140 364 OFFCURVE",
"185 440 OFFCURVE",
"245 440 CURVE SMOOTH",
"316 440 OFFCURVE",
"350 376 OFFCURVE",
"350 260 CURVE",
"140 260 LINE"
);
}
);
width = 488;
},
{
layerId = "BAEEE752-CD63-427F-8763-260FDB7B8BAE";
paths = (
{
closed = 1;
nodes = (
"376 -10 OFFCURVE",
"427 50 OFFCURVE",
"456 95 CURVE",
"425 118 LINE",
"390 71 OFFCURVE",
"351 35 OFFCURVE",
"282 35 CURVE SMOOTH",
"217 35 OFFCURVE",
"172 85 OFFCURVE",
"172 217 CURVE",
"473 217 LINE",
"477 280 LINE",
"477 400 OFFCURVE",
"381 480 OFFCURVE",
"257 480 CURVE SMOOTH",
"133 480 OFFCURVE",
"37 395 OFFCURVE",
"37 235 CURVE SMOOTH",
"37 95 OFFCURVE",
"126 -10 OFFCURVE",
"267 -10 CURVE SMOOTH"
);
},
{
closed = 1;
nodes = (
"172 394 OFFCURVE",
"212 435 OFFCURVE",
"257 435 CURVE SMOOTH",
"307 435 OFFCURVE",
"342 394 OFFCURVE",
"342 262 CURVE",
"172 262 LINE"
);
}
);
width = 509;
}
);
leftKerningGroup = c;
rightKerningGroup = e;
unicode = 0065;
},
{
glyphname = f;
lastChange = "2016-03-24 04:27:42 +0000";
layers = (
{
layerId = UUID0;
paths = (
{
closed = 1;
nodes = (
"181 0 LINE",
"181 430 LINE",
"321 430 LINE",
"321 470 LINE",
"181 470 LINE",
"181 500 LINE SMOOTH",
"181 599 OFFCURVE",
"216 630 OFFCURVE",
"261 630 CURVE SMOOTH",
"304 630 OFFCURVE",
"336 615 OFFCURVE",
"356 585 CURVE",
"386 610 LINE",
"375 630 OFFCURVE",
"366 644 OFFCURVE",
"351 655 CURVE SMOOTH",
"336 665 OFFCURVE",
"307 670 OFFCURVE",
"266 670 CURVE SMOOTH",
"181 670 OFFCURVE",
"91 640 OFFCURVE",
"91 500 CURVE SMOOTH",
"91 470 LINE",
"21 470 LINE",
"21 430 LINE",
"91 430 LINE",
"91 0 LINE"
);
}
);
width = 337;
},
{
layerId = "BAEEE752-CD63-427F-8763-260FDB7B8BAE";
paths = (
{
closed = 1;
nodes = (
"202 0 LINE",
"202 425 LINE",
"332 425 LINE",
"332 470 LINE",
"202 470 LINE",
"202 497 LINE SMOOTH",
"202 594 OFFCURVE",
"227 625 OFFCURVE",
"272 625 CURVE SMOOTH",
"307 625 OFFCURVE",
"337 606 OFFCURVE",
"357 575 CURVE",
"397 610 LINE",
"388 629 OFFCURVE",
"375 643 OFFCURVE",
"358 653 CURVE SMOOTH",
"341 664 OFFCURVE",
"302 670 OFFCURVE",
"267 670 CURVE SMOOTH",
"136 670 OFFCURVE",
"72 610 OFFCURVE",
"72 497 CURVE SMOOTH",
"72 470 LINE",
"12 470 LINE",
"12 425 LINE",
"72 425 LINE",
"72 0 LINE"
);
}
);
width = 342;
}
);
unicode = 0066;
},
{
glyphname = g;
lastChange = "2016-03-24 04:28:25 +0000";
layers = (
{
layerId = UUID0;
paths = (
{
closed = 1;
nodes = (
"370 -200 OFFCURVE",
"466 -160 OFFCURVE",
"466 -45 CURVE SMOOTH",
"466 64 OFFCURVE",
"366 110 OFFCURVE",
"246 110 CURVE SMOOTH",
"176 110 OFFCURVE",
"141 122 OFFCURVE",
"141 145 CURVE SMOOTH",
"141 168 OFFCURVE",
"176 180 OFFCURVE",
"246 180 CURVE SMOOTH",
"351 180 OFFCURVE",
"436 215 OFFCURVE",
"436 330 CURVE SMOOTH",
"436 381 OFFCURVE",
"403 422 OFFCURVE",
"366 445 CURVE",
"431 455 LINE",
"431 480 LINE",
"246 480 LINE SMOOTH",
"141 480 OFFCURVE",
"56 445 OFFCURVE",
"56 330 CURVE SMOOTH",
"56 265 OFFCURVE",
"91 220 OFFCURVE",
"131 200 CURVE",
"116 189 OFFCURVE",
"96 176 OFFCURVE",
"96 145 CURVE SMOOTH",
"96 114 OFFCURVE",
"116 96 OFFCURVE",
"136 85 CURVE",
"76 65 OFFCURVE",
"26 20 OFFCURVE",
"26 -45 CURVE SMOOTH",
"26 -160 OFFCURVE",
"122 -200 OFFCURVE",
"246 -200 CURVE SMOOTH"
);
},
{
closed = 1;
nodes = (
"170 -160 OFFCURVE",
"116 -125 OFFCURVE",
"116 -45 CURVE SMOOTH",
"116 20 OFFCURVE",
"150 55 OFFCURVE",
"201 75 CURVE",
"256 70 LINE",
"336 60 OFFCURVE",
"376 22 OFFCURVE",
"376 -45 CURVE SMOOTH",
"376 -125 OFFCURVE",
"322 -160 OFFCURVE",
"246 -160 CURVE SMOOTH"
);
},
{
closed = 1;
nodes = (
"191 215 OFFCURVE",
"146 245 OFFCURVE",
"146 330 CURVE SMOOTH",
"146 415 OFFCURVE",
"191 445 OFFCURVE",
"246 445 CURVE SMOOTH",
"302 445 OFFCURVE",
"346 410 OFFCURVE",
"346 330 CURVE SMOOTH",
"346 245 OFFCURVE",
"301 215 OFFCURVE",
"246 215 CURVE SMOOTH"
);
}
);
width = 492;
},
{
layerId = "BAEEE752-CD63-427F-8763-260FDB7B8BAE";
paths = (
{
closed = 1;
nodes = (
"399 -200 OFFCURVE",
"504 -161 OFFCURVE",
"504 -45 CURVE SMOOTH",
"504 60 OFFCURVE",
"394 110 OFFCURVE",
"259 113 CURVE SMOOTH",
"199 114 OFFCURVE",
"159 117 OFFCURVE",
"159 140 CURVE SMOOTH",
"159 167 OFFCURVE",
"199 170 OFFCURVE",
"259 170 CURVE SMOOTH",
"389 170 OFFCURVE",
"474 209 OFFCURVE",
"474 324 CURVE SMOOTH",
"474 371 OFFCURVE",
"435 420 OFFCURVE",
"379 441 CURVE",
"469 453 LINE",
"469 480 LINE",
"259 480 LINE SMOOTH",
"139 480 OFFCURVE",
"44 440 OFFCURVE",
"44 324 CURVE SMOOTH",
"44 263 OFFCURVE",
"88 210 OFFCURVE",
"144 190 CURVE",
"117 179 OFFCURVE",
"104 163 OFFCURVE",
"104 140 CURVE SMOOTH",
"104 109 OFFCURVE",
"124 93 OFFCURVE",
"149 85 CURVE",
"85 69 OFFCURVE",
"14 27 OFFCURVE",
"14 -45 CURVE SMOOTH",
"14 -161 OFFCURVE",
"119 -200 OFFCURVE",
"259 -200 CURVE SMOOTH"
);
},
{
closed = 1;
nodes = (
"192 -155 OFFCURVE",
"149 -121 OFFCURVE",
"149 -45 CURVE SMOOTH",
"149 19 OFFCURVE",
"176 53 OFFCURVE",
"220 72 CURVE",
"267 67 LINE",
"328 55 OFFCURVE",
"369 15 OFFCURVE",
"369 -45 CURVE SMOOTH",
"369 -121 OFFCURVE",
"326 -155 OFFCURVE",
"259 -155 CURVE SMOOTH"
);
},
{
closed = 1;
nodes = (
"212 210 OFFCURVE",
"179 241 OFFCURVE",
"179 324 CURVE SMOOTH",
"179 405 OFFCURVE",
"212 440 OFFCURVE",
"259 440 CURVE SMOOTH",
"306 440 OFFCURVE",
"339 400 OFFCURVE",
"339 324 CURVE SMOOTH",
"339 241 OFFCURVE",
"306 210 OFFCURVE",
"259 210 CURVE SMOOTH"
);
}
);
width = 523;
}
);
leftKerningGroup = g;
rightKerningGroup = g;
unicode = 0067;
},
{
glyphname = h;
lastChange = "2016-03-24 04:28:50 +0000";
layers = (
{
layerId = UUID0;
paths = (
{
closed = 1;
nodes = (
"162 0 LINE",
"162 382 LINE",
"187 410 OFFCURVE",
"222 435 OFFCURVE",
"262 435 CURVE SMOOTH",
"317 435 OFFCURVE",
"372 400 OFFCURVE",
"372 300 CURVE SMOOTH",
"372 0 LINE",
"462 0 LINE",
"462 300 LINE SMOOTH",
"462 445 OFFCURVE",
"377 480 OFFCURVE",
"292 480 CURVE SMOOTH",
"232 480 OFFCURVE",
"187 455 OFFCURVE",
"162 430 CURVE",
"162 540 LINE SMOOTH",
"162 640 OFFCURVE",
"142 660 OFFCURVE",
"72 660 CURVE SMOOTH",
"-18 660 LINE",
"-18 640 LINE",
"2 640 LINE SMOOTH",
"62 640 OFFCURVE",
"72 600 OFFCURVE",
"72 540 CURVE SMOOTH",
"72 0 LINE"
);
}
);
width = 529;
},
{
layerId = "BAEEE752-CD63-427F-8763-260FDB7B8BAE";
paths = (
{
closed = 1;
nodes = (
"190 0 LINE",
"190 395 LINE",
"204 407 OFFCURVE",
"235 430 OFFCURVE",
"270 430 CURVE SMOOTH",
"317 430 OFFCURVE",
"360 395 OFFCURVE",
"360 292 CURVE SMOOTH",
"360 0 LINE",
"490 0 LINE",
"490 297 LINE SMOOTH",
"490 444 OFFCURVE",
"391 480 OFFCURVE",
"300 480 CURVE SMOOTH",
"255 480 OFFCURVE",
"212 459 OFFCURVE",
"190 442 CURVE",
"190 530 LINE SMOOTH",
"190 629 OFFCURVE",
"170 660 OFFCURVE",
"100 660 CURVE SMOOTH",
"-20 660 LINE",
"-20 630 LINE",
"-10 630 LINE SMOOTH",
"50 630 OFFCURVE",
"60 590 OFFCURVE",
"60 530 CURVE SMOOTH",
"60 0 LINE"
);
}
);
width = 544;
}
);
leftKerningGroup = b;
rightKerningGroup = h;
unicode = 0068;
},
{
glyphname = i;
lastChange = "2016-03-24 04:28:57 +0000";
layers = (
{
layerId = UUID0;
paths = (
{
closed = 1;
nodes = (
"177 0 LINE",
"177 350 LINE SMOOTH",
"177 450 OFFCURVE",
"157 470 OFFCURVE",
"87 470 CURVE SMOOTH",
"-3 470 LINE",
"-3 450 LINE",
"17 450 LINE SMOOTH",
"77 450 OFFCURVE",
"87 410 OFFCURVE",
"87 350 CURVE SMOOTH",
"87 0 LINE"
);
},
{
closed = 1;
nodes = (
"153 530 OFFCURVE",
"171 547 OFFCURVE",
"171 575 CURVE SMOOTH",
"171 610 OFFCURVE",
"146 639 OFFCURVE",
"115 639 CURVE SMOOTH",
"87 639 OFFCURVE",
"69 622 OFFCURVE",
"69 594 CURVE SMOOTH",
"69 559 OFFCURVE",
"94 530 OFFCURVE",
"125 530 CURVE SMOOTH"
);
}
);
width = 246;
},
{
layerId = "BAEEE752-CD63-427F-8763-260FDB7B8BAE";
paths = (
{
closed = 1;
nodes = (
"209 0 LINE",
"209 340 LINE SMOOTH",
"209 439 OFFCURVE",
"189 470 OFFCURVE",
"119 470 CURVE SMOOTH",
"-1 470 LINE",
"-1 440 LINE",
"9 440 LINE SMOOTH",
"69 440 OFFCURVE",
"79 400 OFFCURVE",
"79 340 CURVE SMOOTH",
"79 0 LINE"
);
},
{
closed = 1;
nodes = (
"175 524 OFFCURVE",
"199 545 OFFCURVE",
"199 580 CURVE SMOOTH",
"199 620 OFFCURVE",
"175 656 OFFCURVE",
"124 656 CURVE SMOOTH",
"93 656 OFFCURVE",
"69 635 OFFCURVE",
"69 600 CURVE SMOOTH",
"69 560 OFFCURVE",
"93 524 OFFCURVE",
"144 524 CURVE SMOOTH"
);
}
);
width = 267;
}
);
leftKerningGroup = i;
rightKerningGroup = i;
unicode = 0069;
},
{
glyphname = j;
lastChange = "2016-03-24 04:28:57 +0000";
layers = (
{
layerId = UUID0;
paths = (
{
closed = 1;
nodes = (
"137 -190 OFFCURVE",
"177 -125 OFFCURVE",
"177 25 CURVE SMOOTH",
"177 350 LINE SMOOTH",
"177 450 OFFCURVE",
"157 470 OFFCURVE",
"87 470 CURVE SMOOTH",
"-3 470 LINE",
"-3 450 LINE",
"17 450 LINE SMOOTH",
"77 450 OFFCURVE",
"87 410 OFFCURVE",
"87 350 CURVE SMOOTH",
"87 25 LINE SMOOTH",
"87 -96 OFFCURVE",
"57 -170 OFFCURVE",
"-8 -170 CURVE",
"-8 -190 LINE"
);
},
{
closed = 1;
nodes = (
"153 530 OFFCURVE",
"171 547 OFFCURVE",
"171 575 CURVE SMOOTH",
"171 610 OFFCURVE",
"146 639 OFFCURVE",
"115 639 CURVE SMOOTH",
"87 639 OFFCURVE",
"69 622 OFFCURVE",
"69 594 CURVE SMOOTH",
"69 559 OFFCURVE",
"94 530 OFFCURVE",
"125 530 CURVE SMOOTH"
);
}
);
width = 246;
},
{
layerId = "BAEEE752-CD63-427F-8763-260FDB7B8BAE";
paths = (
{
closed = 1;
nodes = (
"155 -190 OFFCURVE",
"209 -140 OFFCURVE",
"209 25 CURVE SMOOTH",
"209 340 LINE SMOOTH",
"209 439 OFFCURVE",
"189 470 OFFCURVE",
"119 470 CURVE SMOOTH",
"-1 470 LINE",
"-1 440 LINE",
"9 440 LINE SMOOTH",
"69 440 OFFCURVE",
"79 400 OFFCURVE",
"79 340 CURVE SMOOTH",
"79 25 LINE SMOOTH",
"79 -111 OFFCURVE",
"51 -154 OFFCURVE",
"-9 -165 CURVE",
"-9 -190 LINE"
);
},
{
closed = 1;
nodes = (
"175 524 OFFCURVE",
"199 545 OFFCURVE",
"199 580 CURVE SMOOTH",
"199 620 OFFCURVE",
"175 656 OFFCURVE",
"124 656 CURVE SMOOTH",
"93 656 OFFCURVE",
"69 635 OFFCURVE",
"69 600 CURVE SMOOTH",
"69 560 OFFCURVE",
"93 524 OFFCURVE",
"144 524 CURVE SMOOTH"
);
}
);
width = 267;
}
);
leftKerningGroup = i;
rightKerningGroup = i;
unicode = 006A;
},
{
glyphname = k;
lastChange = "2016-03-24 04:28:57 +0000";
layers = (
{
layerId = UUID0;
paths = (
{
closed = 1;
nodes = (
"447 -10 OFFCURVE",
"466 -5 OFFCURVE",
"477 0 CURVE",
"477 19 LINE",
"437 26 OFFCURVE",
"406 49 OFFCURVE",
"367 100 CURVE SMOOTH",
"242 260 LINE",
"352 400 LINE SMOOTH",
"377 431 OFFCURVE",
"412 445 OFFCURVE",
"447 445 CURVE",
"447 470 LINE",
"417 470 LINE SMOOTH",
"352 470 OFFCURVE",
"318 444 OFFCURVE",
"287 405 CURVE SMOOTH",
"162 245 LINE",
"162 540 LINE SMOOTH",
"162 640 OFFCURVE",
"142 660 OFFCURVE",
"72 660 CURVE SMOOTH",
"-18 660 LINE",
"-18 640 LINE",
"2 640 LINE SMOOTH",
"62 640 OFFCURVE",
"72 600 OFFCURVE",
"72 540 CURVE SMOOTH",
"72 0 LINE",
"162 0 LINE",
"162 230 LINE",
"282 70 LINE SMOOTH",
"327 10 OFFCURVE",
"376 -10 OFFCURVE",
"427 -10 CURVE SMOOTH"
);
}
);
width = 485;
},
{
layerId = "BAEEE752-CD63-427F-8763-260FDB7B8BAE";
paths = (
{
closed = 1;
nodes = (
"460 -10 OFFCURVE",
"493 -5 OFFCURVE",
"504 0 CURVE",
"504 24 LINE",
"476 31 OFFCURVE",
"446 53 OFFCURVE",
"411 100 CURVE SMOOTH",
"278 276 LINE",
"375 394 LINE SMOOTH",
"404 429 OFFCURVE",
"435 444 OFFCURVE",
"475 444 CURVE",
"475 470 LINE",
"455 470 LINE SMOOTH",
"384 470 OFFCURVE",
"352 442 OFFCURVE",
"311 393 CURVE SMOOTH",
"190 245 LINE",
"190 530 LINE SMOOTH",
"190 629 OFFCURVE",
"170 660 OFFCURVE",
"100 660 CURVE SMOOTH",
"-20 660 LINE",
"-20 630 LINE",
"-10 630 LINE SMOOTH",
"50 630 OFFCURVE",
"60 590 OFFCURVE",
"60 530 CURVE SMOOTH",
"60 0 LINE",
"190 0 LINE",
"190 196 LINE",
"286 70 LINE SMOOTH",
"330 10 OFFCURVE",
"379 -10 OFFCURVE",
"435 -10 CURVE SMOOTH"
);
}
);
width = 505;
}
);
leftKerningGroup = b;
unicode = 006B;
},
{
glyphname = l;
lastChange = "2016-03-24 04:28:57 +0000";
layers = (
{
layerId = UUID0;
paths = (
{
closed = 1;
nodes = (
"166 0 LINE",
"166 540 LINE SMOOTH",
"166 640 OFFCURVE",
"146 660 OFFCURVE",
"76 660 CURVE SMOOTH",
"-14 660 LINE",
"-14 640 LINE",
"6 640 LINE SMOOTH",
"66 640 OFFCURVE",
"76 600 OFFCURVE",
"76 540 CURVE SMOOTH",
"76 0 LINE"
);
}
);
width = 242;
},
{
layerId = "BAEEE752-CD63-427F-8763-260FDB7B8BAE";
paths = (
{
closed = 1;
nodes = (
"194 0 LINE",
"194 530 LINE SMOOTH",
"194 629 OFFCURVE",
"174 660 OFFCURVE",
"104 660 CURVE SMOOTH",
"-16 660 LINE",
"-16 630 LINE",
"-6 630 LINE SMOOTH",
"54 630 OFFCURVE",
"64 590 OFFCURVE",
"64 530 CURVE SMOOTH",
"64 0 LINE"
);
}
);
width = 258;
}
);
unicode = 006C;
},
{
glyphname = m;
lastChange = "2016-03-24 04:57:05 +0000";
layers = (
{
layerId = UUID0;
paths = (
{
closed = 1;
nodes = (
"177 0 LINE",
"177 382 LINE",
"202 410 OFFCURVE",
"237 435 OFFCURVE",
"277 435 CURVE SMOOTH",
"328 435 OFFCURVE",
"357 400 OFFCURVE",
"357 300 CURVE SMOOTH",
"357 0 LINE",
"447 0 LINE",
"447 300 LINE SMOOTH",
"447 320 OFFCURVE",
"447 355 OFFCURVE",
"442 370 CURVE",
"461 400 OFFCURVE",
"508 435 OFFCURVE",
"547 435 CURVE SMOOTH",
"598 435 OFFCURVE",
"627 400 OFFCURVE",
"627 300 CURVE SMOOTH",
"627 0 LINE",
"717 0 LINE",
"717 300 LINE SMOOTH",
"717 445 OFFCURVE",
"652 480 OFFCURVE",
"577 480 CURVE SMOOTH",
"521 480 OFFCURVE",
"462 455 OFFCURVE",
"427 410 CURVE",
"402 466 OFFCURVE",
"358 480 OFFCURVE",
"307 480 CURVE SMOOTH",
"247 480 OFFCURVE",
"202 455 OFFCURVE",
"177 430 CURVE",
"172 430 LINE",
"161 455 OFFCURVE",
"138 470 OFFCURVE",
"87 470 CURVE SMOOTH",
"-3 470 LINE",
"-3 450 LINE",
"17 450 LINE SMOOTH",
"77 450 OFFCURVE",
"87 410 OFFCURVE",
"87 350 CURVE SMOOTH",
"87 0 LINE"
);
}
);
width = 785;
},
{
layerId = "BAEEE752-CD63-427F-8763-260FDB7B8BAE";
paths = (
{
closed = 1;
nodes = (
"210 0 LINE",
"210 398 LINE",
"226 413 OFFCURVE",
"254 430 OFFCURVE",
"280 430 CURVE SMOOTH",
"325 430 OFFCURVE",
"360 394 OFFCURVE",
"360 297 CURVE SMOOTH",
"360 0 LINE",
"490 0 LINE",
"490 296 LINE SMOOTH",
"490 336 OFFCURVE",
"484 372 OFFCURVE",
"474 392 CURVE",
"491 413 OFFCURVE",
"523 430 OFFCURVE",
"560 430 CURVE SMOOTH",
"605 430 OFFCURVE",
"640 394 OFFCURVE",
"640 297 CURVE SMOOTH",
"640 0 LINE",
"770 0 LINE",
"770 296 LINE SMOOTH",
"770 425 OFFCURVE",
"706 480 OFFCURVE",
"595 480 CURVE SMOOTH",
"518 480 OFFCURVE",
"480 452 OFFCURVE",
"453 423 CURVE",
"438 441 OFFCURVE",
"390 480 OFFCURVE",
"315 480 CURVE SMOOTH",
"255 480 OFFCURVE",
"213 453 OFFCURVE",
"189 432 CURVE",
"185 432 LINE",
"170 460 OFFCURVE",
"140 470 OFFCURVE",
"100 470 CURVE SMOOTH",
"1 470 LINE",
"1 440 LINE",
"11 440 LINE SMOOTH",
"71 440 OFFCURVE",
"80 400 OFFCURVE",
"80 340 CURVE SMOOTH",
"80 0 LINE"
);
}
);
width = 826;
}
);
leftKerningGroup = m;
rightKerningGroup = h;
unicode = 006D;
},
{
glyphname = n;
lastChange = "2016-03-24 04:56:30 +0000";
layers = (
{
layerId = UUID0;
paths = (
{
closed = 1;
nodes = (
"177 0 LINE",
"177 382 LINE",
"202 410 OFFCURVE",
"237 435 OFFCURVE",
"277 435 CURVE SMOOTH",
"332 435 OFFCURVE",
"387 400 OFFCURVE",
"387 300 CURVE SMOOTH",
"387 0 LINE",
"477 0 LINE",
"477 300 LINE SMOOTH",
"477 445 OFFCURVE",
"392 480 OFFCURVE",
"307 480 CURVE SMOOTH",
"247 480 OFFCURVE",
"199 452 OFFCURVE",
"172 430 CURVE",
"161 455 OFFCURVE",
"138 470 OFFCURVE",
"87 470 CURVE SMOOTH",
"-3 470 LINE",
"-3 450 LINE",
"17 450 LINE SMOOTH",
"77 450 OFFCURVE",
"87 410 OFFCURVE",
"87 350 CURVE SMOOTH",
"87 0 LINE"
);
}
);
width = 544;
},
{
layerId = "BAEEE752-CD63-427F-8763-260FDB7B8BAE";
paths = (
{
closed = 1;
nodes = (
"210 0 LINE",
"210 405 LINE",
"228 419 OFFCURVE",
"257 430 OFFCURVE",
"295 430 CURVE SMOOTH",
"350 430 OFFCURVE",
"390 394 OFFCURVE",
"390 297 CURVE SMOOTH",
"390 0 LINE",
"520 0 LINE",
"520 296 LINE SMOOTH",
"520 425 OFFCURVE",
"455 480 OFFCURVE",
"330 480 CURVE SMOOTH",
"248 480 OFFCURVE",
"208 455 OFFCURVE",
"184 433 CURVE",
"169 460 OFFCURVE",
"145 470 OFFCURVE",
"100 470 CURVE SMOOTH",
"1 470 LINE",
"1 440 LINE",
"11 440 LINE SMOOTH",
"71 440 OFFCURVE",
"80 400 OFFCURVE",
"80 340 CURVE SMOOTH",
"80 0 LINE"
);
}
);
width = 575;
}
);
leftKerningGroup = m;
rightKerningGroup = h;
unicode = 006E;
},
{
glyphname = o;
lastChange = "2016-03-24 04:52:09 +0000";
layers = (
{
layerId = UUID0;
paths = (
{
closed = 1;
nodes = (
"405 -10 OFFCURVE",
"485 100 OFFCURVE",
"485 235 CURVE SMOOTH",
"485 370 OFFCURVE",
"405 480 OFFCURVE",
"265 480 CURVE SMOOTH",
"125 480 OFFCURVE",
"45 370 OFFCURVE",
"45 235 CURVE SMOOTH",
"45 100 OFFCURVE",
"125 -10 OFFCURVE",
"265 -10 CURVE SMOOTH"
);
},
{
closed = 1;
nodes = (
"190 30 OFFCURVE",
"140 120 OFFCURVE",
"140 235 CURVE SMOOTH",
"140 350 OFFCURVE",
"190 440 OFFCURVE",
"265 440 CURVE SMOOTH",
"340 440 OFFCURVE",
"390 350 OFFCURVE",
"390 235 CURVE SMOOTH",
"390 120 OFFCURVE",
"340 30 OFFCURVE",
"265 30 CURVE SMOOTH"
);
}
);
width = 530;
},
{
layerId = "BAEEE752-CD63-427F-8763-260FDB7B8BAE";
paths = (
{
closed = 1;
nodes = (
"425 -10 OFFCURVE",
"516 98 OFFCURVE",
"516 235 CURVE SMOOTH",
"516 372 OFFCURVE",
"425 480 OFFCURVE",
"276 480 CURVE SMOOTH",
"127 480 OFFCURVE",
"36 372 OFFCURVE",
"36 235 CURVE SMOOTH",
"36 98 OFFCURVE",
"127 -10 OFFCURVE",
"276 -10 CURVE SMOOTH"
);
},
{
closed = 1;
nodes = (
"206 35 OFFCURVE",
"171 120 OFFCURVE",
"171 235 CURVE SMOOTH",
"171 350 OFFCURVE",
"206 435 OFFCURVE",
"276 435 CURVE SMOOTH",
"346 435 OFFCURVE",
"381 350 OFFCURVE",
"381 235 CURVE SMOOTH",
"381 120 OFFCURVE",
"346 35 OFFCURVE",
"276 35 CURVE SMOOTH"
);
}
);
width = 552;
}
);
leftKerningGroup = c;
rightKerningGroup = b;
unicode = 006F;
},
{
glyphname = p;
lastChange = "2016-03-24 04:56:01 +0000";
layers = (
{
layerId = UUID0;
paths = (
{
closed = 1;
nodes = (
"177 -190 LINE",
"177 20 LINE",
"208 5 OFFCURVE",
"246 -10 OFFCURVE",
"302 -10 CURVE SMOOTH",
"432 -10 OFFCURVE",
"492 100 OFFCURVE",
"492 235 CURVE SMOOTH",
"492 370 OFFCURVE",
"431 480 OFFCURVE",
"312 480 CURVE SMOOTH",
"242 480 OFFCURVE",
"198 451 OFFCURVE",
"172 425 CURVE",
"161 456 OFFCURVE",
"138 470 OFFCURVE",
"87 470 CURVE SMOOTH",
"-3 470 LINE",
"-3 450 LINE",
"17 450 LINE SMOOTH",
"77 450 OFFCURVE",
"87 410 OFFCURVE",
"87 350 CURVE SMOOTH",
"87 -190 LINE"
);
},
{
closed = 1;
nodes = (
"241 30 OFFCURVE",
"208 45 OFFCURVE",
"177 60 CURVE",
"177 380 LINE",
"196 410 OFFCURVE",
"227 440 OFFCURVE",
"282 440 CURVE SMOOTH",
"362 440 OFFCURVE",
"397 350 OFFCURVE",
"397 235 CURVE SMOOTH",
"397 120 OFFCURVE",
"362 30 OFFCURVE",
"272 30 CURVE SMOOTH"
);
}
);
width = 538;
},
{
layerId = "BAEEE752-CD63-427F-8763-260FDB7B8BAE";
paths = (
{
closed = 1;
nodes = (
"210 -190 LINE",
"210 20 LINE",
"230 5 OFFCURVE",
"271 -10 OFFCURVE",
"315 -10 CURVE SMOOTH",
"460 -10 OFFCURVE",
"530 98 OFFCURVE",
"530 235 CURVE SMOOTH",
"530 372 OFFCURVE",
"460 480 OFFCURVE",
"320 480 CURVE SMOOTH",
"250 480 OFFCURVE",
"208 449 OFFCURVE",
"184 428 CURVE",
"169 460 OFFCURVE",
"145 470 OFFCURVE",
"100 470 CURVE SMOOTH",
"1 470 LINE",
"1 440 LINE",
"11 440 LINE SMOOTH",
"71 440 OFFCURVE",
"80 400 OFFCURVE",
"80 340 CURVE SMOOTH",
"80 -190 LINE"
);
},
{
closed = 1;
nodes = (
"261 35 OFFCURVE",
"226 51 OFFCURVE",
"210 65 CURVE",
"210 401 LINE",
"228 417 OFFCURVE",
"255 435 OFFCURVE",
"300 435 CURVE SMOOTH",
"369 435 OFFCURVE",
"395 350 OFFCURVE",
"395 235 CURVE SMOOTH",
"395 120 OFFCURVE",
"370 35 OFFCURVE",
"295 35 CURVE SMOOTH"
);
}
);
width = 567;
}
);
leftKerningGroup = m;
rightKerningGroup = b;
unicode = 0070;
},
{
glyphname = q;
lastChange = "2016-03-24 04:55:00 +0000";
layers = (
{
layerId = UUID0;
paths = (
{
closed = 1;
nodes = (
"452 -190 LINE",
"452 470 LINE",
"402 470 LINE",
"367 425 LINE",
"362 425 LINE",
"342 450 OFFCURVE",
"302 480 OFFCURVE",
"227 480 CURVE SMOOTH",
"106 480 OFFCURVE",
"47 370 OFFCURVE",
"47 235 CURVE SMOOTH",
"47 100 OFFCURVE",
"107 -10 OFFCURVE",
"237 -10 CURVE SMOOTH",
"293 -10 OFFCURVE",
"331 5 OFFCURVE",
"362 20 CURVE",
"362 -190 LINE"
);
},
{
closed = 1;
nodes = (
"177 30 OFFCURVE",
"142 120 OFFCURVE",
"142 235 CURVE SMOOTH",
"142 350 OFFCURVE",
"177 440 OFFCURVE",
"257 440 CURVE SMOOTH",
"313 440 OFFCURVE",
"340 410 OFFCURVE",
"362 380 CURVE",
"362 60 LINE",
"331 45 OFFCURVE",
"298 30 OFFCURVE",
"267 30 CURVE SMOOTH"
);
}
);
width = 524;
},
{
layerId = "BAEEE752-CD63-427F-8763-260FDB7B8BAE";
paths = (
{
closed = 1;
nodes = (
"487 -190 LINE",
"487 470 LINE",
"402 470 LINE",
"367 425 LINE",
"362 425 LINE",
"346 449 OFFCURVE",
"305 480 OFFCURVE",
"247 480 CURVE SMOOTH",
"107 480 OFFCURVE",
"37 372 OFFCURVE",
"37 235 CURVE SMOOTH",
"37 98 OFFCURVE",
"107 -10 OFFCURVE",
"252 -10 CURVE SMOOTH",
"295 -10 OFFCURVE",
"337 5 OFFCURVE",
"357 20 CURVE",
"357 -190 LINE"
);
},
{
closed = 1;
nodes = (
"197 35 OFFCURVE",
"172 120 OFFCURVE",
"172 235 CURVE SMOOTH",
"172 350 OFFCURVE",
"197 435 OFFCURVE",
"267 435 CURVE SMOOTH",
"312 435 OFFCURVE",
"341 397 OFFCURVE",
"357 370 CURVE",
"357 65 LINE",
"341 51 OFFCURVE",
"307 35 OFFCURVE",
"272 35 CURVE SMOOTH"
);
}
);
width = 547;
}
);
leftKerningGroup = c;
rightKerningGroup = q;
unicode = 0071;
},
{
glyphname = r;
lastChange = "2016-03-24 04:32:30 +0000";
layers = (
{
layerId = UUID0;
paths = (
{
closed = 1;
nodes = (
"170 0 LINE",
"170 340 LINE SMOOTH",
"170 348 OFFCURVE",
"170 363 OFFCURVE",
"170 370 CURVE",
"190 401 OFFCURVE",
"225 420 OFFCURVE",
"265 420 CURVE SMOOTH",
"300 420 OFFCURVE",
"330 410 OFFCURVE",
"345 390 CURVE",
"385 420 LINE",
"374 440 OFFCURVE",
"365 454 OFFCURVE",
"350 465 CURVE SMOOTH",
"335 476 OFFCURVE",
"310 480 OFFCURVE",
"290 480 CURVE SMOOTH",
"232 480 OFFCURVE",
"188 448 OFFCURVE",
"165 425 CURVE",
"154 456 OFFCURVE",
"131 470 OFFCURVE",
"80 470 CURVE SMOOTH",
"0 470 LINE",
"0 450 LINE",
"10 450 LINE SMOOTH",
"70 450 OFFCURVE",
"80 410 OFFCURVE",
"80 350 CURVE SMOOTH",
"80 0 LINE"
);
}
);
width = 397;
},
{
layerId = "BAEEE752-CD63-427F-8763-260FDB7B8BAE";
paths = (
{
closed = 1;
nodes = (
"210 0 LINE",
"210 336 LINE SMOOTH",
"210 347 OFFCURVE",
"209 360 OFFCURVE",
"206 384 CURVE",
"223 401 OFFCURVE",
"252 415 OFFCURVE",
"295 415 CURVE SMOOTH",
"328 415 OFFCURVE",
"352 393 OFFCURVE",
"364 376 CURVE",
"415 415 LINE",
"415 414 OFFCURVE",
"404 444 OFFCURVE",
"381 460 CURVE SMOOTH",
"363 473 OFFCURVE",
"339 480 OFFCURVE",
"310 480 CURVE SMOOTH",
"250 480 OFFCURVE",
"208 454 OFFCURVE",
"184 433 CURVE",
"169 460 OFFCURVE",
"145 470 OFFCURVE",
"100 470 CURVE SMOOTH",
"1 470 LINE",
"1 440 LINE",
"11 440 LINE SMOOTH",
"71 440 OFFCURVE",
"80 400 OFFCURVE",
"80 340 CURVE SMOOTH",
"80 0 LINE"
);
}
);
width = 418;
}
);
leftKerningGroup = m;
unicode = 0072;
},
{
glyphname = s;
lastChange = "2016-03-24 04:30:26 +0000";
layers = (
{
layerId = UUID0;
paths = (
{
closed = 1;
nodes = (
"329 -10 OFFCURVE",
"404 36 OFFCURVE",
"404 120 CURVE SMOOTH",
"404 189 OFFCURVE",
"359 225 OFFCURVE",
"274 260 CURVE SMOOTH",
"214 285 LINE SMOOTH",
"163 306 OFFCURVE",
"134 335 OFFCURVE",
"134 370 CURVE SMOOTH",
"134 410 OFFCURVE",
"169 440 OFFCURVE",
"234 440 CURVE SMOOTH",
"314 440 OFFCURVE",
"358 400 OFFCURVE",
"369 335 CURVE",
"389 335 LINE",
"389 386 OFFCURVE",
"389 415 OFFCURVE",
"364 440 CURVE SMOOTH",
"339 465 OFFCURVE",
"290 480 OFFCURVE",
"214 480 CURVE SMOOTH",
"119 480 OFFCURVE",
"49 434 OFFCURVE",
"49 350 CURVE SMOOTH",
"49 285 OFFCURVE",
"93 246 OFFCURVE",
"169 215 CURVE SMOOTH",
"229 190 LINE SMOOTH",
"289 165 OFFCURVE",
"319 140 OFFCURVE",
"319 100 CURVE SMOOTH",
"319 60 OFFCURVE",
"285 30 OFFCURVE",
"209 30 CURVE SMOOTH",
"124 30 OFFCURVE",
"80 70 OFFCURVE",
"69 135 CURVE",
"49 135 LINE",
"49 84 OFFCURVE",
"49 55 OFFCURVE",
"74 30 CURVE SMOOTH",
"99 5 OFFCURVE",
"149 -10 OFFCURVE",
"229 -10 CURVE SMOOTH"
);
}
);
width = 446;
},
{
layerId = "BAEEE752-CD63-427F-8763-260FDB7B8BAE";
paths = (
{
closed = 1;
nodes = (
"348 -10 OFFCURVE",
"434 36 OFFCURVE",
"434 123 CURVE SMOOTH",
"434 194 OFFCURVE",
"387 229 OFFCURVE",
"295 268 CURVE SMOOTH",
"235 293 LINE SMOOTH",
"191 312 OFFCURVE",
"164 331 OFFCURVE",
"164 367 CURVE SMOOTH",
"164 406 OFFCURVE",
"189 435 OFFCURVE",
"249 435 CURVE SMOOTH",
"329 435 OFFCURVE",
"368 384 OFFCURVE",
"379 320 CURVE",
"414 320 LINE",
"414 371 OFFCURVE",
"414 416 OFFCURVE",
"390 439 CURVE SMOOTH",
"363 464 OFFCURVE",
"312 480 OFFCURVE",
"229 480 CURVE SMOOTH",
"119 480 OFFCURVE",
"39 434 OFFCURVE",
"39 347 CURVE SMOOTH",
"39 282 OFFCURVE",
"87 241 OFFCURVE",
"167 206 CURVE SMOOTH",
"219 184 LINE SMOOTH",
"270 161 OFFCURVE",
"309 142 OFFCURVE",
"309 103 CURVE SMOOTH",
"309 64 OFFCURVE",
"284 35 OFFCURVE",
"209 35 CURVE SMOOTH",
"129 35 OFFCURVE",
"90 86 OFFCURVE",
"79 150 CURVE",
"44 150 LINE",
"44 99 OFFCURVE",
"44 54 OFFCURVE",
"68 31 CURVE SMOOTH",
"95 6 OFFCURVE",
"146 -10 OFFCURVE",
"229 -10 CURVE SMOOTH"
);
}
);
width = 468;
}
);
leftKerningGroup = s;
rightKerningGroup = s;
unicode = 0073;
},
{
glyphname = t;
lastChange = "2016-03-24 04:32:38 +0000";
layers = (
{
layerId = UUID0;
paths = (
{
closed = 1;
nodes = (
"281 -10 OFFCURVE",
"315 14 OFFCURVE",
"336 30 CURVE",
"326 50 LINE",
"306 39 OFFCURVE",
"286 30 OFFCURVE",
"251 30 CURVE SMOOTH",
"204 30 OFFCURVE",
"181 60 OFFCURVE",
"181 120 CURVE SMOOTH",
"181 430 LINE",
"301 430 LINE",
"301 470 LINE",
"181 470 LINE",
"181 620 LINE",
"141 620 LINE",
"91 560 LINE",
"91 470 LINE",
"21 470 LINE",
"21 430 LINE",
"91 430 LINE",
"91 120 LINE SMOOTH",
"91 29 OFFCURVE",
"140 -10 OFFCURVE",
"211 -10 CURVE SMOOTH"
);
}
);
width = 338;
},
{
layerId = "BAEEE752-CD63-427F-8763-260FDB7B8BAE";
paths = (
{
closed = 1;
nodes = (
"287 -10 OFFCURVE",
"329 10 OFFCURVE",
"356 34 CURVE",
"342 62 LINE",
"325 50 OFFCURVE",
"298 35 OFFCURVE",
"263 35 CURVE SMOOTH",
"230 35 OFFCURVE",
"211 55 OFFCURVE",
"211 130 CURVE SMOOTH",
"211 425 LINE",
"321 425 LINE",
"321 470 LINE",
"211 470 LINE",
"211 620 LINE",
"131 620 LINE",
"81 560 LINE",
"81 470 LINE",
"21 470 LINE",
"21 425 LINE",
"81 425 LINE",
"81 136 LINE SMOOTH",
"81 40 OFFCURVE",
"135 -10 OFFCURVE",
"226 -10 CURVE SMOOTH"
);
}
);
width = 354;
}
);
unicode = 0074;
},
{
glyphname = u;
lastChange = "2016-03-24 04:32:44 +0000";
layers = (
{
layerId = UUID0;
paths = (
{
closed = 1;
nodes = (
"303 -10 OFFCURVE",
"348 15 OFFCURVE",
"373 40 CURVE",
"378 40 LINE",
"413 0 LINE",
"463 0 LINE",
"463 470 LINE",
"373 470 LINE",
"373 88 LINE",
"348 60 OFFCURVE",
"313 35 OFFCURVE",
"273 35 CURVE SMOOTH",
"218 35 OFFCURVE",
"163 70 OFFCURVE",
"163 170 CURVE SMOOTH",
"163 350 LINE SMOOTH",
"163 450 OFFCURVE",
"143 470 OFFCURVE",
"73 470 CURVE SMOOTH",
"-7 470 LINE",
"-7 450 LINE",
"3 450 LINE SMOOTH",
"63 450 OFFCURVE",
"73 410 OFFCURVE",
"73 350 CURVE SMOOTH",
"73 170 LINE SMOOTH",
"73 25 OFFCURVE",
"158 -10 OFFCURVE",
"243 -10 CURVE SMOOTH"
);
}
);
width = 535;
},
{
layerId = "BAEEE752-CD63-427F-8763-260FDB7B8BAE";
paths = (
{
closed = 1;
nodes = (
"313 -10 OFFCURVE",
"354 17 OFFCURVE",
"380 45 CURVE",
"385 45 LINE",
"420 0 LINE",
"505 0 LINE",
"505 470 LINE",
"375 470 LINE",
"375 100 LINE",
"362 75 OFFCURVE",
"333 35 OFFCURVE",
"285 35 CURVE SMOOTH",
"230 35 OFFCURVE",
"200 70 OFFCURVE",
"200 173 CURVE SMOOTH",
"200 340 LINE SMOOTH",
"200 439 OFFCURVE",
"180 470 OFFCURVE",
"110 470 CURVE SMOOTH",
"-10 470 LINE",
"-10 440 LINE",
"0 440 LINE SMOOTH",
"60 440 OFFCURVE",
"70 400 OFFCURVE",
"70 340 CURVE SMOOTH",
"70 174 LINE SMOOTH",
"70 45 OFFCURVE",
"130 -10 OFFCURVE",
"255 -10 CURVE SMOOTH"
);
}
);
width = 565;
}
);
leftKerningGroup = u;
rightKerningGroup = q;
unicode = 0075;
},
{
glyphname = v;
lastChange = "2016-03-24 04:30:26 +0000";
layers = (
{
layerId = UUID0;
paths = (
{
closed = 1;
nodes = (
"274 -10 LINE",
"479 470 LINE",
"429 470 LINE",
"289 140 LINE",
"199 355 LINE",
"154 459 OFFCURVE",
"90 480 OFFCURVE",
"29 480 CURVE SMOOTH",
"20 480 OFFCURVE",
"0 478 OFFCURVE",
"-5 478 CURVE",
"-5 458 LINE",
"43 455 OFFCURVE",
"67 429 OFFCURVE",
"99 355 CURVE SMOOTH",
"254 -10 LINE"
);
}
);
width = 497;
},
{
layerId = "BAEEE752-CD63-427F-8763-260FDB7B8BAE";
paths = (
{
closed = 1;
nodes = (
"282 -10 LINE",
"495 470 LINE",
"441 470 LINE",
"305 163 LINE",
"217 355 LINE SMOOTH",
"169 459 OFFCURVE",
"105 480 OFFCURVE",
"25 480 CURVE SMOOTH",
"16 480 OFFCURVE",
"-7 478 OFFCURVE",
"-12 478 CURVE",
"-12 458 LINE",
"21 455 OFFCURVE",
"42 428 OFFCURVE",
"77 355 CURVE SMOOTH",
"246 -10 LINE"
);
}
);
width = 500;
}
);
unicode = 0076;
},
{
glyphname = w;
lastChange = "2016-03-24 04:32:52 +0000";
layers = (
{
layerId = UUID0;
paths = (
{
closed = 1;
nodes = (
"265 -10 LINE",
"390 300 LINE",
"515 -10 LINE",
"535 -10 LINE",
"730 470 LINE",
"680 470 LINE",
"550 145 LINE",
"465 355 LINE SMOOTH",
"425 455 OFFCURVE",
"365 480 OFFCURVE",
"300 480 CURVE SMOOTH",
"291 480 OFFCURVE",
"270 478 OFFCURVE",
"265 478 CURVE",
"265 458 LINE",
"310 455 OFFCURVE",
"334 429 OFFCURVE",
"365 360 CURVE",
"280 145 LINE",
"195 355 LINE SMOOTH",
"155 455 OFFCURVE",
"95 480 OFFCURVE",
"30 480 CURVE SMOOTH",
"21 480 OFFCURVE",
"0 478 OFFCURVE",
"-5 478 CURVE",
"-5 458 LINE",
"44 455 OFFCURVE",
"69 430 OFFCURVE",
"100 355 CURVE",
"245 -10 LINE"
);
}
);
width = 749;
},
{
layerId = "BAEEE752-CD63-427F-8763-260FDB7B8BAE";
paths = (
{
closed = 1;
nodes = (
"287 -10 LINE",
"403 271 LINE",
"533 -10 LINE",
"579 -10 LINE",
"763 470 LINE",
"710 470 LINE",
"588 154 LINE",
"496 355 LINE SMOOTH",
"451 453 OFFCURVE",
"389 480 OFFCURVE",
"304 480 CURVE SMOOTH",
"295 480 OFFCURVE",
"271 478 OFFCURVE",
"266 478 CURVE",
"266 459 LINE",
"299 456 OFFCURVE",
"321 429 OFFCURVE",
"368 324 CURVE",
"301 164 LINE",
"216 355 LINE SMOOTH",
"171 453 OFFCURVE",
"119 480 OFFCURVE",
"34 480 CURVE SMOOTH",
"25 480 OFFCURVE",
"-9 478 OFFCURVE",
"-14 478 CURVE",
"-14 459 LINE",
"21 456 OFFCURVE",
"46 430 OFFCURVE",
"79 355 CURVE SMOOTH",
"242 -10 LINE"
);
}
);
width = 775;
}
);
unicode = 0077;
},
{
glyphname = x;
lastChange = "2016-03-24 04:30:26 +0000";
layers = (
{
layerId = UUID0;
paths = (
{
closed = 1;
nodes = (
"88 0 LINE",
"218 185 LINE",
"280 80 LINE SMOOTH",
"309 31 OFFCURVE",
"348 0 OFFCURVE",
"393 0 CURVE SMOOTH",
"483 0 LINE",
"483 20 LINE",
"439 25 OFFCURVE",
"403 51 OFFCURVE",
"375 100 CURVE",
"288 245 LINE",
"448 470 LINE",
"398 470 LINE",
"268 285 LINE",
"206 390 LINE SMOOTH",
"177 439 OFFCURVE",
"138 470 OFFCURVE",
"93 470 CURVE SMOOTH",
"8 470 LINE",
"8 450 LINE",
"49 445 OFFCURVE",
"83 418 OFFCURVE",
"111 370 CURVE SMOOTH",
"198 225 LINE",
"38 0 LINE"
);
}
);
width = 488;
},
{
layerId = "BAEEE752-CD63-427F-8763-260FDB7B8BAE";
paths = (
{
closed = 1;
nodes = (
"90 0 LINE",
"221 161 LINE",
"270 80 LINE SMOOTH",
"299 31 OFFCURVE",
"333 0 OFFCURVE",
"398 0 CURVE SMOOTH",
"493 0 LINE",
"493 20 LINE",
"462 25 OFFCURVE",
"428 52 OFFCURVE",
"400 100 CURVE SMOOTH",
"303 262 LINE",
"472 470 LINE",
"405 470 LINE",
"274 309 LINE",
"226 390 LINE SMOOTH",
"197 439 OFFCURVE",
"163 470 OFFCURVE",
"98 470 CURVE SMOOTH",
"3 470 LINE",
"3 450 LINE",
"34 445 OFFCURVE",
"68 418 OFFCURVE",
"96 370 CURVE SMOOTH",
"192 209 LINE",
"23 0 LINE"
);
}
);
width = 496;
}
);
unicode = 0078;
},
{
glyphname = y;
lastChange = "2016-03-24 04:30:26 +0000";
layers = (
{
layerId = UUID0;
paths = (
{
closed = 1;
nodes = (
"135 -200 LINE SMOOTH",
"205 -200 OFFCURVE",
"250 -175 OFFCURVE",
"290 -65 CURVE SMOOTH",
"485 470 LINE",
"435 470 LINE",
"309 123 LINE",
"195 400 LINE SMOOTH",
"174 451 OFFCURVE",
"135 480 OFFCURVE",
"75 480 CURVE SMOOTH",
"-10 480 LINE",
"-10 460 LINE",
"41 455 OFFCURVE",
"80 431 OFFCURVE",
"100 380 CURVE",
"260 -10 LINE",
"240 -65 LINE SMOOTH",
"208 -150 OFFCURVE",
"166 -170 OFFCURVE",
"105 -170 CURVE",
"105 -200 LINE"
);
}
);
width = 514;
},
{
layerId = "BAEEE752-CD63-427F-8763-260FDB7B8BAE";
paths = (
{
closed = 1;
nodes = (
"132 -200 LINE SMOOTH",
"201 -200 OFFCURVE",
"250 -174 OFFCURVE",
"290 -65 CURVE SMOOTH",
"492 470 LINE",
"439 470 LINE",
"317 148 LINE",
"202 400 LINE SMOOTH",
"179 449 OFFCURVE",
"132 480 OFFCURVE",
"72 480 CURVE SMOOTH",
"-16 480 LINE",
"-16 460 LINE",
"24 455 OFFCURVE",
"55 429 OFFCURVE",
"77 380 CURVE SMOOTH",
"257 -14 LINE",
"236 -68 LINE SMOOTH",
"207 -144 OFFCURVE",
"161 -165 OFFCURVE",
"92 -165 CURVE",
"92 -200 LINE"
);
}
);
width = 509;
}
);
leftKerningGroup = y;
rightKerningGroup = y;
unicode = 0079;
},
{
glyphname = z;
lastChange = "2016-03-24 04:30:26 +0000";
layers = (
{
layerId = UUID0;
paths = (
{
closed = 1;
nodes = (
"434 0 LINE",
"434 40 LINE",
"164 40 LINE",
"434 470 LINE",
"129 470 LINE SMOOTH",
"60 470 OFFCURVE",
"44 430 OFFCURVE",
"44 390 CURVE SMOOTH",
"44 340 LINE",
"64 340 LINE",
"64 396 OFFCURVE",
"104 430 OFFCURVE",
"189 430 CURVE SMOOTH",
"304 430 LINE",
"44 19 LINE",
"44 0 LINE"
);
}
);
width = 466;
},
{
layerId = "BAEEE752-CD63-427F-8763-260FDB7B8BAE";
paths = (
{
closed = 1;
nodes = (
"459 0 LINE",
"459 45 LINE",
"196 45 LINE",
"480 470 LINE",
"124 470 LINE SMOOTH",
"55 470 OFFCURVE",
"39 430 OFFCURVE",
"39 390 CURVE SMOOTH",
"39 330 LINE",
"69 330 LINE",
"69 395 OFFCURVE",
"99 425 OFFCURVE",
"184 425 CURVE SMOOTH",
"302 425 LINE",
"39 31 LINE",
"39 0 LINE"
);
}
);
width = 493;
}
);
leftKerningGroup = z;
rightKerningGroup = z;
unicode = 007A;
},
{
glyphname = braceleft;
lastChange = "2016-03-24 04:20:58 +0000";
layers = (
{
layerId = UUID0;
paths = (
{
closed = 1;
nodes = (
"276 -180 LINE",
"207 -161 OFFCURVE",
"191 -129 OFFCURVE",
"191 -70 CURVE SMOOTH",
"191 100 LINE SMOOTH",
"191 180 OFFCURVE",
"157 220 OFFCURVE",
"86 240 CURVE",
"157 260 OFFCURVE",
"191 300 OFFCURVE",
"191 380 CURVE SMOOTH",
"191 550 LINE SMOOTH",
"191 611 OFFCURVE",
"207 639 OFFCURVE",
"276 660 CURVE",
"276 690 LINE",
"156 659 OFFCURVE",
"111 599 OFFCURVE",
"111 510 CURVE SMOOTH",
"111 370 LINE SMOOTH",
"111 314 OFFCURVE",
"86 266 OFFCURVE",
"11 255 CURVE",
"11 225 LINE",
"86 214 OFFCURVE",
"111 166 OFFCURVE",
"111 110 CURVE SMOOTH",
"111 -30 LINE SMOOTH",
"111 -121 OFFCURVE",
"156 -181 OFFCURVE",
"276 -210 CURVE"
);
}
);
width = 304;
},
{
layerId = "BAEEE752-CD63-427F-8763-260FDB7B8BAE";
paths = (
{
closed = 1;
nodes = (
"293 -176 LINE",
"248 -168 OFFCURVE",
"233 -132 OFFCURVE",
"233 -72 CURVE SMOOTH",
"233 100 LINE SMOOTH",
"233 176 OFFCURVE",
"197 217 OFFCURVE",
"113 240 CURVE",
"197 263 OFFCURVE",
"233 304 OFFCURVE",
"233 380 CURVE SMOOTH",
"233 552 LINE SMOOTH",
"233 612 OFFCURVE",
"248 648 OFFCURVE",
"293 656 CURVE",
"293 691 LINE",
"153 680 OFFCURVE",
"103 601 OFFCURVE",
"103 510 CURVE SMOOTH",
"103 370 LINE SMOOTH",
"103 316 OFFCURVE",
"78 267 OFFCURVE",
"3 256 CURVE",
"3 224 LINE",
"78 213 OFFCURVE",
"103 164 OFFCURVE",
"103 110 CURVE SMOOTH",
"103 -30 LINE SMOOTH",
"103 -121 OFFCURVE",
"153 -200 OFFCURVE",
"293 -211 CURVE"
);
}
);
width = 312;
}
);
unicode = 007B;
},
{
glyphname = bar;
lastChange = "2016-03-24 05:08:34 +0000";
layers = (
{
layerId = UUID0;
paths = (
{
closed = 1;
nodes = (
"165 -190 LINE",
"165 680 LINE",
"75 680 LINE",
"75 -190 LINE"
);
}
);
width = 240;
},
{
layerId = "BAEEE752-CD63-427F-8763-260FDB7B8BAE";
paths = (
{
closed = 1;
nodes = (
"196 -190 LINE",
"196 680 LINE",
"66 680 LINE",
"66 -190 LINE"
);
}
);
width = 262;
}
);
unicode = 007C;
},
{
glyphname = braceright;
lastChange = "2016-03-24 04:21:03 +0000";
layers = (
{
layerId = UUID0;
paths = (
{
closed = 1;
nodes = (
"148 -181 OFFCURVE",
"193 -121 OFFCURVE",
"193 -30 CURVE SMOOTH",
"193 110 LINE SMOOTH",
"193 166 OFFCURVE",
"218 214 OFFCURVE",
"293 225 CURVE",
"293 255 LINE",
"218 266 OFFCURVE",
"193 314 OFFCURVE",
"193 370 CURVE SMOOTH",
"193 510 LINE SMOOTH",
"193 599 OFFCURVE",
"148 659 OFFCURVE",
"28 690 CURVE",
"28 660 LINE",
"97 639 OFFCURVE",
"113 611 OFFCURVE",
"113 550 CURVE SMOOTH",
"113 380 LINE SMOOTH",
"113 300 OFFCURVE",
"147 260 OFFCURVE",
"218 240 CURVE",
"147 220 OFFCURVE",
"113 180 OFFCURVE",
"113 100 CURVE SMOOTH",
"113 -70 LINE SMOOTH",
"113 -129 OFFCURVE",
"97 -161 OFFCURVE",
"28 -180 CURVE",
"28 -210 LINE"
);
}
);
width = 304;
},
{
layerId = "BAEEE752-CD63-427F-8763-260FDB7B8BAE";
paths = (
{
closed = 1;
nodes = (
"159 -200 OFFCURVE",
"209 -121 OFFCURVE",
"209 -30 CURVE SMOOTH",
"209 110 LINE SMOOTH",
"209 164 OFFCURVE",
"234 213 OFFCURVE",
"309 224 CURVE",
"309 256 LINE",
"234 267 OFFCURVE",
"209 316 OFFCURVE",
"209 370 CURVE SMOOTH",
"209 510 LINE SMOOTH",
"209 601 OFFCURVE",
"159 680 OFFCURVE",
"19 691 CURVE",
"19 656 LINE",
"64 648 OFFCURVE",
"79 612 OFFCURVE",
"79 552 CURVE SMOOTH",
"79 380 LINE SMOOTH",
"79 304 OFFCURVE",
"115 263 OFFCURVE",
"199 240 CURVE",
"115 217 OFFCURVE",
"79 176 OFFCURVE",
"79 100 CURVE SMOOTH",
"79 -72 LINE SMOOTH",
"79 -132 OFFCURVE",
"64 -168 OFFCURVE",
"19 -176 CURVE",
"19 -211 LINE"
);
}
);
width = 312;
}
);
unicode = 007D;
},
{
glyphname = asciitilde;
lastChange = "2016-03-24 04:16:35 +0000";
layers = (
{
layerId = UUID0;
paths = (
{
closed = 1;
nodes = (
"510 180 OFFCURVE",
"570 220 OFFCURVE",
"570 320 CURVE",
"530 320 LINE",
"530 280 OFFCURVE",
"501 250 OFFCURVE",
"450 250 CURVE SMOOTH",
"370 250 OFFCURVE",
"280 330 OFFCURVE",
"180 330 CURVE SMOOTH",
"120 330 OFFCURVE",
"60 290 OFFCURVE",
"60 190 CURVE",
"100 190 LINE",
"100 230 OFFCURVE",
"129 260 OFFCURVE",
"180 260 CURVE SMOOTH",
"261 260 OFFCURVE",
"349 180 OFFCURVE",
"450 180 CURVE SMOOTH"
);
}
);
width = 629;
},
{
layerId = "BAEEE752-CD63-427F-8763-260FDB7B8BAE";
paths = (
{
closed = 1;
nodes = (
"524 167 OFFCURVE",
"561 219 OFFCURVE",
"561 323 CURVE",
"521 323 LINE",
"521 283 OFFCURVE",
"497 263 OFFCURVE",
"441 263 CURVE SMOOTH",
"370 263 OFFCURVE",
"273 343 OFFCURVE",
"171 343 CURVE SMOOTH",
"88 343 OFFCURVE",
"51 291 OFFCURVE",
"51 187 CURVE",
"91 187 LINE",
"91 227 OFFCURVE",
"115 247 OFFCURVE",
"171 247 CURVE SMOOTH",
"242 247 OFFCURVE",
"339 167 OFFCURVE",
"441 167 CURVE SMOOTH"
);
}
);
width = 611;
}
);
unicode = 007E;
},
{
glyphname = exclamdown;
lastChange = "2016-03-24 05:08:32 +0000";
layers = (
{
layerId = UUID0;
paths = (
{
closed = 1;
nodes = (
"157 -194 LINE",
"139 311 LINE",
"81 311 LINE",
"63 -194 LINE"
);
},
{
closed = 1;
nodes = (
"139 372 OFFCURVE",
"164 396 OFFCURVE",
"164 425 CURVE SMOOTH",
"164 456 OFFCURVE",
"139 480 OFFCURVE",
"110 480 CURVE SMOOTH",
"81 480 OFFCURVE",
"56 456 OFFCURVE",
"56 425 CURVE SMOOTH",
"56 396 OFFCURVE",
"81 372 OFFCURVE",
"110 372 CURVE SMOOTH"
);
}
);
width = 220;
},
{
layerId = "BAEEE752-CD63-427F-8763-260FDB7B8BAE";
paths = (
{
closed = 1;
nodes = (
"186 -194 LINE",
"166 311 LINE",
"72 311 LINE",
"53 -194 LINE"
);
},
{
closed = 1;
nodes = (
"158 358 OFFCURVE",
"180 383 OFFCURVE",
"180 419 CURVE SMOOTH",
"180 455 OFFCURVE",
"158 480 OFFCURVE",
"119 480 CURVE SMOOTH",
"80 480 OFFCURVE",
"58 455 OFFCURVE",
"58 419 CURVE SMOOTH",
"58 383 OFFCURVE",
"80 358 OFFCURVE",
"119 358 CURVE SMOOTH"
);
}
);
width = 239;
}
);
unicode = 00A1;
},
{
glyphname = cent;
lastChange = "2016-03-24 04:16:47 +0000";
layers = (
{
layerId = UUID0;
paths = (
{
closed = 1;
nodes = (
"280 -50 LINE",
"280 -10 LINE",
"351 -5 OFFCURVE",
"404 26 OFFCURVE",
"445 95 CURVE",
"425 110 LINE",
"390 59 OFFCURVE",
"351 30 OFFCURVE",
"280 30 CURVE",
"280 440 LINE",
"351 440 OFFCURVE",
"405 400 OFFCURVE",
"410 315 CURVE",
"430 315 LINE",
"430 390 OFFCURVE",
"430 420 OFFCURVE",
"405 445 CURVE SMOOTH",
"382 468 OFFCURVE",
"336 480 OFFCURVE",
"280 480 CURVE",
"280 520 LINE",
"240 520 LINE",
"240 480 LINE",
"105 469 OFFCURVE",
"40 364 OFFCURVE",
"40 235 CURVE SMOOTH",
"40 106 OFFCURVE",
"105 1 OFFCURVE",
"240 -10 CURVE",
"240 -50 LINE"
);
},
{
closed = 1;
nodes = (
"170 54 OFFCURVE",
"135 137 OFFCURVE",
"135 235 CURVE SMOOTH",
"135 335 OFFCURVE",
"170 413 OFFCURVE",
"240 435 CURVE",
"240 35 LINE"
);
}
);
width = 483;
},
{
layerId = "BAEEE752-CD63-427F-8763-260FDB7B8BAE";
paths = (
{
closed = 1;
nodes = (
"301 -50 LINE",
"301 -8 LINE",
"395 0 OFFCURVE",
"438 55 OFFCURVE",
"465 95 CURVE",
"434 118 LINE",
"400 73 OFFCURVE",
"365 38 OFFCURVE",
"301 35 CURVE",
"301 434 LINE",
"373 427 OFFCURVE",
"416 385 OFFCURVE",
"421 305 CURVE",
"451 305 LINE",
"451 381 OFFCURVE",
"451 420 OFFCURVE",
"426 445 CURVE",
"403 466 OFFCURVE",
"361 476 OFFCURVE",
"301 479 CURVE",
"301 520 LINE",
"241 520 LINE",
"241 478 LINE",
"101 465 OFFCURVE",
"31 360 OFFCURVE",
"31 235 CURVE SMOOTH",
"31 110 OFFCURVE",
"101 3 OFFCURVE",
"241 -8 CURVE",
"241 -50 LINE"
);
},
{
closed = 1;
nodes = (
"191 68 OFFCURVE",
"166 131 OFFCURVE",
"166 235 CURVE SMOOTH",
"166 339 OFFCURVE",
"194 401 OFFCURVE",
"241 424 CURVE",
"241 45 LINE"
);
}
);
width = 496;
}
);
unicode = 00A2;
},
{
glyphname = sterling;
lastChange = "2016-03-24 04:16:53 +0000";
layers = (
{
layerId = UUID0;
paths = (
{
closed = 1;
nodes = (
"397 0 LINE SMOOTH",
"466 0 OFFCURVE",
"482 40 OFFCURVE",
"482 80 CURVE SMOOTH",
"482 155 LINE",
"462 155 LINE",
"462 75 OFFCURVE",
"417 40 OFFCURVE",
"337 40 CURVE SMOOTH",
"152 40 LINE",
"187 71 OFFCURVE",
"207 124 OFFCURVE",
"207 220 CURVE SMOOTH",
"207 320 LINE",
"347 320 LINE",
"347 360 LINE",
"207 360 LINE",
"207 460 LINE SMOOTH",
"207 600 OFFCURVE",
"252 630 OFFCURVE",
"312 630 CURVE SMOOTH",
"368 630 OFFCURVE",
"407 610 OFFCURVE",
"422 545 CURVE",
"467 545 LINE",
"467 580 OFFCURVE",
"467 610 OFFCURVE",
"442 635 CURVE SMOOTH",
"417 660 OFFCURVE",
"352 670 OFFCURVE",
"292 670 CURVE SMOOTH",
"201 670 OFFCURVE",
"117 640 OFFCURVE",
"117 460 CURVE SMOOTH",
"117 360 LINE",
"47 360 LINE",
"47 320 LINE",
"117 320 LINE",
"117 220 LINE SMOOTH",
"117 89 OFFCURVE",
"87 41 OFFCURVE",
"32 25 CURVE",
"32 0 LINE"
);
}
);
width = 528;
},
{
layerId = "BAEEE752-CD63-427F-8763-260FDB7B8BAE";
paths = (
{
closed = 1;
nodes = (
"411 0 LINE SMOOTH",
"480 0 OFFCURVE",
"496 40 OFFCURVE",
"496 80 CURVE SMOOTH",
"496 165 LINE",
"466 165 LINE",
"466 85 OFFCURVE",
"431 45 OFFCURVE",
"351 45 CURVE SMOOTH",
"161 45 LINE",
"196 74 OFFCURVE",
"231 125 OFFCURVE",
"231 220 CURVE SMOOTH",
"231 320 LINE",
"361 320 LINE",
"361 365 LINE",
"231 365 LINE",
"231 460 LINE SMOOTH",
"231 590 OFFCURVE",
"276 625 OFFCURVE",
"326 625 CURVE SMOOTH",
"377 625 OFFCURVE",
"411 600 OFFCURVE",
"426 535 CURVE",
"481 535 LINE",
"481 570 OFFCURVE",
"481 610 OFFCURVE",
"456 635 CURVE SMOOTH",
"431 660 OFFCURVE",
"366 670 OFFCURVE",
"306 670 CURVE SMOOTH",
"216 670 OFFCURVE",
"101 630 OFFCURVE",
"101 460 CURVE SMOOTH",
"101 365 LINE",
"41 365 LINE",
"41 320 LINE",
"101 320 LINE",
"101 220 LINE SMOOTH",
"101 89 OFFCURVE",
"87 46 OFFCURVE",
"36 30 CURVE",
"36 0 LINE"
);
}
);
width = 535;
}
);
unicode = 00A3;
},
{
glyphname = currency;
lastChange = "2016-03-24 04:16:57 +0000";
layers = (
{
layerId = UUID0;
paths = (
{
closed = 1;
nodes = (
"214 0 LINE",
"214 200 LINE",
"474 200 LINE",
"474 240 LINE",
"214 240 LINE",
"214 290 LINE",
"294 290 LINE SMOOTH",
"424 290 OFFCURVE",
"544 336 OFFCURVE",
"544 480 CURVE SMOOTH",
"544 616 OFFCURVE",
"424 660 OFFCURVE",
"294 660 CURVE SMOOTH",
"34 660 LINE",
"34 640 LINE",
"54 640 LINE SMOOTH",
"114 640 OFFCURVE",
"124 600 OFFCURVE",
"124 540 CURVE SMOOTH",
"124 330 LINE",
"64 330 LINE",
"64 290 LINE",
"124 290 LINE",
"124 240 LINE",
"64 240 LINE",
"64 200 LINE",
"124 200 LINE",
"124 0 LINE"
);
},
{
closed = 1;
nodes = (
"214 615 LINE",
"234 620 OFFCURVE",
"264 625 OFFCURVE",
"289 625 CURVE SMOOTH",
"373 625 OFFCURVE",
"444 580 OFFCURVE",
"444 480 CURVE SMOOTH",
"444 376 OFFCURVE",
"377 333 OFFCURVE",
"294 330 CURVE",
"214 330 LINE"
);
}
);
width = 576;
},
{
layerId = "BAEEE752-CD63-427F-8763-260FDB7B8BAE";
paths = (
{
closed = 1;
nodes = (
"246 0 LINE",
"246 190 LINE",
"496 190 LINE",
"496 235 LINE",
"246 235 LINE",
"246 285 LINE",
"306 285 LINE SMOOTH",
"456 285 OFFCURVE",
"576 345 OFFCURVE",
"576 480 CURVE SMOOTH",
"576 605 OFFCURVE",
"456 660 OFFCURVE",
"311 660 CURVE SMOOTH",
"36 660 LINE",
"36 630 LINE",
"46 630 LINE SMOOTH",
"106 630 OFFCURVE",
"116 590 OFFCURVE",
"116 535 CURVE SMOOTH",
"116 330 LINE",
"66 330 LINE",
"66 285 LINE",
"116 285 LINE",
"116 235 LINE",
"66 235 LINE",
"66 190 LINE",
"116 190 LINE",
"116 0 LINE"
);
},
{
closed = 1;
nodes = (
"246 615 LINE",
"266 620 OFFCURVE",
"286 620 OFFCURVE",
"311 620 CURVE SMOOTH",
"366 620 OFFCURVE",
"436 580 OFFCURVE",
"436 480 CURVE SMOOTH",
"436 365 OFFCURVE",
"371 330 OFFCURVE",
"306 330 CURVE SMOOTH",
"246 330 LINE"
);
}
);
width = 605;
}
);
unicode = 00A4;
},
{
glyphname = yen;
lastChange = "2016-03-24 04:17:21 +0000";
layers = (
{
layerId = UUID0;
paths = (
{
closed = 1;
nodes = (
"429 0 LINE",
"429 145 LINE",
"524 145 LINE",
"524 185 LINE",
"429 185 LINE",
"429 225 LINE",
"524 225 LINE",
"524 265 LINE",
"429 265 LINE",
"429 280 LINE",
"663 660 LINE",
"618 660 LINE",
"409 325 LINE",
"264 550 LINE",
"230 605 OFFCURVE",
"188 660 OFFCURVE",
"114 660 CURVE SMOOTH",
"24 660 LINE",
"24 640 LINE",
"95 635 OFFCURVE",
"128 589 OFFCURVE",
"169 530 CURVE",
"339 265 LINE",
"244 265 LINE",
"244 225 LINE",
"339 225 LINE",
"339 185 LINE",
"244 185 LINE",
"244 145 LINE",
"339 145 LINE",
"339 0 LINE"
);
}
);
width = 687;
},
{
layerId = "BAEEE752-CD63-427F-8763-260FDB7B8BAE";
paths = (
{
closed = 1;
nodes = (
"461 0 LINE",
"461 135 LINE",
"547 135 LINE",
"547 180 LINE",
"461 180 LINE",
"461 220 LINE",
"547 220 LINE",
"547 265 LINE",
"461 265 LINE",
"461 291 LINE",
"688 660 LINE",
"623 660 LINE",
"429 345 LINE",
"293 550 LINE SMOOTH",
"261 601 OFFCURVE",
"205 660 OFFCURVE",
"130 660 CURVE SMOOTH",
"21 660 LINE",
"21 640 LINE",
"67 635 OFFCURVE",
"119 581 OFFCURVE",
"154 530 CURVE SMOOTH",
"330 265 LINE",
"247 265 LINE",
"247 220 LINE",
"331 220 LINE",
"331 180 LINE",
"247 180 LINE",
"247 135 LINE",
"331 135 LINE",
"331 0 LINE"
);
}
);
width = 711;
}
);
unicode = 00A5;
},
{
glyphname = brokenbar;
lastChange = "2016-03-24 05:08:30 +0000";
layers = (
{
layerId = UUID0;
paths = (
{
closed = 1;
nodes = (
"168 330 LINE",
"168 680 LINE",
"78 680 LINE",
"78 330 LINE"
);
},
{
closed = 1;
nodes = (
"168 -190 LINE",
"168 160 LINE",
"78 160 LINE",
"78 -190 LINE"
);
}
);
width = 246;
},
{
layerId = "BAEEE752-CD63-427F-8763-260FDB7B8BAE";
paths = (
{
closed = 1;
nodes = (
"199 327 LINE",
"199 680 LINE",
"69 680 LINE",
"69 327 LINE"
);
},
{
closed = 1;
nodes = (
"199 -190 LINE",
"199 163 LINE",
"69 163 LINE",
"69 -190 LINE"
);
}
);
width = 268;
}
);
unicode = 00A6;
},
{
glyphname = section;
lastChange = "2016-03-24 04:18:16 +0000";
layers = (
{
layerId = UUID0;
paths = (
{
closed = 1;
nodes = (
"295 -200 OFFCURVE",
"366 -155 OFFCURVE",
"366 -50 CURVE SMOOTH",
"366 19 OFFCURVE",
"326 65 OFFCURVE",
"275 100 CURVE",
"342 125 OFFCURVE",
"381 168 OFFCURVE",
"381 245 CURVE SMOOTH",
"381 399 OFFCURVE",
"151 401 OFFCURVE",
"151 540 CURVE SMOOTH",
"151 600 OFFCURVE",
"191 630 OFFCURVE",
"251 630 CURVE SMOOTH",
"307 630 OFFCURVE",
"345 590 OFFCURVE",
"356 525 CURVE",
"376 525 LINE",
"376 576 OFFCURVE",
"376 605 OFFCURVE",
"351 630 CURVE SMOOTH",
"326 655 OFFCURVE",
"277 670 OFFCURVE",
"221 670 CURVE SMOOTH",
"137 670 OFFCURVE",
"66 625 OFFCURVE",
"66 520 CURVE SMOOTH",
"66 451 OFFCURVE",
"105 403 OFFCURVE",
"156 370 CURVE",
"91 345 OFFCURVE",
"51 301 OFFCURVE",
"51 225 CURVE SMOOTH",
"51 71 OFFCURVE",
"281 69 OFFCURVE",
"281 -70 CURVE SMOOTH",
"281 -130 OFFCURVE",
"241 -160 OFFCURVE",
"181 -160 CURVE SMOOTH",
"125 -160 OFFCURVE",
"87 -120 OFFCURVE",
"76 -55 CURVE",
"56 -55 LINE",
"56 -106 OFFCURVE",
"56 -135 OFFCURVE",
"81 -160 CURVE SMOOTH",
"106 -185 OFFCURVE",
"155 -200 OFFCURVE",
"211 -200 CURVE SMOOTH"
);
},
{
closed = 1;
nodes = (
"170 160 OFFCURVE",
"126 199 OFFCURVE",
"126 255 CURVE SMOOTH",
"126 311 OFFCURVE",
"156 335 OFFCURVE",
"195 347 CURVE",
"262 310 OFFCURVE",
"306 271 OFFCURVE",
"306 215 CURVE SMOOTH",
"306 159 OFFCURVE",
"276 135 OFFCURVE",
"237 123 CURVE"
);
}
);
width = 432;
},
{
layerId = "BAEEE752-CD63-427F-8763-260FDB7B8BAE";
paths = (
{
closed = 1;
nodes = (
"312 -200 OFFCURVE",
"395 -154 OFFCURVE",
"395 -47 CURVE SMOOTH",
"395 20 OFFCURVE",
"349 63 OFFCURVE",
"296 100 CURVE",
"364 127 OFFCURVE",
"410 177 OFFCURVE",
"410 245 CURVE SMOOTH",
"410 392 OFFCURVE",
"180 401 OFFCURVE",
"180 537 CURVE SMOOTH",
"180 601 OFFCURVE",
"209 625 OFFCURVE",
"260 625 CURVE SMOOTH",
"320 625 OFFCURVE",
"357 584 OFFCURVE",
"368 519 CURVE",
"400 519 LINE",
"400 570 OFFCURVE",
"400 600 OFFCURVE",
"371 629 CURVE SMOOTH",
"344 656 OFFCURVE",
"291 670 OFFCURVE",
"230 670 CURVE SMOOTH",
"138 670 OFFCURVE",
"55 624 OFFCURVE",
"55 517 CURVE SMOOTH",
"55 450 OFFCURVE",
"99 406 OFFCURVE",
"152 370 CURVE",
"88 342 OFFCURVE",
"40 288 OFFCURVE",
"40 225 CURVE SMOOTH",
"40 76 OFFCURVE",
"271 70 OFFCURVE",
"271 -67 CURVE SMOOTH",
"271 -131 OFFCURVE",
"241 -155 OFFCURVE",
"190 -155 CURVE SMOOTH",
"130 -155 OFFCURVE",
"93 -114 OFFCURVE",
"82 -49 CURVE",
"50 -49 LINE",
"50 -100 OFFCURVE",
"50 -130 OFFCURVE",
"79 -159 CURVE SMOOTH",
"106 -186 OFFCURVE",
"159 -200 OFFCURVE",
"220 -200 CURVE SMOOTH"
);
},
{
closed = 1;
nodes = (
"198 158 OFFCURVE",
"149 200 OFFCURVE",
"149 255 CURVE SMOOTH",
"149 306 OFFCURVE",
"164 333 OFFCURVE",
"192 344 CURVE",
"252 309 OFFCURVE",
"301 270 OFFCURVE",
"301 215 CURVE SMOOTH",
"301 162 OFFCURVE",
"286 136 OFFCURVE",
"258 125 CURVE"
);
}
);
width = 450;
}
);
unicode = 00A7;
},
{
glyphname = dieresis;
lastChange = "2016-03-24 04:35:30 +0000";
layers = (
{
layerId = UUID0;
paths = (
{
closed = 1;
nodes = (
"271 690 OFFCURVE",
"290 709 OFFCURVE",
"290 740 CURVE SMOOTH",
"290 771 OFFCURVE",
"271 790 OFFCURVE",
"240 790 CURVE SMOOTH",
"209 790 OFFCURVE",
"190 771 OFFCURVE",
"190 740 CURVE SMOOTH",
"190 709 OFFCURVE",
"209 690 OFFCURVE",
"240 690 CURVE SMOOTH"
);
},
{
closed = 1;
nodes = (
"101 690 OFFCURVE",
"120 709 OFFCURVE",
"120 740 CURVE SMOOTH",
"120 771 OFFCURVE",
"101 790 OFFCURVE",
"70 790 CURVE SMOOTH",
"39 790 OFFCURVE",
"20 771 OFFCURVE",
"20 740 CURVE SMOOTH",
"20 709 OFFCURVE",
"39 690 OFFCURVE",
"70 690 CURVE SMOOTH"
);
}
);
width = 310;
},
{
layerId = "BAEEE752-CD63-427F-8763-260FDB7B8BAE";
paths = (
{
closed = 1;
nodes = (
"261 690 OFFCURVE",
"282 715 OFFCURVE",
"282 746 CURVE SMOOTH",
"282 777 OFFCURVE",
"261 802 OFFCURVE",
"226 802 CURVE SMOOTH",
"191 802 OFFCURVE",
"170 777 OFFCURVE",
"170 746 CURVE SMOOTH",
"170 715 OFFCURVE",
"191 690 OFFCURVE",
"226 690 CURVE SMOOTH"
);
},
{
closed = 1;
nodes = (
"91 690 OFFCURVE",
"112 715 OFFCURVE",
"112 746 CURVE SMOOTH",
"112 777 OFFCURVE",
"91 802 OFFCURVE",
"56 802 CURVE SMOOTH",
"21 802 OFFCURVE",
"0 777 OFFCURVE",
"0 746 CURVE SMOOTH",
"0 715 OFFCURVE",
"21 690 OFFCURVE",
"56 690 CURVE SMOOTH"
);
}
);
width = 282;
}
);
unicode = 00A8;
},
{
glyphname = copyright;
lastChange = "2016-03-24 04:18:21 +0000";
layers = (
{
layerId = UUID0;
paths = (
{
closed = 1;
nodes = (
"600 -25 OFFCURVE",
"750 125 OFFCURVE",
"750 330 CURVE SMOOTH",
"750 535 OFFCURVE",
"600 685 OFFCURVE",
"395 685 CURVE SMOOTH",
"190 685 OFFCURVE",
"40 535 OFFCURVE",
"40 330 CURVE SMOOTH",
"40 125 OFFCURVE",
"190 -25 OFFCURVE",
"395 -25 CURVE SMOOTH"
);
},
{
closed = 1;
nodes = (
"474 105 OFFCURVE",
"531 132 OFFCURVE",
"574 213 CURVE",
"561 223 LINE",
"525 163 OFFCURVE",
"480 132 OFFCURVE",
"415 132 CURVE SMOOTH",
"306 132 OFFCURVE",
"259 228 OFFCURVE",
"259 327 CURVE SMOOTH",
"259 484 OFFCURVE",
"331 536 OFFCURVE",
"415 536 CURVE SMOOTH",
"487 536 OFFCURVE",
"532 497 OFFCURVE",
"548 412 CURVE",
"561 412 LINE",
"561 451 OFFCURVE",
"561 490 OFFCURVE",
"544 510 CURVE SMOOTH",
"521 538 OFFCURVE",
"467 562 OFFCURVE",
"395 562 CURVE SMOOTH",
"286 562 OFFCURVE",
"195 458 OFFCURVE",
"195 327 CURVE SMOOTH",
"195 202 OFFCURVE",
"272 105 OFFCURVE",
"395 105 CURVE SMOOTH"
);
},
{
closed = 1;
nodes = (
"210 15 OFFCURVE",
"80 145 OFFCURVE",
"80 330 CURVE SMOOTH",
"80 515 OFFCURVE",
"210 645 OFFCURVE",
"395 645 CURVE SMOOTH",
"580 645 OFFCURVE",
"710 515 OFFCURVE",
"710 330 CURVE SMOOTH",
"710 145 OFFCURVE",
"580 15 OFFCURVE",
"395 15 CURVE SMOOTH"
);
}
);
width = 790;
},
{
layerId = "BAEEE752-CD63-427F-8763-260FDB7B8BAE";
paths = (
{
closed = 1;
nodes = (
"617 -28 OFFCURVE",
"773 123 OFFCURVE",
"773 330 CURVE SMOOTH",
"773 537 OFFCURVE",
"617 688 OFFCURVE",
"403 688 CURVE SMOOTH",
"189 688 OFFCURVE",
"33 537 OFFCURVE",
"33 330 CURVE SMOOTH",
"33 123 OFFCURVE",
"189 -28 OFFCURVE",
"403 -28 CURVE SMOOTH"
);
},
{
closed = 1;
nodes = (
"490 102 OFFCURVE",
"549 132 OFFCURVE",
"592 212 CURVE",
"567 230 LINE",
"528 166 OFFCURVE",
"480 134 OFFCURVE",
"423 134 CURVE SMOOTH",
"324 134 OFFCURVE",
"283 231 OFFCURVE",
"283 327 CURVE SMOOTH",
"283 482 OFFCURVE",
"347 533 OFFCURVE",
"423 533 CURVE SMOOTH",
"499 533 OFFCURVE",
"537 494 OFFCURVE",
"553 409 CURVE",
"584 409 LINE",
"584 448 OFFCURVE",
"584 487 OFFCURVE",
"563 512 CURVE SMOOTH",
"540 540 OFFCURVE",
"488 565 OFFCURVE",
"403 565 CURVE SMOOTH",
"285 565 OFFCURVE",
"188 460 OFFCURVE",
"188 327 CURVE SMOOTH",
"188 202 OFFCURVE",
"271 102 OFFCURVE",
"403 102 CURVE SMOOTH"
);
},
{
closed = 1;
nodes = (
"227 17 OFFCURVE",
"103 146 OFFCURVE",
"103 330 CURVE SMOOTH",
"103 514 OFFCURVE",
"227 643 OFFCURVE",
"403 643 CURVE SMOOTH",
"579 643 OFFCURVE",
"703 514 OFFCURVE",
"703 330 CURVE SMOOTH",
"703 146 OFFCURVE",
"579 17 OFFCURVE",
"403 17 CURVE SMOOTH"
);
}
);
width = 806;
}
);
unicode = 00A9;
},
{
glyphname = ordfeminine;
lastChange = "2016-03-24 04:32:59 +0000";
layers = (
{
layerId = UUID0;
paths = (
{
closed = 1;
nodes = (
"170 396 OFFCURVE",
"194 411 OFFCURVE",
"205 426 CURVE",
"208 426 LINE",
"227 401 LINE",
"257 401 LINE",
"257 547 LINE SMOOTH",
"257 644 OFFCURVE",
"208 660 OFFCURVE",
"159 660 CURVE SMOOTH",
"127 660 OFFCURVE",
"92 656 OFFCURVE",
"79 641 CURVE",
"64 626 OFFCURVE",
"65 612 OFFCURVE",
"65 593 CURVE",
"90 593 LINE",
"98 628 OFFCURVE",
"118 638 OFFCURVE",
"149 638 CURVE SMOOTH",
"180 638 OFFCURVE",
"205 623 OFFCURVE",
"205 547 CURVE",
"189 547 LINE SMOOTH",
"117 547 OFFCURVE",
"51 526 OFFCURVE",
"51 466 CURVE SMOOTH",
"51 406 OFFCURVE",
"100 396 OFFCURVE",
"130 396 CURVE SMOOTH"
);
},
{
closed = 1;
nodes = (
"122 418 OFFCURVE",
"103 431 OFFCURVE",
"103 466 CURVE SMOOTH",
"103 499 OFFCURVE",
"134 525 OFFCURVE",
"189 525 CURVE SMOOTH",
"205 525 LINE",
"205 453 LINE",
"194 437 OFFCURVE",
"176 418 OFFCURVE",
"149 418 CURVE SMOOTH"
);
}
);
width = 321;
},
{
layerId = "BAEEE752-CD63-427F-8763-260FDB7B8BAE";
paths = (
{
closed = 1;
nodes = (
"168 396 OFFCURVE",
"188 413 OFFCURVE",
"200 426 CURVE",
"203 426 LINE",
"222 401 LINE",
"268 401 LINE",
"268 547 LINE SMOOTH",
"268 644 OFFCURVE",
"219 660 OFFCURVE",
"160 660 CURVE SMOOTH",
"123 660 OFFCURVE",
"88 656 OFFCURVE",
"75 641 CURVE",
"60 626 OFFCURVE",
"61 602 OFFCURVE",
"61 583 CURVE",
"90 583 LINE",
"97 615 OFFCURVE",
"113 635 OFFCURVE",
"150 635 CURVE SMOOTH",
"172 635 OFFCURVE",
"196 623 OFFCURVE",
"196 547 CURVE",
"180 547 LINE SMOOTH",
"88 547 OFFCURVE",
"42 517 OFFCURVE",
"42 466 CURVE SMOOTH",
"42 415 OFFCURVE",
"83 396 OFFCURVE",
"131 396 CURVE SMOOTH"
);
},
{
closed = 1;
nodes = (
"133 421 OFFCURVE",
"114 431 OFFCURVE",
"114 466 CURVE SMOOTH",
"114 499 OFFCURVE",
"141 522 OFFCURVE",
"180 522 CURVE SMOOTH",
"196 522 LINE",
"196 455 LINE",
"188 440 OFFCURVE",
"173 421 OFFCURVE",
"150 421 CURVE SMOOTH"
);
}
);
width = 324;
}
);
unicode = 00AA;
},
{
glyphname = guillemotleft;
lastChange = "2016-03-24 05:08:27 +0000";
layers = (
{
layerId = UUID0;
paths = (
{
closed = 1;
nodes = (
"230 30 LINE",
"135 225 LINE",
"230 420 LINE",
"190 420 LINE",
"35 225 LINE",
"190 30 LINE"
);
},
{
closed = 1;
nodes = (
"315 80 LINE",
"255 225 LINE",
"315 370 LINE",
"275 370 LINE",
"175 225 LINE",
"275 80 LINE"
);
}
);
width = 372;
},
{
layerId = "BAEEE752-CD63-427F-8763-260FDB7B8BAE";
paths = (
{
closed = 1;
nodes = (
"253 30 LINE",
"156 226 LINE",
"253 420 LINE",
"189 420 LINE",
"31 225 LINE",
"189 30 LINE"
);
},
{
closed = 1;
nodes = (
"372 80 LINE",
"310 225 LINE",
"372 370 LINE",
"308 370 LINE",
"206 225 LINE",
"308 80 LINE"
);
}
);
width = 425;
}
);
leftKerningGroup = guilsinglleft;
unicode = 00AB;
},
{
glyphname = logicalnot;
lastChange = "2016-03-24 05:08:25 +0000";
layers = (
{
layerId = UUID0;
paths = (
{
closed = 1;
nodes = (
"588 130 LINE",
"588 290 LINE",
"68 290 LINE",
"68 230 LINE",
"528 230 LINE",
"528 130 LINE"
);
}
);
width = 654;
},
{
layerId = "BAEEE752-CD63-427F-8763-260FDB7B8BAE";
paths = (
{
closed = 1;
nodes = (
"603 115 LINE",
"603 290 LINE",
"58 290 LINE",
"58 220 LINE",
"513 220 LINE",
"513 115 LINE"
);
}
);
width = 662;
}
);
unicode = 00AC;
},
{
glyphname = registered;
lastChange = "2016-03-24 05:10:55 +0000";
layers = (
{
layerId = UUID0;
paths = (
{
closed = 1;
nodes = (
"600 -25 OFFCURVE",
"750 125 OFFCURVE",
"750 330 CURVE SMOOTH",
"750 535 OFFCURVE",
"600 685 OFFCURVE",
"395 685 CURVE SMOOTH",
"190 685 OFFCURVE",
"40 535 OFFCURVE",
"40 330 CURVE SMOOTH",
"40 125 OFFCURVE",
"190 -25 OFFCURVE",
"395 -25 CURVE SMOOTH"
);
},
{
closed = 1;
nodes = (
"210 15 OFFCURVE",
"80 145 OFFCURVE",
"80 330 CURVE SMOOTH",
"80 515 OFFCURVE",
"210 645 OFFCURVE",
"395 645 CURVE SMOOTH",
"580 645 OFFCURVE",
"710 515 OFFCURVE",
"710 330 CURVE SMOOTH",
"710 145 OFFCURVE",
"580 15 OFFCURVE",
"395 15 CURVE SMOOTH"
);
},
{
closed = 1;
nodes = (
"574 118 OFFCURVE",
"588 120 OFFCURVE",
"595 125 CURVE",
"595 137 LINE",
"563 141 OFFCURVE",
"543 158 OFFCURVE",
"510 211 CURVE SMOOTH",
"438 327 LINE",
"484 335 OFFCURVE",
"541 362 OFFCURVE",
"541 434 CURVE SMOOTH",
"541 539 OFFCURVE",
"434 552 OFFCURVE",
"379 552 CURVE SMOOTH",
"211 552 LINE",
"211 539 LINE",
"224 539 LINE SMOOTH",
"263 539 OFFCURVE",
"269 513 OFFCURVE",
"269 474 CURVE SMOOTH",
"269 125 LINE",
"327 125 LINE",
"327 323 LINE",
"375 323 LINE",
"442 211 LINE SMOOTH",
"485 141 OFFCURVE",
"511 118 OFFCURVE",
"553 118 CURVE SMOOTH"
);
},
{
closed = 1;
nodes = (
"360 345 OFFCURVE",
"340 349 OFFCURVE",
"327 352 CURVE",
"327 523 LINE",
"340 526 OFFCURVE",
"360 530 OFFCURVE",
"376 530 CURVE SMOOTH",
"412 530 OFFCURVE",
"476 505 OFFCURVE",
"476 438 CURVE SMOOTH",
"476 371 OFFCURVE",
"412 345 OFFCURVE",
"376 345 CURVE SMOOTH"
);
}
);
width = 790;
},
{
layerId = "BAEEE752-CD63-427F-8763-260FDB7B8BAE";
paths = (
{
closed = 1;
nodes = (
"617 -25 OFFCURVE",
"773 123 OFFCURVE",
"773 330 CURVE SMOOTH",
"773 537 OFFCURVE",
"617 685 OFFCURVE",
"403 685 CURVE SMOOTH",
"189 685 OFFCURVE",
"33 537 OFFCURVE",
"33 330 CURVE SMOOTH",
"33 123 OFFCURVE",
"189 -25 OFFCURVE",
"403 -25 CURVE SMOOTH"
);
},
{
closed = 1;
nodes = (
"227 20 OFFCURVE",
"103 146 OFFCURVE",
"103 330 CURVE SMOOTH",
"103 514 OFFCURVE",
"227 640 OFFCURVE",
"403 640 CURVE SMOOTH",
"579 640 OFFCURVE",
"703 514 OFFCURVE",
"703 330 CURVE SMOOTH",
"703 146 OFFCURVE",
"579 20 OFFCURVE",
"403 20 CURVE SMOOTH"
);
},
{
closed = 1;
nodes = (
"590 118 OFFCURVE",
"607 124 OFFCURVE",
"607 125 CURVE SMOOTH",
"607 139 LINE",
"575 143 OFFCURVE",
"554 168 OFFCURVE",
"523 216 CURVE SMOOTH",
"455 326 LINE",
"503 337 OFFCURVE",
"558 365 OFFCURVE",
"558 434 CURVE SMOOTH",
"558 530 OFFCURVE",
"472 555 OFFCURVE",
"381 555 CURVE SMOOTH",
"208 555 LINE",
"208 539 LINE",
"226 539 LINE SMOOTH",
"253 539 OFFCURVE",
"256 514 OFFCURVE",
"256 477 CURVE SMOOTH",
"256 125 LINE",
"344 125 LINE",
"344 320 LINE",
"364 320 LINE",
"431 212 LINE SMOOTH",
"475 141 OFFCURVE",
"504 118 OFFCURVE",
"555 118 CURVE SMOOTH"
);
},
{
closed = 1;
nodes = (
"368 349 OFFCURVE",
"349 350 OFFCURVE",
"344 351 CURVE",
"344 524 LINE",
"355 525 OFFCURVE",
"371 526 OFFCURVE",
"378 526 CURVE SMOOTH",
"427 526 OFFCURVE",
"463 502 OFFCURVE",
"463 438 CURVE SMOOTH",
"463 373 OFFCURVE",
"427 349 OFFCURVE",
"378 349 CURVE SMOOTH"
);
}
);
width = 806;
}
);
unicode = 00AE;
},
{
glyphname = degree;
lastChange = "2015-10-19 21:38:50 +0000";
layers = (
{
layerId = UUID0;
paths = (
{
closed = 1;
nodes = (
"151 625 OFFCURVE",
"106 580 OFFCURVE",
"106 520 CURVE SMOOTH",
"106 460 OFFCURVE",
"151 415 OFFCURVE",
"206 415 CURVE SMOOTH",
"261 415 OFFCURVE",
"306 460 OFFCURVE",
"306 520 CURVE SMOOTH",
"306 580 OFFCURVE",
"261 625 OFFCURVE",
"206 625 CURVE SMOOTH"
);
},
{
closed = 1;
nodes = (
"296 680 OFFCURVE",
"366 610 OFFCURVE",
"366 520 CURVE SMOOTH",
"366 430 OFFCURVE",
"296 360 OFFCURVE",
"206 360 CURVE SMOOTH",
"116 360 OFFCURVE",
"46 430 OFFCURVE",
"46 520 CURVE SMOOTH",
"46 610 OFFCURVE",
"116 680 OFFCURVE",
"206 680 CURVE SMOOTH"
);
}
);
width = 412;
},
{
layerId = "BAEEE752-CD63-427F-8763-260FDB7B8BAE";
paths = (
{
closed = 1;
nodes = (
"318 360 OFFCURVE",
"378 430 OFFCURVE",
"378 520 CURVE SMOOTH",
"378 610 OFFCURVE",
"318 680 OFFCURVE",
"208 680 CURVE SMOOTH",
"98 680 OFFCURVE",
"38 610 OFFCURVE",
"38 520 CURVE SMOOTH",
"38 430 OFFCURVE",
"98 360 OFFCURVE",
"208 360 CURVE SMOOTH"
);
},
{
closed = 1;
nodes = (
"157 420 OFFCURVE",
"118 460 OFFCURVE",
"118 520 CURVE SMOOTH",
"118 580 OFFCURVE",
"157 620 OFFCURVE",
"208 620 CURVE SMOOTH",
"259 620 OFFCURVE",
"298 580 OFFCURVE",
"298 520 CURVE SMOOTH",
"298 460 OFFCURVE",
"259 420 OFFCURVE",
"208 420 CURVE SMOOTH"
);
}
);
width = 416;
}
);
unicode = 00B0;
},
{
glyphname = plusminus;
lastChange = "2016-03-24 05:08:22 +0000";
layers = (
{
layerId = UUID0;
paths = (
{
closed = 1;
nodes = (
"517 60 LINE",
"517 120 LINE",
"317 120 LINE",
"317 300 LINE",
"517 300 LINE",
"517 360 LINE",
"317 360 LINE",
"317 560 LINE",
"257 560 LINE",
"257 360 LINE",
"57 360 LINE",
"57 300 LINE",
"257 300 LINE",
"257 120 LINE",
"57 120 LINE",
"57 60 LINE"
);
}
);
width = 574;
},
{
layerId = "BAEEE752-CD63-427F-8763-260FDB7B8BAE";
paths = (
{
closed = 1;
nodes = (
"533 55 LINE",
"533 125 LINE",
"336 125 LINE",
"336 295 LINE",
"533 295 LINE",
"533 365 LINE",
"336 365 LINE",
"336 560 LINE",
"246 560 LINE",
"246 365 LINE",
"49 365 LINE",
"49 295 LINE",
"246 295 LINE",
"246 125 LINE",
"49 125 LINE",
"49 55 LINE"
);
}
);
width = 582;
}
);
unicode = 00B1;
},
{
glyphname = twosuperior;
lastChange = "2016-03-24 04:15:07 +0000";
layers = (
{
layerId = UUID0;
paths = (
{
closed = 1;
nodes = (
"222 377 LINE SMOOTH",
"254 377 OFFCURVE",
"261 394 OFFCURVE",
"261 413 CURVE SMOOTH",
"261 443 LINE",
"249 443 LINE",
"249 411 OFFCURVE",
"229 399 OFFCURVE",
"192 399 CURVE SMOOTH",
"101 399 LINE",
"184 480 OFFCURVE",
"257 523 OFFCURVE",
"257 602 CURVE SMOOTH",
"257 677 OFFCURVE",
"200 689 OFFCURVE",
"163 689 CURVE SMOOTH",
"127 689 OFFCURVE",
"93 673 OFFCURVE",
"76 653 CURVE",
"65 638 OFFCURVE",
"65 616 OFFCURVE",
"65 593 CURVE",
"77 593 LINE",
"86 644 OFFCURVE",
"113 667 OFFCURVE",
"150 667 CURVE SMOOTH",
"181 667 OFFCURVE",
"205 649 OFFCURVE",
"205 602 CURVE SMOOTH",
"205 533 OFFCURVE",
"157 494 OFFCURVE",
"61 400 CURVE",
"61 377 LINE"
);
}
);
width = 321;
},
{
layerId = "BAEEE752-CD63-427F-8763-260FDB7B8BAE";
paths = (
{
closed = 1;
nodes = (
"224 377 LINE SMOOTH",
"256 377 OFFCURVE",
"263 394 OFFCURVE",
"263 413 CURVE SMOOTH",
"263 448 LINE",
"248 448 LINE",
"248 416 OFFCURVE",
"228 404 OFFCURVE",
"191 404 CURVE SMOOTH",
"110 404 LINE",
"192 484 OFFCURVE",
"264 524 OFFCURVE",
"264 602 CURVE SMOOTH",
"264 671 OFFCURVE",
"208 689 OFFCURVE",
"160 689 CURVE SMOOTH",
"120 689 OFFCURVE",
"86 673 OFFCURVE",
"69 653 CURVE",
"58 638 OFFCURVE",
"58 606 OFFCURVE",
"58 583 CURVE",
"74 583 LINE",
"83 634 OFFCURVE",
"106 662 OFFCURVE",
"147 662 CURVE SMOOTH",
"175 662 OFFCURVE",
"192 649 OFFCURVE",
"192 602 CURVE SMOOTH",
"192 532 OFFCURVE",
"146 496 OFFCURVE",
"53 400 CURVE",
"53 377 LINE"
);
}
);
width = 318;
}
);
unicode = 00B2;
},
{
glyphname = threesuperior;
lastChange = "2016-03-24 04:15:12 +0000";
layers = (
{
layerId = UUID0;
paths = (
{
closed = 1;
nodes = (
"189 367 OFFCURVE",
"263 381 OFFCURVE",
"263 462 CURVE SMOOTH",
"263 530 OFFCURVE",
"203 551 OFFCURVE",
"162 551 CURVE SMOOTH",
"155 551 OFFCURVE",
"137 551 OFFCURVE",
"121 547 CURVE",
"249 662 LINE",
"249 680 LINE",
"98 680 LINE SMOOTH",
"66 680 OFFCURVE",
"59 662 OFFCURVE",
"59 643 CURVE SMOOTH",
"59 613 LINE",
"68 613 LINE",
"68 646 OFFCURVE",
"89 658 OFFCURVE",
"125 658 CURVE SMOOTH",
"209 658 LINE",
"86 547 LINE",
"100 523 LINE",
"119 528 OFFCURVE",
"138 529 OFFCURVE",
"153 529 CURVE SMOOTH",
"180 529 OFFCURVE",
"211 510 OFFCURVE",
"211 462 CURVE SMOOTH",
"211 413 OFFCURVE",
"183 389 OFFCURVE",
"147 389 CURVE SMOOTH",
"113 389 OFFCURVE",
"85 401 OFFCURVE",
"63 425 CURVE",
"53 416 LINE",
"78 385 OFFCURVE",
"104 367 OFFCURVE",
"151 367 CURVE SMOOTH"
);
}
);
width = 311;
},
{
layerId = "BAEEE752-CD63-427F-8763-260FDB7B8BAE";
paths = (
{
closed = 1;
nodes = (
"192 367 OFFCURVE",
"266 385 OFFCURVE",
"266 462 CURVE SMOOTH",
"266 525 OFFCURVE",
"207 551 OFFCURVE",
"155 551 CURVE SMOOTH",
"148 551 OFFCURVE",
"132 551 OFFCURVE",
"116 547 CURVE",
"244 662 LINE",
"244 680 LINE",
"91 680 LINE SMOOTH",
"59 680 OFFCURVE",
"52 662 OFFCURVE",
"52 643 CURVE SMOOTH",
"52 610 LINE",
"65 610 LINE",
"65 639 OFFCURVE",
"82 653 OFFCURVE",
"115 653 CURVE SMOOTH",
"193 653 LINE",
"75 546 LINE",
"91 518 LINE",
"110 523 OFFCURVE",
"119 524 OFFCURVE",
"134 524 CURVE SMOOTH",
"165 524 OFFCURVE",
"194 510 OFFCURVE",
"194 462 CURVE SMOOTH",
"194 413 OFFCURVE",
"167 394 OFFCURVE",
"140 394 CURVE SMOOTH",
"107 394 OFFCURVE",
"79 406 OFFCURVE",
"57 430 CURVE",
"43 418 LINE",
"68 387 OFFCURVE",
"98 367 OFFCURVE",
"154 367 CURVE SMOOTH"
);
}
);
width = 304;
}
);
unicode = 00B3;
},
{
glyphname = acute;
lastChange = "2016-03-24 04:40:47 +0000";
layers = (
{
layerId = UUID0;
paths = (
{
closed = 1;
nodes = (
"60 700 LINE",
"155 830 LINE",
"60 830 LINE",
"20 700 LINE"
);
}
);
width = 175;
},
{
layerId = "BAEEE752-CD63-427F-8763-260FDB7B8BAE";
paths = (
{
closed = 1;
nodes = (
"75 700 LINE",
"181 840 LINE",
"62 840 LINE",
"20 700 LINE"
);
}
);
width = 201;
}
);
unicode = 00B4;
},
{
glyphname = mu;
lastChange = "2016-03-24 04:18:51 +0000";
layers = (
{
layerId = UUID0;
paths = (
{
closed = 1;
nodes = (
"164 -190 LINE",
"164 35 LINE",
"194 5 OFFCURVE",
"229 -10 OFFCURVE",
"269 -10 CURVE SMOOTH",
"335 -10 OFFCURVE",
"362 21 OFFCURVE",
"384 45 CURVE",
"389 45 LINE",
"424 0 LINE",
"474 0 LINE",
"474 470 LINE",
"384 470 LINE",
"384 90 LINE",
"364 59 OFFCURVE",
"334 30 OFFCURVE",
"279 30 CURVE SMOOTH",
"199 30 OFFCURVE",
"164 120 OFFCURVE",
"164 235 CURVE SMOOTH",
"164 470 LINE",
"74 470 LINE",
"74 -190 LINE"
);
}
);
width = 529;
},
{
layerId = "BAEEE752-CD63-427F-8763-260FDB7B8BAE";
paths = (
{
closed = 1;
nodes = (
"173 -190 LINE",
"173 35 LINE",
"204 4 OFFCURVE",
"233 -10 OFFCURVE",
"273 -10 CURVE SMOOTH",
"322 -10 OFFCURVE",
"361 18 OFFCURVE",
"378 45 CURVE",
"383 45 LINE",
"418 0 LINE",
"503 0 LINE",
"503 470 LINE",
"373 470 LINE",
"373 100 LINE",
"358 65 OFFCURVE",
"333 35 OFFCURVE",
"288 35 CURVE SMOOTH",
"228 35 OFFCURVE",
"193 99 OFFCURVE",
"193 235 CURVE SMOOTH",
"193 470 LINE",
"63 470 LINE",
"63 -190 LINE"
);
}
);
width = 550;
}
);
unicode = 00B5;
},
{
glyphname = paragraph;
lastChange = "2016-03-24 04:18:57 +0000";
layers = (
{
layerId = UUID0;
paths = (
{
closed = 1;
nodes = (
"348 -190 LINE",
"348 620 LINE",
"413 620 LINE",
"413 -190 LINE",
"503 -190 LINE",
"503 620 LINE",
"558 620 LINE",
"558 660 LINE",
"258 660 LINE SMOOTH",
"127 660 OFFCURVE",
"28 591 OFFCURVE",
"28 475 CURVE SMOOTH",
"28 359 OFFCURVE",
"127 290 OFFCURVE",
"258 290 CURVE",
"258 -190 LINE"
);
}
);
width = 601;
},
{
layerId = "BAEEE752-CD63-427F-8763-260FDB7B8BAE";
paths = (
{
closed = 1;
nodes = (
"376 -190 LINE",
"376 615 LINE",
"421 615 LINE",
"421 -190 LINE",
"541 -190 LINE",
"541 615 LINE",
"596 615 LINE",
"596 660 LINE",
"256 660 LINE SMOOTH",
"125 660 OFFCURVE",
"26 580 OFFCURVE",
"26 465 CURVE SMOOTH",
"26 350 OFFCURVE",
"125 270 OFFCURVE",
"256 270 CURVE",
"256 -190 LINE"
);
}
);
width = 634;
}
);
unicode = 00B6;
},
{
glyphname = periodcentered;
lastChange = "2016-03-24 05:08:20 +0000";
layers = (
{
layerId = UUID0;
paths = (
{
closed = 1;
nodes = (
"144 276 OFFCURVE",
"169 300 OFFCURVE",
"169 331 CURVE SMOOTH",
"169 360 OFFCURVE",
"146 385 OFFCURVE",
"115 385 CURVE SMOOTH",
"86 385 OFFCURVE",
"61 360 OFFCURVE",
"61 331 CURVE SMOOTH",
"61 300 OFFCURVE",
"86 276 OFFCURVE",
"115 276 CURVE SMOOTH"
);
}
);
width = 230;
},
{
layerId = "BAEEE752-CD63-427F-8763-260FDB7B8BAE";
paths = (
{
closed = 1;
nodes = (
"152 270 OFFCURVE",
"174 295 OFFCURVE",
"174 331 CURVE SMOOTH",
"174 367 OFFCURVE",
"152 392 OFFCURVE",
"113 392 CURVE SMOOTH",
"74 392 OFFCURVE",
"52 367 OFFCURVE",
"52 331 CURVE SMOOTH",
"52 295 OFFCURVE",
"74 270 OFFCURVE",
"113 270 CURVE SMOOTH"
);
}
);
width = 226;
}
);
unicode = 00B7;
},
{
glyphname = cedilla;
lastChange = "2016-03-24 04:10:06 +0000";
layers = (
{
layerId = UUID0;
paths = (
{
closed = 1;
nodes = (
"100 -196 LINE SMOOTH",
"145 -196 OFFCURVE",
"180 -170 OFFCURVE",
"180 -123 CURVE SMOOTH",
"180 -74 OFFCURVE",
"148 -50 OFFCURVE",
"90 -50 CURVE",
"90 0 LINE",
"45 0 LINE",
"45 -90 LINE",
"90 -90 LINE SMOOTH",
"117 -90 OFFCURVE",
"130 -101 OFFCURVE",
"130 -123 CURVE SMOOTH",
"130 -144 OFFCURVE",
"117 -155 OFFCURVE",
"90 -155 CURVE SMOOTH",
"40 -155 LINE",
"40 -196 LINE"
);
}
);
width = 180;
},
{
layerId = "BAEEE752-CD63-427F-8763-260FDB7B8BAE";
paths = (
{
closed = 1;
nodes = (
"110 -206 LINE SMOOTH",
"166 -206 OFFCURVE",
"200 -175 OFFCURVE",
"200 -128 CURVE SMOOTH",
"200 -80 OFFCURVE",
"166 -50 OFFCURVE",
"110 -50 CURVE",
"110 0 LINE",
"45 0 LINE",
"45 -95 LINE",
"90 -95 LINE SMOOTH",
"115 -95 OFFCURVE",
"130 -109 OFFCURVE",
"130 -128 CURVE SMOOTH",
"130 -145 OFFCURVE",
"115 -160 OFFCURVE",
"90 -160 CURVE SMOOTH",
"40 -160 LINE",
"40 -206 LINE"
);
}
);
width = 200;
}
);
unicode = 00B8;
},
{
glyphname = onesuperior;
lastChange = "2016-03-24 05:08:18 +0000";
layers = (
{
layerId = UUID0;
paths = (
{
closed = 1;
nodes = (
"142 377 LINE",
"142 680 LINE",
"103 680 LINE",
"38 616 LINE",
"49 600 LINE",
"90 624 LINE",
"90 377 LINE"
);
}
);
width = 212;
},
{
layerId = "BAEEE752-CD63-427F-8763-260FDB7B8BAE";
paths = (
{
closed = 1;
nodes = (
"152 377 LINE",
"152 680 LINE",
"98 680 LINE",
"30 616 LINE",
"46 594 LINE",
"80 614 LINE",
"80 377 LINE"
);
}
);
width = 214;
}
);
unicode = 00B9;
},
{
glyphname = ordmasculine;
lastChange = "2015-10-19 21:38:50 +0000";
layers = (
{
layerId = UUID0;
paths = (
{
closed = 1;
nodes = (
"127 667 OFFCURVE",
"104 625 OFFCURVE",
"104 528 CURVE SMOOTH",
"104 432 OFFCURVE",
"127 389 OFFCURVE",
"167 389 CURVE SMOOTH",
"210 389 OFFCURVE",
"231 432 OFFCURVE",
"231 528 CURVE SMOOTH",
"231 625 OFFCURVE",
"208 667 OFFCURVE",
"167 667 CURVE SMOOTH"
);
},
{
closed = 1;
nodes = (
"247 689 OFFCURVE",
"283 625 OFFCURVE",
"283 528 CURVE SMOOTH",
"283 432 OFFCURVE",
"247 367 OFFCURVE",
"167 367 CURVE SMOOTH",
"87 367 OFFCURVE",
"52 432 OFFCURVE",
"52 528 CURVE SMOOTH",
"52 625 OFFCURVE",
"87 689 OFFCURVE",
"167 689 CURVE SMOOTH"
);
}
);
width = 335;
},
{
layerId = "BAEEE752-CD63-427F-8763-260FDB7B8BAE";
paths = (
{
closed = 1;
nodes = (
"259 367 OFFCURVE",
"294 442 OFFCURVE",
"294 528 CURVE SMOOTH",
"294 615 OFFCURVE",
"259 689 OFFCURVE",
"168 689 CURVE SMOOTH",
"79 689 OFFCURVE",
"43 615 OFFCURVE",
"43 528 CURVE SMOOTH",
"43 442 OFFCURVE",
"79 367 OFFCURVE",
"168 367 CURVE SMOOTH"
);
},
{
closed = 1;
nodes = (
"138 392 OFFCURVE",
"115 422 OFFCURVE",
"115 528 CURVE SMOOTH",
"115 636 OFFCURVE",
"138 664 OFFCURVE",
"168 664 CURVE SMOOTH",
"199 664 OFFCURVE",
"222 636 OFFCURVE",
"222 528 CURVE SMOOTH",
"222 422 OFFCURVE",
"200 392 OFFCURVE",
"168 392 CURVE SMOOTH"
);
}
);
width = 337;
}
);
unicode = 00BA;
},
{
glyphname = guillemotright;
lastChange = "2016-03-24 05:08:16 +0000";
layers = (
{
layerId = UUID0;
paths = (
{
closed = 1;
nodes = (
"182 30 LINE",
"337 225 LINE",
"182 420 LINE",
"142 420 LINE",
"237 225 LINE",
"142 30 LINE"
);
},
{
closed = 1;
nodes = (
"97 80 LINE",
"197 225 LINE",
"97 370 LINE",
"57 370 LINE",
"117 225 LINE",
"57 80 LINE"
);
}
);
width = 372;
},
{
layerId = "BAEEE752-CD63-427F-8763-260FDB7B8BAE";
paths = (
{
closed = 1;
nodes = (
"236 30 LINE",
"394 225 LINE",
"236 420 LINE",
"172 420 LINE",
"269 226 LINE",
"172 30 LINE"
);
},
{
closed = 1;
nodes = (
"117 80 LINE",
"219 225 LINE",
"117 370 LINE",
"53 370 LINE",
"115 225 LINE",
"53 80 LINE"
);
}
);
width = 425;
}
);
leftKerningGroup = guilsinglright;
rightKerningGroup = guilsinglright;
unicode = 00BB;
},
{
glyphname = onequarter;
lastChange = "2016-03-24 04:15:19 +0000";
layers = (
{
layerId = UUID0;
paths = (
{
closed = 1;
nodes = (
"94 0 LINE",
"549 660 LINE",
"484 660 LINE",
"29 0 LINE"
);
},
{
closed = 1;
nodes = (
"460 255 LINE",
"460 100 LINE",
"342 100 LINE"
);
},
{
closed = 1;
nodes = (
"512 0 LINE",
"512 78 LINE",
"553 78 LINE",
"553 100 LINE",
"512 100 LINE",
"512 304 LINE",
"465 304 LINE",
"308 97 LINE",
"308 78 LINE",
"460 78 LINE",
"460 0 LINE"
);
},
{
closed = 1;
nodes = (
"158 377 LINE",
"158 680 LINE",
"119 680 LINE",
"54 616 LINE",
"65 600 LINE",
"106 624 LINE",
"106 377 LINE"
);
}
);
width = 596;
},
{
layerId = "BAEEE752-CD63-427F-8763-260FDB7B8BAE";
paths = (
{
closed = 1;
nodes = (
"121 0 LINE",
"576 660 LINE",
"481 660 LINE",
"26 0 LINE"
);
},
{
closed = 1;
nodes = (
"467 246 LINE",
"467 100 LINE",
"361 100 LINE"
);
},
{
closed = 1;
nodes = (
"539 0 LINE",
"539 73 LINE",
"573 73 LINE",
"573 100 LINE",
"539 100 LINE",
"539 304 LINE",
"472 304 LINE",
"322 97 LINE",
"322 73 LINE",
"467 73 LINE",
"467 0 LINE"
);
},
{
closed = 1;
nodes = (
"185 377 LINE",
"185 680 LINE",
"131 680 LINE",
"63 616 LINE",
"79 594 LINE",
"113 614 LINE",
"113 377 LINE"
);
}
);
width = 617;
}
);
unicode = 00BC;
},
{
glyphname = onehalf;
lastChange = "2016-03-24 04:15:24 +0000";
layers = (
{
layerId = UUID0;
paths = (
{
closed = 1;
nodes = (
"94 0 LINE",
"549 660 LINE",
"484 660 LINE",
"29 0 LINE"
);
},
{
closed = 1;
nodes = (
"524 0 LINE SMOOTH",
"556 0 OFFCURVE",
"563 17 OFFCURVE",
"563 36 CURVE SMOOTH",
"563 66 LINE",
"551 66 LINE",
"551 34 OFFCURVE",
"531 22 OFFCURVE",
"494 22 CURVE SMOOTH",
"403 22 LINE",
"486 103 OFFCURVE",
"559 146 OFFCURVE",
"559 225 CURVE SMOOTH",
"559 300 OFFCURVE",
"502 312 OFFCURVE",
"465 312 CURVE SMOOTH",
"429 312 OFFCURVE",
"395 296 OFFCURVE",
"378 276 CURVE",
"367 261 OFFCURVE",
"367 239 OFFCURVE",
"367 216 CURVE",
"379 216 LINE",
"388 267 OFFCURVE",
"415 290 OFFCURVE",
"452 290 CURVE SMOOTH",
"483 290 OFFCURVE",
"507 272 OFFCURVE",
"507 225 CURVE SMOOTH",
"507 156 OFFCURVE",
"459 117 OFFCURVE",
"363 23 CURVE",
"363 0 LINE"
);
},
{
closed = 1;
nodes = (
"158 377 LINE",
"158 680 LINE",
"119 680 LINE",
"54 616 LINE",
"65 600 LINE",
"106 624 LINE",
"106 377 LINE"
);
}
);
width = 613;
},
{
layerId = "BAEEE752-CD63-427F-8763-260FDB7B8BAE";
paths = (
{
closed = 1;
nodes = (
"121 0 LINE",
"576 660 LINE",
"481 660 LINE",
"26 0 LINE"
);
},
{
closed = 1;
nodes = (
"543 0 LINE SMOOTH",
"575 0 OFFCURVE",
"582 17 OFFCURVE",
"582 36 CURVE SMOOTH",
"582 71 LINE",
"567 71 LINE",
"567 39 OFFCURVE",
"547 27 OFFCURVE",
"510 27 CURVE SMOOTH",
"429 27 LINE",
"511 107 OFFCURVE",
"583 147 OFFCURVE",
"583 225 CURVE SMOOTH",
"583 294 OFFCURVE",
"527 312 OFFCURVE",
"479 312 CURVE SMOOTH",
"439 312 OFFCURVE",
"405 296 OFFCURVE",
"388 276 CURVE",
"377 261 OFFCURVE",
"377 229 OFFCURVE",
"377 206 CURVE",
"393 206 LINE",
"402 257 OFFCURVE",
"425 285 OFFCURVE",
"466 285 CURVE SMOOTH",
"494 285 OFFCURVE",
"511 272 OFFCURVE",
"511 225 CURVE SMOOTH",
"511 155 OFFCURVE",
"465 119 OFFCURVE",
"372 23 CURVE",
"372 0 LINE"
);
},
{
closed = 1;
nodes = (
"185 377 LINE",
"185 680 LINE",
"131 680 LINE",
"63 616 LINE",
"79 594 LINE",
"113 614 LINE",
"113 377 LINE"
);
}
);
width = 632;
}
);
unicode = 00BD;
},
{
glyphname = threequarters;
lastChange = "2016-03-24 04:15:29 +0000";
layers = (
{
layerId = UUID0;
paths = (
{
closed = 1;
nodes = (
"123 0 LINE",
"578 660 LINE",
"513 660 LINE",
"58 0 LINE"
);
},
{
closed = 1;
nodes = (
"478 255 LINE",
"478 100 LINE",
"360 100 LINE"
);
},
{
closed = 1;
nodes = (
"530 0 LINE",
"530 78 LINE",
"571 78 LINE",
"571 100 LINE",
"530 100 LINE",
"530 304 LINE",
"483 304 LINE",
"326 97 LINE",
"326 78 LINE",
"478 78 LINE",
"478 0 LINE"
);
},
{
closed = 1;
nodes = (
"178 367 OFFCURVE",
"252 381 OFFCURVE",
"252 462 CURVE SMOOTH",
"252 530 OFFCURVE",
"192 551 OFFCURVE",
"151 551 CURVE SMOOTH",
"144 551 OFFCURVE",
"126 551 OFFCURVE",
"110 547 CURVE",
"238 662 LINE",
"238 680 LINE",
"87 680 LINE SMOOTH",
"55 680 OFFCURVE",
"48 662 OFFCURVE",
"48 643 CURVE SMOOTH",
"48 613 LINE",
"57 613 LINE",
"57 646 OFFCURVE",
"78 658 OFFCURVE",
"114 658 CURVE SMOOTH",
"198 658 LINE",
"75 547 LINE",
"89 523 LINE",
"108 528 OFFCURVE",
"127 529 OFFCURVE",
"142 529 CURVE SMOOTH",
"169 529 OFFCURVE",
"200 510 OFFCURVE",
"200 462 CURVE SMOOTH",
"200 413 OFFCURVE",
"172 389 OFFCURVE",
"136 389 CURVE SMOOTH",
"102 389 OFFCURVE",
"74 401 OFFCURVE",
"52 425 CURVE",
"42 416 LINE",
"67 385 OFFCURVE",
"93 367 OFFCURVE",
"140 367 CURVE SMOOTH"
);
}
);
width = 614;
},
{
layerId = "BAEEE752-CD63-427F-8763-260FDB7B8BAE";
paths = (
{
closed = 1;
nodes = (
"140 0 LINE",
"595 660 LINE",
"500 660 LINE",
"45 0 LINE"
);
},
{
closed = 1;
nodes = (
"476 246 LINE",
"476 100 LINE",
"370 100 LINE"
);
},
{
closed = 1;
nodes = (
"548 0 LINE",
"548 73 LINE",
"582 73 LINE",
"582 100 LINE",
"548 100 LINE",
"548 304 LINE",
"481 304 LINE",
"331 97 LINE",
"331 73 LINE",
"476 73 LINE",
"476 0 LINE"
);
},
{
closed = 1;
nodes = (
"186 367 OFFCURVE",
"260 385 OFFCURVE",
"260 462 CURVE SMOOTH",
"260 525 OFFCURVE",
"201 551 OFFCURVE",
"149 551 CURVE SMOOTH",
"142 551 OFFCURVE",
"126 551 OFFCURVE",
"110 547 CURVE",
"238 662 LINE",
"238 680 LINE",
"85 680 LINE SMOOTH",
"53 680 OFFCURVE",
"46 662 OFFCURVE",
"46 643 CURVE SMOOTH",
"46 610 LINE",
"59 610 LINE",
"59 639 OFFCURVE",
"76 653 OFFCURVE",
"109 653 CURVE SMOOTH",
"187 653 LINE",
"69 546 LINE",
"85 518 LINE",
"104 523 OFFCURVE",
"113 524 OFFCURVE",
"128 524 CURVE SMOOTH",
"159 524 OFFCURVE",
"188 510 OFFCURVE",
"188 462 CURVE SMOOTH",
"188 413 OFFCURVE",
"161 394 OFFCURVE",
"134 394 CURVE SMOOTH",
"101 394 OFFCURVE",
"73 406 OFFCURVE",
"51 430 CURVE",
"37 418 LINE",
"62 387 OFFCURVE",
"92 367 OFFCURVE",
"148 367 CURVE SMOOTH"
);
}
);
width = 626;
}
);
unicode = 00BE;
},
{
glyphname = questiondown;
lastChange = "2016-03-24 04:21:11 +0000";
layers = (
{
layerId = UUID0;
paths = (
{
closed = 1;
nodes = (
"309 -212 OFFCURVE",
"384 -176 OFFCURVE",
"420 -132 CURVE SMOOTH",
"445 -101 OFFCURVE",
"445 -53 OFFCURVE",
"445 -2 CURVE",
"425 -2 LINE",
"405 -113 OFFCURVE",
"339 -172 OFFCURVE",
"259 -172 CURVE SMOOTH",
"190 -172 OFFCURVE",
"129 -122 OFFCURVE",
"129 -22 CURVE SMOOTH",
"129 127 OFFCURVE",
"275 148 OFFCURVE",
"279 312 CURVE",
"239 312 LINE",
"235 179 OFFCURVE",
"29 147 OFFCURVE",
"29 -22 CURVE SMOOTH",
"29 -182 OFFCURVE",
"149 -212 OFFCURVE",
"229 -212 CURVE SMOOTH"
);
},
{
closed = 1;
nodes = (
"290 372 OFFCURVE",
"313 396 OFFCURVE",
"313 427 CURVE SMOOTH",
"313 456 OFFCURVE",
"290 481 OFFCURVE",
"259 481 CURVE SMOOTH",
"230 481 OFFCURVE",
"204 456 OFFCURVE",
"204 427 CURVE SMOOTH",
"204 396 OFFCURVE",
"228 372 OFFCURVE",
"259 372 CURVE SMOOTH"
);
}
);
width = 473;
},
{
layerId = "BAEEE752-CD63-427F-8763-260FDB7B8BAE";
paths = (
{
closed = 1;
nodes = (
"323 -212 OFFCURVE",
"403 -174 OFFCURVE",
"440 -131 CURVE",
"467 -96 OFFCURVE",
"466 -38 OFFCURVE",
"466 21 CURVE",
"436 21 LINE",
"412 -114 OFFCURVE",
"346 -167 OFFCURVE",
"270 -167 CURVE SMOOTH",
"210 -167 OFFCURVE",
"166 -132 OFFCURVE",
"166 -19 CURVE SMOOTH",
"166 130 OFFCURVE",
"285 164 OFFCURVE",
"293 312 CURVE",
"225 312 LINE",
"213 169 OFFCURVE",
"26 149 OFFCURVE",
"26 -19 CURVE SMOOTH",
"26 -142 OFFCURVE",
"118 -212 OFFCURVE",
"240 -212 CURVE SMOOTH"
);
},
{
closed = 1;
nodes = (
"298 360 OFFCURVE",
"320 385 OFFCURVE",
"320 421 CURVE SMOOTH",
"320 457 OFFCURVE",
"298 482 OFFCURVE",
"259 482 CURVE SMOOTH",
"220 482 OFFCURVE",
"198 457 OFFCURVE",
"198 421 CURVE SMOOTH",
"198 385 OFFCURVE",
"220 360 OFFCURVE",
"259 360 CURVE SMOOTH"
);
}
);
width = 492;
}
);
unicode = 00BF;
},
{
glyphname = Aring;
lastChange = "2016-03-24 04:33:08 +0000";
layers = (
{
layerId = UUID0;
paths = (
{
closed = 1;
nodes = (
"637 -5 OFFCURVE",
"651 -3 OFFCURVE",
"662 0 CURVE",
"662 20 LINE",
"606 25 OFFCURVE",
"584 50 OFFCURVE",
"552 125 CURVE",
"347 625 LINE",
"372 636 OFFCURVE",
"402 660 OFFCURVE",
"402 705 CURVE SMOOTH",
"402 750 OFFCURVE",
"362 790 OFFCURVE",
"317 790 CURVE SMOOTH",
"272 790 OFFCURVE",
"232 750 OFFCURVE",
"232 705 CURVE SMOOTH",
"232 660 OFFCURVE",
"262 636 OFFCURVE",
"287 625 CURVE",
"22 0 LINE",
"67 0 LINE",
"147 190 LINE",
"427 190 LINE",
"452 125 LINE SMOOTH",
"495 9 OFFCURVE",
"577 -5 OFFCURVE",
"622 -5 CURVE SMOOTH"
);
},
{
closed = 1;
nodes = (
"287 520 LINE",
"407 230 LINE",
"162 230 LINE"
);
},
{
closed = 1;
nodes = (
"282 671 OFFCURVE",
"272 685 OFFCURVE",
"272 705 CURVE SMOOTH",
"272 736 OFFCURVE",
"292 755 OFFCURVE",
"317 755 CURVE SMOOTH",
"342 755 OFFCURVE",
"362 736 OFFCURVE",
"362 705 CURVE SMOOTH",
"362 685 OFFCURVE",
"352 671 OFFCURVE",
"337 660 CURVE",
"297 660 LINE"
);
}
);
width = 636;
},
{
layerId = "BAEEE752-CD63-427F-8763-260FDB7B8BAE";
paths = (
{
closed = 1;
nodes = (
"643 -4 OFFCURVE",
"665 -2 OFFCURVE",
"676 1 CURVE",
"676 26 LINE",
"631 31 OFFCURVE",
"596 67 OFFCURVE",
"572 126 CURVE SMOOTH",
"365 619 LINE",
"389 630 OFFCURVE",
"420 661 OFFCURVE",
"420 705 CURVE SMOOTH",
"420 761 OFFCURVE",
"381 800 OFFCURVE",
"325 800 CURVE SMOOTH",
"269 800 OFFCURVE",
"230 761 OFFCURVE",
"230 705 CURVE SMOOTH",
"230 661 OFFCURVE",
"260 631 OFFCURVE",
"284 619 CURVE",
"8 0 LINE",
"60 0 LINE",
"142 182 LINE",
"408 182 LINE",
"431 126 LINE SMOOTH",
"479 12 OFFCURVE",
"562 -4 OFFCURVE",
"628 -4 CURVE SMOOTH"
);
},
{
closed = 1;
nodes = (
"279 488 LINE",
"389 227 LINE",
"163 227 LINE"
);
},
{
closed = 1;
nodes = (
"288 670 OFFCURVE",
"280 685 OFFCURVE",
"280 705 CURVE SMOOTH",
"280 736 OFFCURVE",
"300 755 OFFCURVE",
"325 755 CURVE SMOOTH",
"350 755 OFFCURVE",
"370 736 OFFCURVE",
"370 705 CURVE SMOOTH",
"370 685 OFFCURVE",
"363 670 OFFCURVE",
"348 660 CURVE",
"303 660 LINE"
);
}
);
width = 647;
}
);
leftKerningGroup = A;
rightKerningGroup = A;
unicode = 00C5;
},
{
glyphname = AE;
lastChange = "2016-03-24 04:33:25 +0000";
layers = (
{
layerId = UUID0;
paths = (
{
closed = 1;
nodes = (
"36 0 LINE",
"141 190 LINE",
"381 190 LINE",
"381 0 LINE",
"726 0 LINE SMOOTH",
"766 0 OFFCURVE",
"790 19 OFFCURVE",
"801 50 CURVE SMOOTH",
"836 145 LINE",
"816 150 LINE",
"785 70 OFFCURVE",
"737 40 OFFCURVE",
"646 40 CURVE SMOOTH",
"471 40 LINE",
"471 320 LINE",
"741 320 LINE",
"741 360 LINE",
"471 360 LINE",
"471 620 LINE",
"657 620 LINE SMOOTH",
"737 620 OFFCURVE",
"782 585 OFFCURVE",
"782 505 CURVE",
"802 505 LINE",
"802 580 LINE SMOOTH",
"802 620 OFFCURVE",
"786 660 OFFCURVE",
"717 660 CURVE SMOOTH",
"356 660 LINE",
"-14 0 LINE"
);
},
{
closed = 1;
nodes = (
"381 615 LINE",
"381 230 LINE",
"166 230 LINE"
);
}
);
width = 865;
},
{
layerId = "BAEEE752-CD63-427F-8763-260FDB7B8BAE";
paths = (
{
closed = 1;
nodes = (
"38 0 LINE",
"145 190 LINE",
"363 190 LINE",
"363 0 LINE",
"733 0 LINE SMOOTH",
"788 0 OFFCURVE",
"805 27 OFFCURVE",
"820 70 CURVE SMOOTH",
"849 149 LINE",
"822 159 LINE",
"787 72 OFFCURVE",
"737 45 OFFCURVE",
"664 45 CURVE SMOOTH",
"493 45 LINE",
"493 320 LINE",
"753 320 LINE",
"753 365 LINE",
"493 365 LINE",
"493 615 LINE",
"654 615 LINE SMOOTH",
"734 615 OFFCURVE",
"779 580 OFFCURVE",
"779 495 CURVE",
"809 495 LINE",
"809 580 LINE SMOOTH",
"809 620 OFFCURVE",
"793 660 OFFCURVE",
"724 660 CURVE SMOOTH",
"348 660 LINE",
"-22 0 LINE"
);
},
{
closed = 1;
nodes = (
"363 579 LINE",
"363 235 LINE",
"170 235 LINE"
);
}
);
width = 868;
}
);
rightKerningGroup = E;
unicode = 00C6;
},
{
glyphname = Idieresis;
lastChange = "2016-03-24 05:08:13 +0000";
layers = (
{
layerId = UUID0;
paths = (
{
closed = 1;
nodes = (
"269 0 LINE",
"269 20 LINE",
"249 20 LINE SMOOTH",
"189 20 OFFCURVE",
"179 60 OFFCURVE",
"179 120 CURVE SMOOTH",
"179 660 LINE",
"89 660 LINE",
"89 120 LINE SMOOTH",
"89 20 OFFCURVE",
"109 0 OFFCURVE",
"179 0 CURVE SMOOTH"
);
},
{
closed = 1;
nodes = (
"88 715 OFFCURVE",
"107 734 OFFCURVE",
"107 765 CURVE SMOOTH",
"107 796 OFFCURVE",
"88 815 OFFCURVE",
"57 815 CURVE SMOOTH",
"26 815 OFFCURVE",
"7 796 OFFCURVE",
"7 765 CURVE SMOOTH",
"7 734 OFFCURVE",
"26 715 OFFCURVE",
"57 715 CURVE SMOOTH"
);
},
{
closed = 1;
nodes = (
"242 715 OFFCURVE",
"261 734 OFFCURVE",
"261 765 CURVE SMOOTH",
"261 796 OFFCURVE",
"242 815 OFFCURVE",
"211 815 CURVE SMOOTH",
"180 815 OFFCURVE",
"161 796 OFFCURVE",
"161 765 CURVE SMOOTH",
"161 734 OFFCURVE",
"180 715 OFFCURVE",
"211 715 CURVE SMOOTH"
);
}
);
width = 285;
},
{
layerId = "BAEEE752-CD63-427F-8763-260FDB7B8BAE";
paths = (
{
closed = 1;
nodes = (
"289 0 LINE",
"289 30 LINE",
"279 30 LINE SMOOTH",
"219 30 OFFCURVE",
"209 70 OFFCURVE",
"209 130 CURVE SMOOTH",
"209 660 LINE",
"79 660 LINE",
"79 130 LINE SMOOTH",
"79 29 OFFCURVE",
"99 0 OFFCURVE",
"169 0 CURVE SMOOTH"
);
},
{
closed = 1;
nodes = (
"96 715 OFFCURVE",
"117 740 OFFCURVE",
"117 771 CURVE SMOOTH",
"117 802 OFFCURVE",
"96 827 OFFCURVE",
"61 827 CURVE SMOOTH",
"26 827 OFFCURVE",
"5 802 OFFCURVE",
"5 771 CURVE SMOOTH",
"5 740 OFFCURVE",
"26 715 OFFCURVE",
"61 715 CURVE SMOOTH"
);
},
{
closed = 1;
nodes = (
"262 715 OFFCURVE",
"283 740 OFFCURVE",
"283 771 CURVE SMOOTH",
"283 802 OFFCURVE",
"262 827 OFFCURVE",
"227 827 CURVE SMOOTH",
"192 827 OFFCURVE",
"171 802 OFFCURVE",
"171 771 CURVE SMOOTH",
"171 740 OFFCURVE",
"192 715 OFFCURVE",
"227 715 CURVE SMOOTH"
);
}
);
width = 304;
}
);
leftKerningGroup = I;
rightKerningGroup = H;
unicode = 00CF;
},
{
glyphname = Eth;
lastChange = "2016-03-24 04:34:42 +0000";
layers = (
{
layerId = UUID0;
paths = (
{
closed = 1;
nodes = (
"304 0 LINE SMOOTH",
"546 0 OFFCURVE",
"671 139 OFFCURVE",
"671 334 CURVE SMOOTH",
"671 534 OFFCURVE",
"542 660 OFFCURVE",
"278 660 CURVE SMOOTH",
"16 660 LINE",
"16 640 LINE",
"36 640 LINE SMOOTH",
"96 640 OFFCURVE",
"106 600 OFFCURVE",
"106 540 CURVE SMOOTH",
"106 350 LINE",
"31 350 LINE",
"31 310 LINE",
"106 310 LINE",
"106 0 LINE"
);
},
{
closed = 1;
nodes = (
"272 35 OFFCURVE",
"238 39 OFFCURVE",
"199 48 CURVE",
"199 310 LINE",
"286 310 LINE",
"286 350 LINE",
"199 350 LINE",
"199 609 LINE",
"235 620 OFFCURVE",
"270 625 OFFCURVE",
"299 625 CURVE SMOOTH",
"452 625 OFFCURVE",
"562 507 OFFCURVE",
"562 330 CURVE SMOOTH",
"562 149 OFFCURVE",
"449 35 OFFCURVE",
"301 35 CURVE SMOOTH"
);
}
);
width = 715;
},
{
layerId = "BAEEE752-CD63-427F-8763-260FDB7B8BAE";
paths = (
{
closed = 1;
nodes = (
"313 0 LINE SMOOTH",
"565 0 OFFCURVE",
"700 137 OFFCURVE",
"700 334 CURVE SMOOTH",
"700 537 OFFCURVE",
"561 660 OFFCURVE",
"287 660 CURVE SMOOTH",
"15 660 LINE",
"15 630 LINE",
"25 630 LINE SMOOTH",
"85 630 OFFCURVE",
"95 590 OFFCURVE",
"95 530 CURVE SMOOTH",
"95 355 LINE",
"25 355 LINE",
"25 305 LINE",
"95 305 LINE",
"95 0 LINE"
);
},
{
closed = 1;
nodes = (
"278 40 OFFCURVE",
"268 39 OFFCURVE",
"225 47 CURVE",
"225 305 LINE",
"300 305 LINE",
"300 355 LINE",
"225 355 LINE",
"225 613 LINE",
"264 619 OFFCURVE",
"279 620 OFFCURVE",
"308 620 CURVE SMOOTH",
"452 620 OFFCURVE",
"550 506 OFFCURVE",
"550 330 CURVE SMOOTH",
"550 150 OFFCURVE",
"449 40 OFFCURVE",
"310 40 CURVE SMOOTH"
);
}
);
width = 736;
}
);
leftKerningGroup = B;
rightKerningGroup = D;
unicode = 00D0;
},
{
glyphname = multiply;
lastChange = "2016-03-24 05:08:11 +0000";
layers = (
{
layerId = UUID0;
paths = (
{
closed = 1;
nodes = (
"234 291 LINE",
"376 149 LINE",
"418 191 LINE",
"277 333 LINE",
"418 474 LINE",
"376 517 LINE",
"235 375 LINE",
"93 517 LINE",
"51 475 LINE",
"192 333 LINE",
"51 192 LINE",
"93 149 LINE"
);
}
);
width = 469;
},
{
layerId = "BAEEE752-CD63-427F-8763-260FDB7B8BAE";
paths = (
{
closed = 1;
nodes = (
"245 271 LINE",
"382 133 LINE",
"446 196 LINE",
"308 334 LINE",
"448 474 LINE",
"384 537 LINE",
"245 398 LINE",
"107 536 LINE",
"43 472 LINE",
"181 334 LINE",
"42 195 LINE",
"105 132 LINE"
);
}
);
width = 489;
}
);
unicode = 00D7;
},
{
glyphname = Oslash;
lastChange = "2016-03-24 05:16:41 +0000";
layers = (
{
layerId = UUID0;
paths = (
{
closed = 1;
nodes = (
"199 -20 LINE",
"216 12 LINE",
"257 -9 OFFCURVE",
"304 -20 OFFCURVE",
"356 -20 CURVE SMOOTH",
"546 -20 OFFCURVE",
"666 134 OFFCURVE",
"666 330 CURVE SMOOTH",
"666 450 OFFCURVE",
"621 551 OFFCURVE",
"544 615 CURVE",
"580 680 LINE",
"507 680 LINE",
"490 650 LINE",
"451 669 OFFCURVE",
"407 680 OFFCURVE",
"356 680 CURVE SMOOTH",
"166 680 OFFCURVE",
"46 526 OFFCURVE",
"46 330 CURVE SMOOTH",
"46 213 OFFCURVE",
"88 112 OFFCURVE",
"163 48 CURVE",
"126 -20 LINE"
);
},
{
closed = 1;
nodes = (
"164 164 OFFCURVE",
"146 238 OFFCURVE",
"146 330 CURVE SMOOTH",
"146 520 OFFCURVE",
"225 640 OFFCURVE",
"356 640 CURVE SMOOTH",
"397 640 OFFCURVE",
"434 628 OFFCURVE",
"465 604 CURVE",
"197 111 LINE"
);
},
{
closed = 1;
nodes = (
"313 20 OFFCURVE",
"275 33 OFFCURVE",
"242 59 CURVE",
"511 554 LINE",
"546 499 OFFCURVE",
"566 423 OFFCURVE",
"566 330 CURVE SMOOTH",
"566 140 OFFCURVE",
"487 20 OFFCURVE",
"356 20 CURVE SMOOTH"
);
}
);
width = 712;
},
{
layerId = "BAEEE752-CD63-427F-8763-260FDB7B8BAE";
paths = (
{
closed = 1;
nodes = (
"199 -20 LINE",
"219 13 LINE",
"262 -8 OFFCURVE",
"311 -20 OFFCURVE",
"367 -20 CURVE SMOOTH",
"566 -20 OFFCURVE",
"696 133 OFFCURVE",
"696 330 CURVE SMOOTH",
"696 446 OFFCURVE",
"652 543 OFFCURVE",
"576 607 CURVE",
"620 680 LINE",
"528 680 LINE",
"510 649 LINE",
"467 670 OFFCURVE",
"419 680 OFFCURVE",
"367 680 CURVE SMOOTH",
"168 680 OFFCURVE",
"37 527 OFFCURVE",
"37 330 CURVE SMOOTH",
"37 217 OFFCURVE",
"79 120 OFFCURVE",
"152 56 CURVE",
"107 -20 LINE"
);
},
{
closed = 1;
nodes = (
"321 25 OFFCURVE",
"283 40 OFFCURVE",
"253 70 CURVE",
"525 522 LINE",
"546 471 OFFCURVE",
"558 409 OFFCURVE",
"558 330 CURVE SMOOTH",
"558 135 OFFCURVE",
"488 25 OFFCURVE",
"367 25 CURVE SMOOTH"
);
},
{
closed = 1;
nodes = (
"187 195 OFFCURVE",
"177 257 OFFCURVE",
"177 330 CURVE SMOOTH",
"177 525 OFFCURVE",
"246 635 OFFCURVE",
"367 635 CURVE SMOOTH",
"408 635 OFFCURVE",
"445 621 OFFCURVE",
"476 593 CURVE",
"206 145 LINE"
);
}
);
width = 733;
}
);
leftKerningGroup = C;
rightKerningGroup = O;
unicode = 00D8;
},
{
glyphname = Thorn;
lastChange = "2016-03-24 04:33:25 +0000";
layers = (
{
layerId = UUID0;
paths = (
{
closed = 1;
nodes = (
"199 -30 LINE",
"199 80 LINE",
"400 80 OFFCURVE",
"509 159 OFFCURVE",
"509 315 CURVE SMOOTH",
"509 471 OFFCURVE",
"400 550 OFFCURVE",
"199 550 CURVE",
"199 600 LINE SMOOTH",
"199 669 OFFCURVE",
"178 690 OFFCURVE",
"109 690 CURVE SMOOTH",
"19 690 LINE",
"19 670 LINE",
"39 670 LINE SMOOTH",
"90 670 OFFCURVE",
"109 651 OFFCURVE",
"109 600 CURVE SMOOTH",
"109 -30 LINE"
);
},
{
closed = 1;
nodes = (
"199 510 LINE",
"349 510 OFFCURVE",
"409 430 OFFCURVE",
"409 315 CURVE SMOOTH",
"409 200 OFFCURVE",
"349 120 OFFCURVE",
"199 120 CURVE"
);
}
);
width = 535;
},
{
layerId = "BAEEE752-CD63-427F-8763-260FDB7B8BAE";
paths = (
{
closed = 1;
nodes = (
"227 -30 LINE",
"227 80 LINE",
"434 84 OFFCURVE",
"537 162 OFFCURVE",
"537 315 CURVE SMOOTH",
"537 466 OFFCURVE",
"434 545 OFFCURVE",
"227 550 CURVE",
"227 560 LINE SMOOTH",
"227 659 OFFCURVE",
"207 690 OFFCURVE",
"137 690 CURVE SMOOTH",
"17 690 LINE",
"17 660 LINE",
"27 660 LINE SMOOTH",
"87 660 OFFCURVE",
"97 620 OFFCURVE",
"97 560 CURVE SMOOTH",
"97 -30 LINE"
);
},
{
closed = 1;
nodes = (
"227 504 LINE",
"343 497 OFFCURVE",
"397 424 OFFCURVE",
"397 315 CURVE SMOOTH",
"397 206 OFFCURVE",
"344 133 OFFCURVE",
"227 125 CURVE"
);
}
);
width = 555;
}
);
leftKerningGroup = B;
unicode = 00DE;
},
{
glyphname = germandbls;
lastChange = "2016-03-24 04:33:25 +0000";
layers = (
{
layerId = UUID0;
paths = (
{
closed = 1;
nodes = (
"467 -10 OFFCURVE",
"527 29 OFFCURVE",
"527 120 CURVE SMOOTH",
"527 255 OFFCURVE",
"322 260 OFFCURVE",
"322 370 CURVE SMOOTH",
"322 461 OFFCURVE",
"437 460 OFFCURVE",
"437 570 CURVE SMOOTH",
"437 630 OFFCURVE",
"378 670 OFFCURVE",
"267 670 CURVE SMOOTH",
"162 670 OFFCURVE",
"72 640 OFFCURVE",
"72 500 CURVE SMOOTH",
"72 0 LINE",
"162 0 LINE",
"162 500 LINE SMOOTH",
"162 600 OFFCURVE",
"197 630 OFFCURVE",
"262 630 CURVE SMOOTH",
"322 630 OFFCURVE",
"352 601 OFFCURVE",
"352 550 CURVE SMOOTH",
"352 459 OFFCURVE",
"237 460 OFFCURVE",
"237 350 CURVE SMOOTH",
"237 215 OFFCURVE",
"442 210 OFFCURVE",
"442 100 CURVE SMOOTH",
"442 60 OFFCURVE",
"413 30 OFFCURVE",
"362 30 CURVE SMOOTH",
"302 30 OFFCURVE",
"257 70 OFFCURVE",
"252 110 CURVE",
"232 110 LINE",
"232 85 OFFCURVE",
"232 55 OFFCURVE",
"257 30 CURVE SMOOTH",
"282 5 OFFCURVE",
"331 -10 OFFCURVE",
"382 -10 CURVE SMOOTH"
);
}
);
width = 554;
},
{
layerId = "BAEEE752-CD63-427F-8763-260FDB7B8BAE";
paths = (
{
closed = 1;
nodes = (
"465 -10 OFFCURVE",
"555 29 OFFCURVE",
"555 120 CURVE SMOOTH",
"555 255 OFFCURVE",
"340 260 OFFCURVE",
"340 370 CURVE SMOOTH",
"340 439 OFFCURVE",
"465 461 OFFCURVE",
"465 570 CURVE SMOOTH",
"465 630 OFFCURVE",
"406 670 OFFCURVE",
"275 670 CURVE SMOOTH",
"150 670 OFFCURVE",
"60 640 OFFCURVE",
"60 500 CURVE SMOOTH",
"60 0 LINE",
"190 0 LINE",
"190 500 LINE SMOOTH",
"190 595 OFFCURVE",
"225 625 OFFCURVE",
"270 625 CURVE SMOOTH",
"310 625 OFFCURVE",
"340 601 OFFCURVE",
"340 550 CURVE SMOOTH",
"340 459 OFFCURVE",
"235 460 OFFCURVE",
"235 350 CURVE SMOOTH",
"235 215 OFFCURVE",
"430 210 OFFCURVE",
"430 100 CURVE SMOOTH",
"430 65 OFFCURVE",
"405 35 OFFCURVE",
"360 35 CURVE SMOOTH",
"300 35 OFFCURVE",
"265 80 OFFCURVE",
"260 120 CURVE",
"230 120 LINE",
"230 95 OFFCURVE",
"230 55 OFFCURVE",
"255 30 CURVE SMOOTH",
"280 5 OFFCURVE",
"329 -10 OFFCURVE",
"380 -10 CURVE SMOOTH"
);
}
);
width = 573;
}
);
unicode = 00DF;
},
{
glyphname = ae;
lastChange = "2016-03-24 04:52:55 +0000";
layers = (
{
layerId = UUID0;
paths = (
{
closed = 1;
nodes = (
"285 -10 OFFCURVE",
"330 20 OFFCURVE",
"359 75 CURVE",
"394 19 OFFCURVE",
"450 -10 OFFCURVE",
"529 -10 CURVE SMOOTH",
"605 -10 OFFCURVE",
"664 19 OFFCURVE",
"709 95 CURVE",
"689 110 LINE",
"654 59 OFFCURVE",
"614 30 OFFCURVE",
"549 30 CURVE SMOOTH",
"464 30 OFFCURVE",
"414 110 OFFCURVE",
"414 220 CURVE",
"712 220 LINE",
"714 260 LINE",
"714 401 OFFCURVE",
"650 480 OFFCURVE",
"514 480 CURVE SMOOTH",
"449 480 OFFCURVE",
"399 441 OFFCURVE",
"379 390 CURVE",
"359 441 OFFCURVE",
"310 480 OFFCURVE",
"239 480 CURVE SMOOTH",
"179 480 OFFCURVE",
"114 470 OFFCURVE",
"89 445 CURVE SMOOTH",
"64 420 OFFCURVE",
"64 390 OFFCURVE",
"64 355 CURVE",
"109 355 LINE",
"124 420 OFFCURVE",
"163 440 OFFCURVE",
"219 440 CURVE SMOOTH",
"279 440 OFFCURVE",
"324 410 OFFCURVE",
"324 260 CURVE",
"294 260 LINE SMOOTH",
"159 260 OFFCURVE",
"39 229 OFFCURVE",
"39 125 CURVE SMOOTH",
"39 21 OFFCURVE",
"129 -10 OFFCURVE",
"199 -10 CURVE SMOOTH"
);
},
{
closed = 1;
nodes = (
"178 35 OFFCURVE",
"134 65 OFFCURVE",
"134 125 CURVE SMOOTH",
"134 181 OFFCURVE",
"194 220 OFFCURVE",
"294 220 CURVE SMOOTH",
"324 220 LINE",
"324 95 LINE",
"304 64 OFFCURVE",
"278 35 OFFCURVE",
"229 35 CURVE SMOOTH"
);
},
{
closed = 1;
nodes = (
"414 360 OFFCURVE",
"459 435 OFFCURVE",
"519 435 CURVE SMOOTH",
"590 435 OFFCURVE",
"624 371 OFFCURVE",
"624 260 CURVE",
"414 260 LINE"
);
}
);
width = 759;
},
{
layerId = "BAEEE752-CD63-427F-8763-260FDB7B8BAE";
paths = (
{
closed = 1;
nodes = (
"302 -10 OFFCURVE",
"359 35 OFFCURVE",
"383 80 CURVE",
"423 20 OFFCURVE",
"480 -10 OFFCURVE",
"553 -10 CURVE SMOOTH",
"662 -10 OFFCURVE",
"713 50 OFFCURVE",
"742 95 CURVE",
"711 118 LINE",
"676 71 OFFCURVE",
"637 35 OFFCURVE",
"568 35 CURVE SMOOTH",
"504 35 OFFCURVE",
"459 83 OFFCURVE",
"458 207 CURVE SMOOTH",
"458 217 LINE",
"759 217 LINE",
"763 280 LINE",
"763 400 OFFCURVE",
"669 480 OFFCURVE",
"553 480 CURVE SMOOTH",
"489 480 OFFCURVE",
"432 450 OFFCURVE",
"393 389 CURVE",
"362 445 OFFCURVE",
"303 480 OFFCURVE",
"218 480 CURVE SMOOTH",
"173 480 OFFCURVE",
"111 471 OFFCURVE",
"88 445 CURVE SMOOTH",
"64 418 OFFCURVE",
"63 380 OFFCURVE",
"63 345 CURVE",
"118 345 LINE",
"134 420 OFFCURVE",
"173 435 OFFCURVE",
"218 435 CURVE SMOOTH",
"283 435 OFFCURVE",
"318 383 OFFCURVE",
"318 262 CURVE",
"303 262 LINE SMOOTH",
"87 262 OFFCURVE",
"28 205 OFFCURVE",
"28 120 CURVE SMOOTH",
"28 45 OFFCURVE",
"88 -10 OFFCURVE",
"208 -10 CURVE SMOOTH"
);
},
{
closed = 1;
nodes = (
"188 40 OFFCURVE",
"163 75 OFFCURVE",
"163 120 CURVE SMOOTH",
"163 180 OFFCURVE",
"187 217 OFFCURVE",
"303 217 CURVE SMOOTH",
"318 217 LINE",
"318 105 LINE",
"305 78 OFFCURVE",
"278 40 OFFCURVE",
"228 40 CURVE SMOOTH"
);
},
{
closed = 1;
nodes = (
"458 385 OFFCURVE",
"498 435 OFFCURVE",
"543 435 CURVE SMOOTH",
"592 435 OFFCURVE",
"628 385 OFFCURVE",
"628 262 CURVE",
"458 262 LINE"
);
}
);
width = 795;
}
);
leftKerningGroup = a;
rightKerningGroup = e;
unicode = 00E6;
},
{
glyphname = idieresis;
lastChange = "2016-03-24 04:33:25 +0000";
layers = (
{
layerId = UUID0;
paths = (
{
closed = 1;
nodes = (
"177 0 LINE",
"177 350 LINE SMOOTH",
"177 450 OFFCURVE",
"157 470 OFFCURVE",
"87 470 CURVE SMOOTH",
"-3 470 LINE",
"-3 450 LINE",
"17 450 LINE SMOOTH",
"77 450 OFFCURVE",
"87 410 OFFCURVE",
"87 350 CURVE SMOOTH",
"87 0 LINE"
);
},
{
closed = 1;
nodes = (
"80 540 OFFCURVE",
"98 557 OFFCURVE",
"98 585 CURVE SMOOTH",
"98 620 OFFCURVE",
"73 649 OFFCURVE",
"42 649 CURVE SMOOTH",
"14 649 OFFCURVE",
"-4 632 OFFCURVE",
"-4 604 CURVE SMOOTH",
"-4 569 OFFCURVE",
"21 540 OFFCURVE",
"52 540 CURVE SMOOTH"
);
},
{
closed = 1;
nodes = (
"234 540 OFFCURVE",
"252 557 OFFCURVE",
"252 585 CURVE SMOOTH",
"252 620 OFFCURVE",
"227 649 OFFCURVE",
"196 649 CURVE SMOOTH",
"168 649 OFFCURVE",
"150 632 OFFCURVE",
"150 604 CURVE SMOOTH",
"150 569 OFFCURVE",
"175 540 OFFCURVE",
"206 540 CURVE SMOOTH"
);
}
);
width = 246;
},
{
layerId = "BAEEE752-CD63-427F-8763-260FDB7B8BAE";
paths = (
{
closed = 1;
nodes = (
"209 0 LINE",
"209 340 LINE SMOOTH",
"209 439 OFFCURVE",
"189 470 OFFCURVE",
"119 470 CURVE SMOOTH",
"-1 470 LINE",
"-1 440 LINE",
"9 440 LINE SMOOTH",
"69 440 OFFCURVE",
"79 400 OFFCURVE",
"79 340 CURVE SMOOTH",
"79 0 LINE"
);
},
{
closed = 1;
nodes = (
"85 534 OFFCURVE",
"109 555 OFFCURVE",
"109 590 CURVE SMOOTH",
"109 630 OFFCURVE",
"85 666 OFFCURVE",
"34 666 CURVE SMOOTH",
"3 666 OFFCURVE",
"-21 645 OFFCURVE",
"-21 610 CURVE SMOOTH",
"-21 570 OFFCURVE",
"3 534 OFFCURVE",
"54 534 CURVE SMOOTH"
);
},
{
closed = 1;
nodes = (
"270 534 OFFCURVE",
"294 555 OFFCURVE",
"294 590 CURVE SMOOTH",
"294 630 OFFCURVE",
"270 666 OFFCURVE",
"219 666 CURVE SMOOTH",
"188 666 OFFCURVE",
"164 645 OFFCURVE",
"164 610 CURVE SMOOTH",
"164 570 OFFCURVE",
"188 534 OFFCURVE",
"239 534 CURVE SMOOTH"
);
}
);
width = 267;
}
);
leftKerningGroup = i;
rightKerningGroup = i;
unicode = 00EF;
},
{
glyphname = eth;
lastChange = "2016-03-24 04:50:18 +0000";
layers = (
{
layerId = UUID0;
paths = (
{
closed = 1;
nodes = (
"404 -10 OFFCURVE",
"484 100 OFFCURVE",
"484 270 CURVE SMOOTH",
"484 421 OFFCURVE",
"440 534 OFFCURVE",
"369 605 CURVE",
"404 640 LINE",
"374 670 LINE",
"339 630 LINE",
"304 655 OFFCURVE",
"264 670 OFFCURVE",
"224 670 CURVE SMOOTH",
"189 670 OFFCURVE",
"159 667 OFFCURVE",
"132 648 CURVE",
"140 629 LINE",
"148 632 OFFCURVE",
"168 635 OFFCURVE",
"184 635 CURVE SMOOTH",
"235 635 OFFCURVE",
"263 621 OFFCURVE",
"294 590 CURVE",
"254 550 LINE",
"284 520 LINE",
"324 560 LINE",
"359 520 OFFCURVE",
"379 471 OFFCURVE",
"394 400 CURVE",
"369 451 OFFCURVE",
"320 480 OFFCURVE",
"264 480 CURVE SMOOTH",
"124 480 OFFCURVE",
"44 370 OFFCURVE",
"44 235 CURVE SMOOTH",
"44 100 OFFCURVE",
"124 -10 OFFCURVE",
"264 -10 CURVE SMOOTH"
);
},
{
closed = 1;
nodes = (
"189 30 OFFCURVE",
"139 120 OFFCURVE",
"139 235 CURVE SMOOTH",
"139 350 OFFCURVE",
"189 440 OFFCURVE",
"264 440 CURVE SMOOTH",
"339 440 OFFCURVE",
"389 350 OFFCURVE",
"389 235 CURVE SMOOTH",
"389 120 OFFCURVE",
"339 30 OFFCURVE",
"264 30 CURVE SMOOTH"
);
}
);
width = 537;
},
{
layerId = "BAEEE752-CD63-427F-8763-260FDB7B8BAE";
paths = (
{
closed = 1;
nodes = (
"436 -10 OFFCURVE",
"516 100 OFFCURVE",
"516 270 CURVE SMOOTH",
"516 418 OFFCURVE",
"460 533 OFFCURVE",
"385 600 CURVE",
"427 642 LINE",
"387 680 LINE",
"344 634 LINE",
"311 657 OFFCURVE",
"273 670 OFFCURVE",
"216 670 CURVE SMOOTH",
"191 670 OFFCURVE",
"153 663 OFFCURVE",
"129 648 CURVE",
"143 616 LINE",
"153 619 OFFCURVE",
"172 625 OFFCURVE",
"196 625 CURVE SMOOTH",
"233 625 OFFCURVE",
"272 622 OFFCURVE",
"300 595 CURVE",
"253 548 LINE",
"293 508 LINE",
"340 555 LINE",
"372 516 OFFCURVE",
"391 468 OFFCURVE",
"406 400 CURVE",
"381 451 OFFCURVE",
"331 480 OFFCURVE",
"266 480 CURVE SMOOTH",
"117 480 OFFCURVE",
"36 370 OFFCURVE",
"36 235 CURVE SMOOTH",
"36 100 OFFCURVE",
"116 -10 OFFCURVE",
"276 -10 CURVE SMOOTH"
);
},
{
closed = 1;
nodes = (
"220 35 OFFCURVE",
"171 100 OFFCURVE",
"171 235 CURVE SMOOTH",
"171 330 OFFCURVE",
"201 435 OFFCURVE",
"276 435 CURVE SMOOTH",
"351 435 OFFCURVE",
"381 330 OFFCURVE",
"381 235 CURVE SMOOTH",
"381 100 OFFCURVE",
"332 35 OFFCURVE",
"276 35 CURVE SMOOTH"
);
}
);
width = 557;
}
);
leftKerningGroup = c;
unicode = 00F0;
},
{
glyphname = divide;
lastChange = "2016-03-24 05:08:09 +0000";
layers = (
{
layerId = UUID0;
paths = (
{
closed = 1;
nodes = (
"502 300 LINE",
"502 360 LINE",
"62 360 LINE",
"62 300 LINE"
);
},
{
closed = 1;
nodes = (
"307 145 OFFCURVE",
"327 165 OFFCURVE",
"327 190 CURVE SMOOTH",
"327 215 OFFCURVE",
"307 235 OFFCURVE",
"282 235 CURVE SMOOTH",
"257 235 OFFCURVE",
"237 215 OFFCURVE",
"237 190 CURVE SMOOTH",
"237 165 OFFCURVE",
"257 145 OFFCURVE",
"282 145 CURVE SMOOTH"
);
},
{
closed = 1;
nodes = (
"307 425 OFFCURVE",
"327 445 OFFCURVE",
"327 470 CURVE SMOOTH",
"327 495 OFFCURVE",
"307 515 OFFCURVE",
"282 515 CURVE SMOOTH",
"257 515 OFFCURVE",
"237 495 OFFCURVE",
"237 470 CURVE SMOOTH",
"237 445 OFFCURVE",
"257 425 OFFCURVE",
"282 425 CURVE SMOOTH"
);
}
);
width = 564;
},
{
layerId = "BAEEE752-CD63-427F-8763-260FDB7B8BAE";
paths = (
{
closed = 1;
nodes = (
"504 297 LINE",
"504 362 LINE",
"44 362 LINE",
"44 297 LINE"
);
},
{
closed = 1;
nodes = (
"309 123 OFFCURVE",
"330 148 OFFCURVE",
"330 179 CURVE SMOOTH",
"330 210 OFFCURVE",
"309 235 OFFCURVE",
"274 235 CURVE SMOOTH",
"239 235 OFFCURVE",
"218 210 OFFCURVE",
"218 179 CURVE SMOOTH",
"218 148 OFFCURVE",
"239 123 OFFCURVE",
"274 123 CURVE SMOOTH"
);
},
{
closed = 1;
nodes = (
"309 425 OFFCURVE",
"330 450 OFFCURVE",
"330 481 CURVE SMOOTH",
"330 512 OFFCURVE",
"309 537 OFFCURVE",
"274 537 CURVE SMOOTH",
"239 537 OFFCURVE",
"218 512 OFFCURVE",
"218 481 CURVE SMOOTH",
"218 450 OFFCURVE",
"239 425 OFFCURVE",
"274 425 CURVE SMOOTH"
);
}
);
width = 548;
}
);
unicode = 00F7;
},
{
glyphname = oslash;
lastChange = "2016-03-24 04:50:07 +0000";
layers = (
{
layerId = UUID0;
paths = (
{
closed = 1;
nodes = (
"405 -10 OFFCURVE",
"485 100 OFFCURVE",
"485 235 CURVE SMOOTH",
"485 304 OFFCURVE",
"463 367 OFFCURVE",
"424 411 CURVE",
"465 470 LINE",
"392 470 LINE",
"378 450 LINE",
"347 469 OFFCURVE",
"309 480 OFFCURVE",
"265 480 CURVE SMOOTH",
"125 480 OFFCURVE",
"45 370 OFFCURVE",
"45 235 CURVE SMOOTH",
"45 164 OFFCURVE",
"66 103 OFFCURVE",
"105 58 CURVE",
"65 0 LINE",
"138 0 LINE",
"151 20 LINE",
"183 1 OFFCURVE",
"221 -10 OFFCURVE",
"265 -10 CURVE SMOOTH"
);
},
{
closed = 1;
nodes = (
"234 30 OFFCURVE",
"208 44 OFFCURVE",
"187 71 CURVE",
"374 339 LINE",
"385 308 OFFCURVE",
"390 274 OFFCURVE",
"390 235 CURVE SMOOTH",
"390 120 OFFCURVE",
"340 30 OFFCURVE",
"265 30 CURVE SMOOTH"
);
},
{
closed = 1;
nodes = (
"145 162 OFFCURVE",
"140 196 OFFCURVE",
"140 235 CURVE SMOOTH",
"140 350 OFFCURVE",
"190 440 OFFCURVE",
"265 440 CURVE SMOOTH",
"295 440 OFFCURVE",
"321 426 OFFCURVE",
"343 399 CURVE",
"156 131 LINE"
);
}
);
width = 530;
},
{
layerId = "BAEEE752-CD63-427F-8763-260FDB7B8BAE";
paths = (
{
closed = 1;
nodes = (
"425 -10 OFFCURVE",
"516 98 OFFCURVE",
"516 235 CURVE SMOOTH",
"516 304 OFFCURVE",
"494 366 OFFCURVE",
"451 410 CURVE",
"496 470 LINE",
"404 470 LINE",
"392 454 LINE",
"359 470 OFFCURVE",
"320 480 OFFCURVE",
"276 480 CURVE SMOOTH",
"127 480 OFFCURVE",
"36 372 OFFCURVE",
"36 235 CURVE SMOOTH",
"36 166 OFFCURVE",
"59 104 OFFCURVE",
"100 60 CURVE",
"56 0 LINE",
"148 0 LINE",
"160 16 LINE",
"193 0 OFFCURVE",
"232 -10 OFFCURVE",
"276 -10 CURVE SMOOTH"
);
},
{
closed = 1;
nodes = (
"245 35 OFFCURVE",
"222 50 OFFCURVE",
"205 77 CURVE",
"375 307 LINE",
"379 285 OFFCURVE",
"381 261 OFFCURVE",
"381 235 CURVE SMOOTH",
"381 120 OFFCURVE",
"346 35 OFFCURVE",
"276 35 CURVE SMOOTH"
);
},
{
closed = 1;
nodes = (
"172 185 OFFCURVE",
"171 208 OFFCURVE",
"171 235 CURVE SMOOTH",
"171 350 OFFCURVE",
"206 435 OFFCURVE",
"276 435 CURVE SMOOTH",
"307 435 OFFCURVE",
"329 419 OFFCURVE",
"346 392 CURVE",
"176 162 LINE"
);
}
);
width = 552;
}
);
leftKerningGroup = c;
rightKerningGroup = b;
unicode = 00F8;
},
{
glyphname = thorn;
lastChange = "2016-03-24 05:14:09 +0000";
layers = (
{
layerId = UUID0;
paths = (
{
closed = 1;
nodes = (
"162 -190 LINE",
"162 20 LINE",
"193 5 OFFCURVE",
"231 -10 OFFCURVE",
"287 -10 CURVE SMOOTH",
"417 -10 OFFCURVE",
"477 100 OFFCURVE",
"477 235 CURVE SMOOTH",
"477 370 OFFCURVE",
"416 480 OFFCURVE",
"297 480 CURVE SMOOTH",
"222 480 OFFCURVE",
"182 450 OFFCURVE",
"162 425 CURVE",
"162 540 LINE SMOOTH",
"162 640 OFFCURVE",
"142 660 OFFCURVE",
"72 660 CURVE SMOOTH",
"-13 660 LINE",
"-13 640 LINE",
"2 640 LINE SMOOTH",
"62 640 OFFCURVE",
"72 600 OFFCURVE",
"72 540 CURVE SMOOTH",
"72 -190 LINE"
);
},
{
closed = 1;
nodes = (
"226 30 OFFCURVE",
"193 45 OFFCURVE",
"162 60 CURVE",
"162 380 LINE",
"181 410 OFFCURVE",
"212 440 OFFCURVE",
"267 440 CURVE SMOOTH",
"347 440 OFFCURVE",
"382 350 OFFCURVE",
"382 235 CURVE SMOOTH",
"382 120 OFFCURVE",
"347 30 OFFCURVE",
"257 30 CURVE SMOOTH"
);
}
);
width = 523;
},
{
layerId = "BAEEE752-CD63-427F-8763-260FDB7B8BAE";
paths = (
{
closed = 1;
nodes = (
"190 -190 LINE",
"190 10 LINE",
"217 -1 OFFCURVE",
"251 -10 OFFCURVE",
"294 -10 CURVE SMOOTH",
"439 -10 OFFCURVE",
"504 90 OFFCURVE",
"504 235 CURVE SMOOTH",
"504 380 OFFCURVE",
"439 480 OFFCURVE",
"304 480 CURVE SMOOTH",
"248 480 OFFCURVE",
"213 464 OFFCURVE",
"190 445 CURVE",
"190 530 LINE SMOOTH",
"190 629 OFFCURVE",
"170 660 OFFCURVE",
"100 660 CURVE SMOOTH",
"-20 660 LINE",
"-20 630 LINE",
"-10 630 LINE SMOOTH",
"50 630 OFFCURVE",
"60 590 OFFCURVE",
"60 530 CURVE SMOOTH",
"60 -190 LINE"
);
},
{
closed = 1;
nodes = (
"239 35 OFFCURVE",
"214 41 OFFCURVE",
"190 50 CURVE",
"190 405 LINE",
"209 422 OFFCURVE",
"234 435 OFFCURVE",
"269 435 CURVE SMOOTH",
"329 435 OFFCURVE",
"369 360 OFFCURVE",
"369 235 CURVE SMOOTH",
"369 110 OFFCURVE",
"330 35 OFFCURVE",
"259 35 CURVE SMOOTH"
);
}
);
width = 542;
}
);
leftKerningGroup = b;
rightKerningGroup = b;
unicode = 00FE;
},
{
glyphname = Idotaccent;
lastChange = "2016-03-24 05:08:06 +0000";
layers = (
{
layerId = UUID0;
paths = (
{
closed = 1;
nodes = (
"269 0 LINE",
"269 20 LINE",
"249 20 LINE SMOOTH",
"189 20 OFFCURVE",
"179 60 OFFCURVE",
"179 120 CURVE SMOOTH",
"179 660 LINE",
"89 660 LINE",
"89 120 LINE SMOOTH",
"89 20 OFFCURVE",
"109 0 OFFCURVE",
"179 0 CURVE SMOOTH"
);
},
{
closed = 1;
nodes = (
"165 710 OFFCURVE",
"183 727 OFFCURVE",
"183 755 CURVE SMOOTH",
"183 790 OFFCURVE",
"158 819 OFFCURVE",
"127 819 CURVE SMOOTH",
"99 819 OFFCURVE",
"81 802 OFFCURVE",
"81 774 CURVE SMOOTH",
"81 739 OFFCURVE",
"106 710 OFFCURVE",
"137 710 CURVE SMOOTH"
);
}
);
width = 285;
},
{
layerId = "BAEEE752-CD63-427F-8763-260FDB7B8BAE";
paths = (
{
closed = 1;
nodes = (
"289 0 LINE",
"289 30 LINE",
"279 30 LINE SMOOTH",
"219 30 OFFCURVE",
"209 70 OFFCURVE",
"209 130 CURVE SMOOTH",
"209 660 LINE",
"79 660 LINE",
"79 130 LINE SMOOTH",
"79 29 OFFCURVE",
"99 0 OFFCURVE",
"169 0 CURVE SMOOTH"
);
},
{
closed = 1;
nodes = (
"180 714 OFFCURVE",
"204 735 OFFCURVE",
"204 770 CURVE SMOOTH",
"204 810 OFFCURVE",
"180 846 OFFCURVE",
"129 846 CURVE SMOOTH",
"98 846 OFFCURVE",
"74 825 OFFCURVE",
"74 790 CURVE SMOOTH",
"74 750 OFFCURVE",
"98 714 OFFCURVE",
"149 714 CURVE SMOOTH"
);
}
);
width = 304;
}
);
leftKerningGroup = I;
rightKerningGroup = H;
unicode = 0130;
},
{
glyphname = dotlessi;
lastChange = "2016-03-24 04:44:54 +0000";
layers = (
{
layerId = UUID0;
paths = (
{
closed = 1;
nodes = (
"177 0 LINE",
"177 350 LINE SMOOTH",
"177 450 OFFCURVE",
"157 470 OFFCURVE",
"87 470 CURVE SMOOTH",
"-3 470 LINE",
"-3 450 LINE",
"17 450 LINE SMOOTH",
"77 450 OFFCURVE",
"87 410 OFFCURVE",
"87 350 CURVE SMOOTH",
"87 0 LINE"
);
}
);
width = 246;
},
{
layerId = "BAEEE752-CD63-427F-8763-260FDB7B8BAE";
paths = (
{
closed = 1;
nodes = (
"209 0 LINE",
"209 340 LINE SMOOTH",
"209 439 OFFCURVE",
"189 470 OFFCURVE",
"119 470 CURVE SMOOTH",
"-1 470 LINE",
"-1 440 LINE",
"9 440 LINE SMOOTH",
"69 440 OFFCURVE",
"79 400 OFFCURVE",
"79 340 CURVE SMOOTH",
"79 0 LINE"
);
}
);
width = 267;
}
);
leftKerningGroup = i;
rightKerningGroup = i;
unicode = 0131;
},
{
glyphname = OE;
lastChange = "2016-03-24 04:44:54 +0000";
layers = (
{
layerId = UUID0;
paths = (
{
closed = 1;
nodes = (
"396 -20 OFFCURVE",
"431 -15 OFFCURVE",
"466 0 CURVE",
"806 0 LINE SMOOTH",
"846 0 OFFCURVE",
"870 19 OFFCURVE",
"881 50 CURVE SMOOTH",
"916 145 LINE",
"896 150 LINE",
"865 70 OFFCURVE",
"817 40 OFFCURVE",
"726 40 CURVE SMOOTH",
"551 40 LINE",
"551 320 LINE",
"821 320 LINE",
"821 360 LINE",
"551 360 LINE",
"551 620 LINE",
"737 620 LINE SMOOTH",
"817 620 OFFCURVE",
"862 585 OFFCURVE",
"862 505 CURVE",
"882 505 LINE",
"882 580 LINE SMOOTH",
"882 620 OFFCURVE",
"866 660 OFFCURVE",
"797 660 CURVE SMOOTH",
"466 660 LINE",
"431 675 OFFCURVE",
"396 680 OFFCURVE",
"356 680 CURVE SMOOTH",
"166 680 OFFCURVE",
"46 526 OFFCURVE",
"46 330 CURVE SMOOTH",
"46 134 OFFCURVE",
"166 -20 OFFCURVE",
"356 -20 CURVE SMOOTH"
);
},
{
closed = 1;
nodes = (
"225 20 OFFCURVE",
"146 140 OFFCURVE",
"146 330 CURVE SMOOTH",
"146 520 OFFCURVE",
"225 640 OFFCURVE",
"356 640 CURVE SMOOTH",
"396 640 OFFCURVE",
"431 630 OFFCURVE",
"461 610 CURVE",
"461 52 LINE",
"432 31 OFFCURVE",
"397 20 OFFCURVE",
"356 20 CURVE SMOOTH"
);
}
);
width = 945;
},
{
layerId = "BAEEE752-CD63-427F-8763-260FDB7B8BAE";
paths = (
{
closed = 1;
nodes = (
"412 -20 OFFCURVE",
"447 -15 OFFCURVE",
"482 0 CURVE",
"822 0 LINE SMOOTH",
"877 0 OFFCURVE",
"894 27 OFFCURVE",
"909 70 CURVE SMOOTH",
"938 149 LINE",
"911 159 LINE",
"876 72 OFFCURVE",
"826 45 OFFCURVE",
"753 45 CURVE SMOOTH",
"582 45 LINE",
"582 320 LINE",
"842 320 LINE",
"842 365 LINE",
"582 365 LINE",
"582 615 LINE",
"743 615 LINE SMOOTH",
"823 615 OFFCURVE",
"868 580 OFFCURVE",
"868 495 CURVE",
"898 495 LINE",
"898 580 LINE SMOOTH",
"898 620 OFFCURVE",
"882 660 OFFCURVE",
"813 660 CURVE SMOOTH",
"482 660 LINE",
"451 671 OFFCURVE",
"423 680 OFFCURVE",
"367 680 CURVE SMOOTH",
"168 680 OFFCURVE",
"37 527 OFFCURVE",
"37 330 CURVE SMOOTH",
"37 133 OFFCURVE",
"168 -20 OFFCURVE",
"367 -20 CURVE SMOOTH"
);
},
{
closed = 1;
nodes = (
"246 25 OFFCURVE",
"177 135 OFFCURVE",
"177 330 CURVE SMOOTH",
"177 525 OFFCURVE",
"246 635 OFFCURVE",
"367 635 CURVE SMOOTH",
"398 635 OFFCURVE",
"427 627 OFFCURVE",
"452 611 CURVE",
"452 48 LINE",
"427 33 OFFCURVE",
"398 25 OFFCURVE",
"367 25 CURVE SMOOTH"
);
}
);
width = 957;
}
);
leftKerningGroup = C;
rightKerningGroup = E;
unicode = 0152;
},
{
glyphname = oe;
lastChange = "2016-03-24 05:09:00 +0000";
layers = (
{
layerId = UUID0;
paths = (
{
closed = 1;
nodes = (
"330 -10 OFFCURVE",
"380 15 OFFCURVE",
"415 50 CURVE",
"450 15 OFFCURVE",
"500 -10 OFFCURVE",
"565 -10 CURVE SMOOTH",
"641 -10 OFFCURVE",
"700 19 OFFCURVE",
"745 95 CURVE",
"725 110 LINE",
"690 59 OFFCURVE",
"650 30 OFFCURVE",
"585 30 CURVE SMOOTH",
"500 30 OFFCURVE",
"450 110 OFFCURVE",
"450 220 CURVE",
"748 220 LINE",
"750 260 LINE",
"750 401 OFFCURVE",
"686 480 OFFCURVE",
"550 480 CURVE SMOOTH",
"493 480 OFFCURVE",
"448 458 OFFCURVE",
"416 421 CURVE",
"380 460 OFFCURVE",
"330 480 OFFCURVE",
"265 480 CURVE SMOOTH",
"125 480 OFFCURVE",
"45 370 OFFCURVE",
"45 235 CURVE SMOOTH",
"45 100 OFFCURVE",
"125 -10 OFFCURVE",
"265 -10 CURVE SMOOTH"
);
},
{
closed = 1;
nodes = (
"190 30 OFFCURVE",
"140 120 OFFCURVE",
"140 235 CURVE SMOOTH",
"140 350 OFFCURVE",
"190 440 OFFCURVE",
"265 440 CURVE SMOOTH",
"316 440 OFFCURVE",
"355 401 OFFCURVE",
"375 345 CURVE",
"364 320 OFFCURVE",
"355 280 OFFCURVE",
"355 235 CURVE SMOOTH",
"355 190 OFFCURVE",
"364 150 OFFCURVE",
"375 125 CURVE",
"350 65 OFFCURVE",
"316 30 OFFCURVE",
"265 30 CURVE SMOOTH"
);
},
{
closed = 1;
nodes = (
"450 360 OFFCURVE",
"495 435 OFFCURVE",
"555 435 CURVE SMOOTH",
"626 435 OFFCURVE",
"660 371 OFFCURVE",
"660 260 CURVE",
"450 260 LINE"
);
}
);
width = 795;
},
{
layerId = "BAEEE752-CD63-427F-8763-260FDB7B8BAE";
paths = (
{
closed = 1;
nodes = (
"348 -10 OFFCURVE",
"406 15 OFFCURVE",
"447 56 CURVE",
"487 13 OFFCURVE",
"543 -10 OFFCURVE",
"611 -10 CURVE SMOOTH",
"720 -10 OFFCURVE",
"771 50 OFFCURVE",
"800 95 CURVE",
"769 118 LINE",
"734 71 OFFCURVE",
"695 35 OFFCURVE",
"626 35 CURVE SMOOTH",
"561 35 OFFCURVE",
"516 85 OFFCURVE",
"516 217 CURVE",
"817 217 LINE",
"819 237 LINE SMOOTH",
"820 249 OFFCURVE",
"821 265 OFFCURVE",
"821 280 CURVE SMOOTH",
"821 400 OFFCURVE",
"725 480 OFFCURVE",
"601 480 CURVE SMOOTH",
"536 480 OFFCURVE",
"484 459 OFFCURVE",
"444 417 CURVE",
"403 456 OFFCURVE",
"347 480 OFFCURVE",
"276 480 CURVE SMOOTH",
"127 480 OFFCURVE",
"36 372 OFFCURVE",
"36 235 CURVE SMOOTH",
"36 98 OFFCURVE",
"127 -10 OFFCURVE",
"276 -10 CURVE SMOOTH"
);
},
{
closed = 1;
nodes = (
"206 35 OFFCURVE",
"171 120 OFFCURVE",
"171 235 CURVE SMOOTH",
"171 350 OFFCURVE",
"206 435 OFFCURVE",
"276 435 CURVE SMOOTH",
"346 435 OFFCURVE",
"381 350 OFFCURVE",
"381 235 CURVE SMOOTH",
"381 120 OFFCURVE",
"346 35 OFFCURVE",
"276 35 CURVE SMOOTH"
);
},
{
closed = 1;
nodes = (
"516 394 OFFCURVE",
"556 435 OFFCURVE",
"601 435 CURVE SMOOTH",
"651 435 OFFCURVE",
"686 394 OFFCURVE",
"686 262 CURVE",
"516 262 LINE"
);
}
);
width = 853;
}
);
leftKerningGroup = c;
rightKerningGroup = e;
unicode = 0153;
},
{
glyphname = circumflex;
lastChange = "2016-03-24 04:50:40 +0000";
layers = (
{
layerId = UUID0;
paths = (
{
closed = 1;
nodes = (
"70 660 LINE",
"155 740 LINE",
"240 660 LINE",
"290 660 LINE",
"210 775 LINE",
"100 775 LINE",
"20 660 LINE"
);
}
);
width = 310;
},
{
layerId = "BAEEE752-CD63-427F-8763-260FDB7B8BAE";
paths = (
{
closed = 1;
nodes = (
"80 660 LINE",
"165 740 LINE",
"250 660 LINE",
"310 660 LINE",
"230 785 LINE",
"100 785 LINE",
"20 660 LINE"
);
}
);
width = 330;
}
);
unicode = 02C6;
},
{
glyphname = caron;
lastChange = "2016-03-24 05:09:03 +0000";
layers = (
{
layerId = UUID0;
paths = (
{
closed = 1;
nodes = (
"190 520 LINE",
"270 635 LINE",
"220 635 LINE",
"135 555 LINE",
"50 635 LINE",
"0 635 LINE",
"80 520 LINE"
);
}
);
width = 270;
},
{
layerId = "BAEEE752-CD63-427F-8763-260FDB7B8BAE";
paths = (
{
closed = 1;
nodes = (
"230 520 LINE",
"310 645 LINE",
"240 645 LINE",
"165 565 LINE",
"90 645 LINE",
"20 645 LINE",
"100 520 LINE"
);
}
);
width = 330;
}
);
unicode = 02C7;
},
{
glyphname = breve;
lastChange = "2016-03-24 05:09:05 +0000";
layers = (
{
layerId = UUID0;
paths = (
{
closed = 1;
nodes = (
"195 521 OFFCURVE",
"235 556 OFFCURVE",
"260 601 CURVE",
"240 616 LINE",
"215 591 OFFCURVE",
"186 576 OFFCURVE",
"130 576 CURVE SMOOTH",
"74 576 OFFCURVE",
"45 591 OFFCURVE",
"20 616 CURVE",
"0 601 LINE",
"25 556 OFFCURVE",
"65 521 OFFCURVE",
"130 521 CURVE SMOOTH"
);
}
);
width = 260;
},
{
layerId = "BAEEE752-CD63-427F-8763-260FDB7B8BAE";
paths = (
{
closed = 1;
nodes = (
"226 510 OFFCURVE",
"277 548 OFFCURVE",
"302 604 CURVE",
"274 625 LINE",
"254 600 OFFCURVE",
"217 575 OFFCURVE",
"161 575 CURVE SMOOTH",
"105 575 OFFCURVE",
"68 600 OFFCURVE",
"48 625 CURVE",
"20 604 LINE",
"45 548 OFFCURVE",
"96 510 OFFCURVE",
"161 510 CURVE SMOOTH"
);
}
);
width = 322;
}
);
unicode = 02D8;
},
